<mxfile host="app.diagrams.net" agent="Mozilla/5.0 (Windows NT 10.0; Win64; x64) AppleWebKit/537.36 (KHTML, like Gecko) Chrome/134.0.0.0 Safari/537.36" version="26.1.0">
  <diagram name="PÃ¡gina-1" id="44kUhtMoHvrqvFD9olR0">
    <mxGraphModel dx="860" dy="1764" grid="0" gridSize="10" guides="1" tooltips="1" connect="1" arrows="1" fold="1" page="0" pageScale="1" pageWidth="827" pageHeight="1169" math="0" shadow="0">
      <root>
        <mxCell id="0" />
        <mxCell id="1" parent="0" />
        <mxCell id="xg1OOrG9r_t1N4pU3jfp-1" value="" style="rounded=0;whiteSpace=wrap;html=1;" vertex="1" parent="1">
          <mxGeometry x="495" y="-1157.42" width="770" height="450" as="geometry" />
        </mxCell>
        <mxCell id="xg1OOrG9r_t1N4pU3jfp-2" value="" style="verticalLabelPosition=bottom;verticalAlign=top;html=1;shape=mxgraph.basic.half_circle;direction=south;" vertex="1" parent="1">
          <mxGeometry x="854" y="-723" width="29.95" height="39.69" as="geometry" />
        </mxCell>
        <mxCell id="xg1OOrG9r_t1N4pU3jfp-3" value="" style="line;strokeWidth=2;direction=south;html=1;" vertex="1" parent="1">
          <mxGeometry x="880" y="-1158" width="10" height="451.12" as="geometry" />
        </mxCell>
        <mxCell id="xg1OOrG9r_t1N4pU3jfp-4" value="" style="line;strokeWidth=2;html=1;perimeter=backbonePerimeter;points=[];outlineConnect=0;" vertex="1" parent="1">
          <mxGeometry x="495" y="-944" width="770" height="10" as="geometry" />
        </mxCell>
        <mxCell id="xg1OOrG9r_t1N4pU3jfp-7" value="" style="shape=stencil(lVfZctswDPwavWJAggTJ5zT9j8zEqT1144zjXn9fqB6qImRvJ2+yvEvhWByc5OF9//S2myK/X86nr7ufh+fLfpJPU4yH1/3ufLjY0ySPkzy8nM67L+fT99fn6++3pxk5P307/ZhP+HXltUYhzqzIv69vEnH6++LzFX88vK7xQlEHfKXU7uOrEo/nh0Sh3CeUQnn8QAwU432CVu9BbJTyfUJu3YBOkELKgBAoj4SUqAGTUiYdfchMTQDBXEwjIVMBXzCLmyM0yhUQEtUxSmqZBCZJ8HnQ0gN9k2BCyDwQinkVACH7xJVMCZhkQmh1JJjT4AvBMh1GsZrTQBrB1OrUrdSANIJ4aTSmAHxQqqMLzeoHlIMZ1EZ86wV4W6veAcMXUJ/i7QnMxMDjSLoxqALhhV5aKzxKMlMRH6AC7LFwu4AWKiCgi3cLXqmAhsddwwveKhNozux39iSYgOBbheEZxDNScXghBZIWaht8Rt2xy3eFR/YrheztFxBP7Z1zFc8A8IXEna+9qO/gk8uXtS1QMIXYFXCFeCXZ6J9BW7SWFj1egb+JYvX4BvQsXS1rPGpxfnDM9kA9t+bjg+xhkk39Bli/bj+wfDHQG/fTVnpg4C93ta/0hurro/hCddSPTQyU38C+4G0mCQiojZgyKtqmXkMdZWloC0HhF+YcjD6U2FV4myB951t2g0oRfUH7+rMQEqwaYb9MKMMtUGSzECmcA/PO5wgCG0uKJGMeko1u0Cnsb7cqz0cAadjOV8ew2taGtg/dLHUWaAXDtaS+8y3jvsJ1osY+XBZCgImrtg2MicuwnK263H7AcI+du784PHJgnu4ez0AW1n1EPR6kwLobe/vh+XXrL6qc+X7m7Yfxab5/BWy/5cvj0X1utR4umiMGkrtJyEgRG4sEbtRbj20hAgr98I33v3h7+He9fjkcj9fb+fp/fx23V9ervDz+AQ==);lineShape=1;strokeColor=default;" vertex="1" parent="1">
          <mxGeometry x="908.1671519654527" y="-760.6252949056455" width="23.50680162790668" height="27.06239560819058" as="geometry" />
        </mxCell>
        <mxCell id="xg1OOrG9r_t1N4pU3jfp-8" value="" style="shape=stencil(fZbLUsMwDEW/JluNbdmWvObxH52h0AylZUp5/T0yIW5lEu0SJyeypHsVD3jzttu8bofg3s6n4/P2c3w47wa8HUIYD7vtaTzL1YB3A948Hk/bp9Px/fAw3b9u6pv16uX4Ub/wNXHMgKFSwX1PK+gh5N+V+wnYj4croCQoUQHRA1tAAcoKSBEwmkD0CsgEWAwgQtEAFchpHeAMpHPgAhzWAUo9UDKwESEjOFaAdw6cWyeS64nCc6UXAWRwRQMIxOtAkFbrCJzAGZ0LHoruHEkEIwdfIHWdc8DWlkRrpMVEZtKBwGkAMwSjEfIYnQLqJ4xW1w3oKtVNGoCk2KlPyhCNstYihj5CMSLUNnVbklYaSVchaGlUsZABcG/qKkcjhys1t1ajHaIZpompmWo562bJJtdsAhfTN0O0wbDcOYKoc7iMnmWPyuDKPUBGmepo7Dwq4xMNuYrWNFAHtLElATp9Xyb6muWwiyBqMbbkA7C2HGUoxhQQQ6JWBs8rywF6YSQ2DfdPeWJZy28O6N/ISFbTwOv9S0be+sHNI675P5tDzxPkbtKb9akDq3Pz/IFlSRAkbWY3LyznyxBT9775pyrgdUHDPJ/+3peLy3njcdzvp+PK9fP+fCJL09kG734A);lineShape=1;strokeColor=#FFFFFF;direction=west;" vertex="1" parent="1">
          <mxGeometry x="850" y="-710" width="53" height="41" as="geometry" />
        </mxCell>
        <mxCell id="xg1OOrG9r_t1N4pU3jfp-11" value="" style="shape=stencil(fZbLUsMwDEW/JluNbdmWvObxH52h0AylZUp5/T0yIW5lEu0SJyeypHsVD3jzttu8bofg3s6n4/P2c3w47wa8HUIYD7vtaTzL1YB3A948Hk/bp9Px/fAw3b9u6pv16uX4Ub/wNXHMgKFSwX1PK+gh5N+V+wnYj4croCQoUQHRA1tAAcoKSBEwmkD0CsgEWAwgQtEAFchpHeAMpHPgAhzWAUo9UDKwESEjOFaAdw6cWyeS64nCc6UXAWRwRQMIxOtAkFbrCJzAGZ0LHoruHEkEIwdfIHWdc8DWlkRrpMVEZtKBwGkAMwSjEfIYnQLqJ4xW1w3oKtVNGoCk2KlPyhCNstYihj5CMSLUNnVbklYaSVchaGlUsZABcG/qKkcjhys1t1ajHaIZpompmWo562bJJtdsAhfTN0O0wbDcOYKoc7iMnmWPyuDKPUBGmepo7Dwq4xMNuYrWNFAHtLElATp9Xyb6muWwiyBqMbbkA7C2HGUoxhQQQ6JWBs8rywF6YSQ2DfdPeWJZy28O6N/ISFbTwOv9S0be+sHNI675P5tDzxPkbtKb9akDq3Pz/IFlSRAkbWY3LyznyxBT9775pyrgdUHDPJ/+3peLy3njcdzvp+PK9fP+fCJL09kG734A);lineShape=1;strokeColor=#FFFFFF;" vertex="1" parent="1">
          <mxGeometry x="836.7251310600963" y="-773.7748518037187" width="2.3899116653974213" height="2.3885447225546326" as="geometry" />
        </mxCell>
        <mxCell id="xg1OOrG9r_t1N4pU3jfp-13" value="" style="shape=stencil(fZbLUsMwDEW/JluNbdmWvObxH52h0AylZUp5/T0yIW5lEu0SJyeypHsVD3jzttu8bofg3s6n4/P2c3w47wa8HUIYD7vtaTzL1YB3A948Hk/bp9Px/fAw3b9u6pv16uX4Ub/wNXHMgKFSwX1PK+gh5N+V+wnYj4croCQoUQHRA1tAAcoKSBEwmkD0CsgEWAwgQtEAFchpHeAMpHPgAhzWAUo9UDKwESEjOFaAdw6cWyeS64nCc6UXAWRwRQMIxOtAkFbrCJzAGZ0LHoruHEkEIwdfIHWdc8DWlkRrpMVEZtKBwGkAMwSjEfIYnQLqJ4xW1w3oKtVNGoCk2KlPyhCNstYihj5CMSLUNnVbklYaSVchaGlUsZABcG/qKkcjhys1t1ajHaIZpompmWo562bJJtdsAhfTN0O0wbDcOYKoc7iMnmWPyuDKPUBGmepo7Dwq4xMNuYrWNFAHtLElATp9Xyb6muWwiyBqMbbkA7C2HGUoxhQQQ6JWBs8rywF6YSQ2DfdPeWJZy28O6N/ISFbTwOv9S0be+sHNI675P5tDzxPkbtKb9akDq3Pz/IFlSRAkbWY3LyznyxBT9775pyrgdUHDPJ/+3peLy3njcdzvp+PK9fP+fCJL09kG734A);lineShape=1;strokeColor=#FFFFFF;" vertex="1" parent="1">
          <mxGeometry x="838.82829157146" y="-666.4632284905085" width="2.3899116653973524" height="2.3885447225546326" as="geometry" />
        </mxCell>
        <mxCell id="xg1OOrG9r_t1N4pU3jfp-14" value="" style="shape=stencil(fZbLUsMwDEW/JluNbdmWvObxH52h0AylZUp5/T0yIW5lEu0SJyeypHsVD3jzttu8bofg3s6n4/P2c3w47wa8HUIYD7vtaTzL1YB3A948Hk/bp9Px/fAw3b9u6pv16uX4Ub/wNXHMgKFSwX1PK+gh5N+V+wnYj4croCQoUQHRA1tAAcoKSBEwmkD0CsgEWAwgQtEAFchpHeAMpHPgAhzWAUo9UDKwESEjOFaAdw6cWyeS64nCc6UXAWRwRQMIxOtAkFbrCJzAGZ0LHoruHEkEIwdfIHWdc8DWlkRrpMVEZtKBwGkAMwSjEfIYnQLqJ4xW1w3oKtVNGoCk2KlPyhCNstYihj5CMSLUNnVbklYaSVchaGlUsZABcG/qKkcjhys1t1ajHaIZpompmWo562bJJtdsAhfTN0O0wbDcOYKoc7iMnmWPyuDKPUBGmepo7Dwq4xMNuYrWNFAHtLElATp9Xyb6muWwiyBqMbbkA7C2HGUoxhQQQ6JWBs8rywF6YSQ2DfdPeWJZy28O6N/ISFbTwOv9S0be+sHNI675P5tDzxPkbtKb9akDq3Pz/IFlSRAkbWY3LyznyxBT9775pyrgdUHDPJ/+3peLy3njcdzvp+PK9fP+fCJL09kG734A);lineShape=1;strokeColor=#FFFFFF;" vertex="1" parent="1">
          <mxGeometry x="767.1018474426721" y="-675.9155396884252" width="2.3899116653973524" height="2.3885447225546326" as="geometry" />
        </mxCell>
        <mxCell id="xg1OOrG9r_t1N4pU3jfp-15" value="" style="shape=stencil(fVbLctswDPwaXXdIgODjnKb/kZk4taeunXGcPv6+UDVUDVrGjaK9Eha7WHLip4/9y/tuovBxvZy/734dXq/7ib9MRIfTfnc5XHU18fPET2/ny+7b5fx5el2e31/mf86rH+ef8xt+L7gaEeKMovBn2SFByf92vi6A4+F0A2gBoRgAMyg4gAyxgMSQ5AAaKhmAaEneFxpSNYBcwc0BCKQZQA1g5wu1QsQAtA2xPAaUhhgsIKPVxwCtmNgAYtBOOzVJQbCsW0Xjx4CUx742RnVIsLK23qgCdryhTgjJAEoCOaw5oFlv5IjqkGYaS0oNRA6gQCxp3akOhyRI2Q6EtjU6OqiZrNTEYAeQ8+g+isiOcEU5WKUp9SHctmvpbl5JB1e4llCscKxD6M9otHaVCHE43Lh5lTohekNaQFaIknuntwGx59Bq14LouK8S0jDV0sd2W4iIZts0R4/TphxQZAQUByDapTyW1Byp5S6OZ4A3cm2Ueg5opyRqyEOU6VA7wlHoE7nq0MDieIMQbZdUGTf6emytziBkp0lxpKwp4430nVW1yx6BO5U1ObPTUh5tRKWfYNvORrL1xNJjcJtv7iG6SuYm0nzk21RlP+cF2So8HlW6+H/jeDscj8uF5fb38YaiW8vthp//Ag==);lineShape=1;strokeColor=#FFFFFF;" vertex="1" parent="1">
          <mxGeometry x="753.1961763866469" y="-657.6785331242061" width="2.817403409334006" height="2.4823901491682787" as="geometry" />
        </mxCell>
        <mxCell id="xg1OOrG9r_t1N4pU3jfp-17" value="" style="shape=stencil(fZbLUsMwDEW/JluNbdmWvObxH52h0AylZUp5/T0yIW5lEu0SJyeypHsVD3jzttu8bofg3s6n4/P2c3w47wa8HUIYD7vtaTzL1YB3A948Hk/bp9Px/fAw3b9u6pv16uX4Ub/wNXHMgKFSwX1PK+gh5N+V+wnYj4croCQoUQHRA1tAAcoKSBEwmkD0CsgEWAwgQtEAFchpHeAMpHPgAhzWAUo9UDKwESEjOFaAdw6cWyeS64nCc6UXAWRwRQMIxOtAkFbrCJzAGZ0LHoruHEkEIwdfIHWdc8DWlkRrpMVEZtKBwGkAMwSjEfIYnQLqJ4xW1w3oKtVNGoCk2KlPyhCNstYihj5CMSLUNnVbklYaSVchaGlUsZABcG/qKkcjhys1t1ajHaIZpompmWo562bJJtdsAhfTN0O0wbDcOYKoc7iMnmWPyuDKPUBGmepo7Dwq4xMNuYrWNFAHtLElATp9Xyb6muWwiyBqMbbkA7C2HGUoxhQQQ6JWBs8rywF6YSQ2DfdPeWJZy28O6N/ISFbTwOv9S0be+sHNI675P5tDzxPkbtKb9akDq3Pz/IFlSRAkbWY3LyznyxBT9775pyrgdUHDPJ/+3peLy3njcdzvp+PK9fP+fCJL09kG734A);lineShape=1;strokeColor=#FFFFFF;" vertex="1" parent="1">
          <mxGeometry x="440.9176841655452" y="-742.4386013770356" width="5.2578056638741755" height="5.254798389620494" as="geometry" />
        </mxCell>
        <mxCell id="xg1OOrG9r_t1N4pU3jfp-18" value="" style="shape=stencil(fZbLUsMwDEW/JluNbdmWvObxH52h0AylZUp5/T0yIW5lEu0SJyeypHsVD3jzttu8bofg3s6n4/P2c3w47wa8HUIYD7vtaTzL1YB3A948Hk/bp9Px/fAw3b9u6pv16uX4Ub/wNXHMgKFSwX1PK+gh5N+V+wnYj4croCQoUQHRA1tAAcoKSBEwmkD0CsgEWAwgQtEAFchpHeAMpHPgAhzWAUo9UDKwESEjOFaAdw6cWyeS64nCc6UXAWRwRQMIxOtAkFbrCJzAGZ0LHoruHEkEIwdfIHWdc8DWlkRrpMVEZtKBwGkAMwSjEfIYnQLqJ4xW1w3oKtVNGoCk2KlPyhCNstYihj5CMSLUNnVbklYaSVchaGlUsZABcG/qKkcjhys1t1ajHaIZpompmWo562bJJtdsAhfTN0O0wbDcOYKoc7iMnmWPyuDKPUBGmepo7Dwq4xMNuYrWNFAHtLElATp9Xyb6muWwiyBqMbbkA7C2HGUoxhQQQ6JWBs8rywF6YSQ2DfdPeWJZy28O6N/ISFbTwOv9S0be+sHNI675P5tDzxPkbtKb9akDq3Pz/IFlSRAkbWY3LyznyxBT9775pyrgdUHDPJ/+3peLy3njcdzvp+PK9fP+fCJL09kG734A);lineShape=1;strokeColor=#FFFFFF;" vertex="1" parent="1">
          <mxGeometry x="753.0266950443449" y="-658.4939885974129" width="4.150899208321717" height="4.148525044437233" as="geometry" />
        </mxCell>
        <mxCell id="xg1OOrG9r_t1N4pU3jfp-19" value="" style="shape=stencil(fZbLUsMwDEW/JluNbdmWvObxH52h0AylZUp5/T0yIW5lEu0SJyeypHsVD3jzttu8bofg3s6n4/P2c3w47wa8HUIYD7vtaTzL1YB3A948Hk/bp9Px/fAw3b9u6pv16uX4Ub/wNXHMgKFSwX1PK+gh5N+V+wnYj4croCQoUQHRA1tAAcoKSBEwmkD0CsgEWAwgQtEAFchpHeAMpHPgAhzWAUo9UDKwESEjOFaAdw6cWyeS64nCc6UXAWRwRQMIxOtAkFbrCJzAGZ0LHoruHEkEIwdfIHWdc8DWlkRrpMVEZtKBwGkAMwSjEfIYnQLqJ4xW1w3oKtVNGoCk2KlPyhCNstYihj5CMSLUNnVbklYaSVchaGlUsZABcG/qKkcjhys1t1ajHaIZpompmWo562bJJtdsAhfTN0O0wbDcOYKoc7iMnmWPyuDKPUBGmepo7Dwq4xMNuYrWNFAHtLElATp9Xyb6muWwiyBqMbbkA7C2HGUoxhQQQ6JWBs8rywF6YSQ2DfdPeWJZy28O6N/ISFbTwOv9S0be+sHNI675P5tDzxPkbtKb9akDq3Pz/IFlSRAkbWY3LyznyxBT9775pyrgdUHDPJ/+3peLy3njcdzvp+PK9fP+fCJL09kG734A);lineShape=1;strokeColor=#FFFFFF;" vertex="1" parent="1">
          <mxGeometry x="753.0266950443449" y="-658.4939885974129" width="4.150899208321717" height="4.148525044437233" as="geometry" />
        </mxCell>
        <mxCell id="xg1OOrG9r_t1N4pU3jfp-20" value="" style="shape=stencil(fZbLUsMwDEW/JluNbdmWvObxH52h0AylZUp5/T0yIW5lEu0SJyeypHsVD3jzttu8bofg3s6n4/P2c3w47wa8HUIYD7vtaTzL1YB3A948Hk/bp9Px/fAw3b9u6pv16uX4Ub/wNXHMgKFSwX1PK+gh5N+V+wnYj4croCQoUQHRA1tAAcoKSBEwmkD0CsgEWAwgQtEAFchpHeAMpHPgAhzWAUo9UDKwESEjOFaAdw6cWyeS64nCc6UXAWRwRQMIxOtAkFbrCJzAGZ0LHoruHEkEIwdfIHWdc8DWlkRrpMVEZtKBwGkAMwSjEfIYnQLqJ4xW1w3oKtVNGoCk2KlPyhCNstYihj5CMSLUNnVbklYaSVchaGlUsZABcG/qKkcjhys1t1ajHaIZpompmWo562bJJtdsAhfTN0O0wbDcOYKoc7iMnmWPyuDKPUBGmepo7Dwq4xMNuYrWNFAHtLElATp9Xyb6muWwiyBqMbbkA7C2HGUoxhQQQ6JWBs8rywF6YSQ2DfdPeWJZy28O6N/ISFbTwOv9S0be+sHNI675P5tDzxPkbtKb9akDq3Pz/IFlSRAkbWY3LyznyxBT9775pyrgdUHDPJ/+3peLy3njcdzvp+PK9fP+fCJL09kG734A);lineShape=1;strokeColor=#FFFFFF;" vertex="1" parent="1">
          <mxGeometry x="753.0266950443449" y="-658.4939885974129" width="4.150899208321717" height="4.148525044437233" as="geometry" />
        </mxCell>
        <mxCell id="xg1OOrG9r_t1N4pU3jfp-21" value="" style="shape=stencil(lVfLctswDPwaXTEkwRfOafofmYlTa+raGcdtk78vNCptEZI3k5ssYwXisVhw4Ie3/dPrbgju7XI+/dz9HZ8v+4G/DSGMx/3uPF70aeDHgR9eTufdj/Pp9/F5/v36NFlOT79Of6YvvM+4TIUnUHAf8wtPfn7xfTY/jMeFuU/ka2/vKPj7gBDJ+x4gVPJ9AEdypQOwowI8xEDSA6IjBjEk1w5wBVQqCQAqcegAKVMGR8qJXOoAmdubTUDx5GIPqDCG6ij2Hor6dACQKfRZKpUCqIMkqr2Hqh4qABSK0QIEATTrBlAogSyJUO6bteqbCLrVuZaUhpBALkAXtS+1xJbpewDT36K9UWCapI9a8wA9ZIp91FMeQKn1xCavizxsI7Q788oFaHDxrVDLIFCtlZLFpgmx+lbZRSESanCxjJhKDQpRV6WefAqM4f/fy35FAE9iAPmzOqR+uk6cQx4SBQOIJLiZhK0H2Ew6h5KNQdDcEGITdCVBHmRFCA8lZQPAlDFHo5kCqWnG3aBNtypr0di45mRBoIALx94CYOG4EXIBqEAhvgyoV34t0ooUomiIKwIxVjnpPdTQRGZbR/NK5Spsjewo9e1dQjvktrSzVTnVbg+Cjpm4bz7dBQRoEKvKmfWkNoZsb0y6H/WcZoFTw1/loAGC+kQAZynq8bj3bT1aLH2CtsSV6kJzt1ocoDQ48v3XC1yVViuALjZAqfTrfayxne6OuWk4hkuSbtdGmuFs9G3qNHMHZ29oBL+ZM0gkr81Rn0VLFdeW1m1qUY3GPAImfvEi8qm5PtzuPC/j4TBfmZb/2zuSvprvV/z4Dw==);lineShape=1;strokeColor=#FFFFFF;" vertex="1" parent="1">
          <mxGeometry x="753.3891507395828" y="-658.1274144114575" width="35.738389483728476" height="25.016988631916536" as="geometry" />
        </mxCell>
        <mxCell id="xg1OOrG9r_t1N4pU3jfp-22" value="" style="shape=stencil(fZbLUsMwDEW/JluNbdmWvObxH52h0AylZUp5/T0yIW5lEu0SJyeypHsVD3jzttu8bofg3s6n4/P2c3w47wa8HUIYD7vtaTzL1YB3A948Hk/bp9Px/fAw3b9u6pv16uX4Ub/wNXHMgKFSwX1PK+gh5N+V+wnYj4croCQoUQHRA1tAAcoKSBEwmkD0CsgEWAwgQtEAFchpHeAMpHPgAhzWAUo9UDKwESEjOFaAdw6cWyeS64nCc6UXAWRwRQMIxOtAkFbrCJzAGZ0LHoruHEkEIwdfIHWdc8DWlkRrpMVEZtKBwGkAMwSjEfIYnQLqJ4xW1w3oKtVNGoCk2KlPyhCNstYihj5CMSLUNnVbklYaSVchaGlUsZABcG/qKkcjhys1t1ajHaIZpompmWo562bJJtdsAhfTN0O0wbDcOYKoc7iMnmWPyuDKPUBGmepo7Dwq4xMNuYrWNFAHtLElATp9Xyb6muWwiyBqMbbkA7C2HGUoxhQQQ6JWBs8rywF6YSQ2DfdPeWJZy28O6N/ISFbTwOv9S0be+sHNI675P5tDzxPkbtKb9akDq3Pz/IFlSRAkbWY3LyznyxBT9775pyrgdUHDPJ/+3peLy3njcdzvp+PK9fP+fCJL09kG734A);lineShape=1;strokeColor=#FFFFFF;" vertex="1" parent="1">
          <mxGeometry x="765.5810163334074" y="-679.7398446315411" width="4.150899208321717" height="4.148525044437233" as="geometry" />
        </mxCell>
        <mxCell id="xg1OOrG9r_t1N4pU3jfp-23" value="" style="shape=stencil(7Z3brm25cZ6fRrcLPBRP1078HgLctgQ7aqEl5/D2YUVae8xdP+fH3kACt4N1p9aetcbgIFnHv/76Xf2Hv/zh93/+6Xcl/eWvv/z8rz/9jz/+01//8Lv6X35Xyh//9IeffvnjX/f/+l39r7+r//DPP//y07/88vO//+mf/vbff/69/9L/13/7+b/7X/iff5Oz8dGGS5X0v/72/5T0Ueb/+X/+8W8C//bHP70KzI/cvhPI46MOFFj1ewH76B0E1seY3wuUjwQCLX30719p/4UFv88frXz3+8F/P3/+uc/f7wUk/H3P33/Tj0Z/3z7a97/PHwu2YP9+2He/rx+T/35J3/2+f9QGv68frYbvmWi99aN8/z1z/qj0QvUjf/9Bc/2wigIpHLr2YbSEIqd0fiQ4pXvP0vffdN+DCq+0T2n/fg17F+gr7ZsW7sEWWPSEdnjCIIHyeXO/CeyLk98L1PVRcly0FRAYH/n7r5T3Z4BXqv0j9yhQSGAvOlz+iZdhCxQR6LQG+/x7LwIZ1MUWCNd/a7wBO13lfm6BTGuwjxkuUP/ocFr3olONAriG9nnjXy7Q4CeMEQXMcKdLjwKFDl//mCkKZPqs47CGTE8YH3PKK4HW2BeomjyBBPZn1SfAPmxjmFYUQFW5tZAKkHGoYj33xpHmM7HP7fM4ngVOi170BD1L/dNinAX650F4EWik7vunrn4RWCxg6sXQZ90CPQpMMlldTuv8KPSVuujWiUpgf9YZFr1Q3bcmi17o622BlKMAKQH3ZMQ+NHol+/S8Xp/AvpgKTLpxe5vklS5mNzonC4/31hpRka1PxfMrza4fDTKKQ5RA/zSTb7V3eMK+5WzjcrBAFRVZLZ9v/PiItG+1fgYJj889Sdl/UynP7ynK2N80+G+TvbHy6bc8759pk/f9D5ucPho9YB8acYrJa9gu6wx7Vj7jlLeKO1yFynHM+Iy7XgQGXee9p+HcGUcyJwGK9bZAvJ2Gd6cnOagNN24LVBGgz7oFTOzhgo1zgbCGrftZILoZfJ190WKtEhmfJZ7PwGhmC0TFPW47ra80SNPPg1M86AlTNm4L0H2QAMvXQHmAengC2pL5+c+/8pVs3y/5Sqgm9xNGFLg49jloDfZ8tuKOyYb+GWeeBZI4lHy8t0B0lfpnAuKdQBb/kI731tVL/HSyJp4QkmiGlMAWiGEoRzMuEJ5geJb8lUTzNVBkRe+0offmnzVFgUQhXIo2etuHyQJd8jh0H+r23sTNwED3WyLp9Qkce0e3u/JXmuLjVk78lE/H6EWgwVeyb9fldQ2kZpYYlMrRzDfP4nWnKXSo4s1cBfS0ZjIo6tgbhz8mIZx9GGdBW4sC6M3Y4U4n+qyax2nohLqA+Bro81nMFLvmY5/PShQgZbwFVLc2TrVO0d64BskWuwCb3SwGZZLroFqjfxqAt6lWecLgPE6Ml/pnyPU28SOfFbWGxXjGM3YUcNhnFvPVDeUnaPKqw2fdAtGF2zaOPuvpTpN9sG9K5fVO8xpi7G3oCWyBqMjYoGyBqCorl6+aLLrecoI2owClZbbAksAPEw5ddrqiYd+Ljnf6sg/bSZQSHOX5rUrQlDBTpGXExb56lmRXwjW3JtFA4ido2THjdehFzHRGPdb3DZWNJhN3FCBffQuESugWoBvaNfm7jxK9UhOlUTGB3dvBXcI1NDnd7La6gCS7jOLvJgbIsLDWVXk3VEtdtUxD78d3+ofKLVsgyRPIrvcaE14uQE+oh4IOxa6eB5E10OFzl0/SmpmQAV1Oa8cknGdaxZmZFG+oER2fCad3AUoMpwfXyZJEA5x08GBXkg6UIvPIUp/A0XFU3gOzdlugyBPoaDiAQJ6A4bSCRtjlcwFNa4CZdoEWBUiR+Ro0S8EbV8S/IpxG0expQ2fGd1quKN3pffjiGhpaoKqKjFOVlj+hMa+pSjK76dPevB4NivvmZ2LyVYD0koleGhi79nFw7gmDsAW6aA1y+bbA+qGv1KekvQeWjLZANIoDoR1bIHoz31b1TkA1HykyFwhrmJ8lz7ev1KMARWW+aC2h8qJjdDyx9u0bJ1Vd8tX7kAu0MNOyBaIyXgiL8PugBU6OjoMrXTIevtoiPKVsv5W0d4vxhiPU4LMWRV8ZFgf2P4cM8Nbn5MJVSZFV9r236xDUzINweeecBGVcLyFNitmirTwRg1A+/943gYKv5CXFGgXIM3acXYkClxJKwHd5NRx22rGC32/cDh0vmcdgRbdAJa+yRudkC1zWECzQFkBoR4na2zhC2QIh82iGFZEtENJ8nt1hgRCWPemgt/H0EAHaOAG1+hpIzdRoFO1bOPsrU/f+WcnRtQimMgbCejZWBAgWkUXNGGexs+SYL18pS0LXc2C0BgHz+leCjcsmd5qPtxd95CtRIjHXaB+McwIukKMAIflcIJzWwjtdY9BknMDKdlBkFMdtgYCCewpDb4+GKGNSAn74UhSgo7HNbqg2+xPgaFiJ9bttgdCbKTFC2QIUgM8kxzuhczIlFrWEoeWS8sMWIO9+C4RasCVM6C49SwmD16VXlLHkWyBUOX3RcJaWxRzzFqCwbEmxzPcBNm5Z7AvZO02JEBdQbwZ2epnsdMbgdVlEem8BqjYvtQ8Ztcbe6SlPoMLrUhuX0aDMLnY6YS/G6DHKquzoavq0XqCw4t07WJzcnySvZAxUkwtUBxdpRmwosYT1ijpifskPH6W8TsqY8IJe9BELRLHoPNwfcowlXvffk2aNZanLZRAYrN82eH/BCu7fU8w3RA1ntG4jYpFdIcHdHDE9sX9PeLMhliohDH6Ie5uwV2AcrAiBL6UkvaPDBe8/4xXYv6fi0owWoS5s8MgSxGzFQsHkvjIh+vTmHrqUK1Z+6rfehHchRtQT3PjXBbC0w3yyzN1i5acmro+1WBTcAoTS6j12qt0FAgjRUVX0Sl0SEwl3umtign2wLRBy6fuzkuPZRyxGbQGswIm+3gJUcfBXWlGArs8WmHKWyMvzr1SjABY2e3R4HFpJlrl/ho4vApedDtC0LUBQnJ5j1aRymNR6xL3sK0opWW+1LVGAPFWHT4gSoAqc2+Hgvxh6SJZELzGE3KQCdxcIEfTTsPdO88UbZ4xaFPj1xaXaAlHzGfdrSCW0XsCgSwxQ5Y5BKXddjoavQQQoV1KXOJ6MrPF9kCt62bhopRlw4U5CFwF4ggkcojJgyYGU4m2TY9ilmbR2vNM7xIiuA5ewZ41wiO06UDA5q+ShM7ZvD2km9YwSVeCKuNuNEX899mDZZJC6kAA8lcuzvyRJX8cxUogxYzZmC2CycUYf+i4Q7nRjfykLOHoLUDEqS21pfyWKPrPUx7wsQpk9cdQ9HuUnNNk4ynT7E0oUuCw6WFHjnkT/Si0KkH3wfahRABc9pcyy8MZliR9cgCLoGv0lZ0QgZSwlisaZPfcE5LRiF3CK+U8vgHHLbfA1GlMyNNmHZpgV2wJB3TsZB7dJBa+yXQo5Uy6QMcB7xkyAw9bpswq0xvuCuSIdWh8b9937K/UoQGllX3SLApQVa5KOaYym9u6z8Eod1f0WCI1Y3tBNApKRaZeueKHqaUz60GoMyxqXWbYJDEmfxrl0E+fEBrZUqLP+4NzPWmN+Zp1e8m6kW72fRxJLF58v5KEfX/mdXsqSksVKqHSU18FO4pCsw+B6cYoFNc+IcpE8JkIWB36a3ucShfMfaMKUlUD4rHZJFy2xQI1bUFdsFrCLXpKmvi1w6YoNiuwB978TCHgiu/TzSOujXdpzlvjeF0DektQ4hwNbIFQc/Pyybo0FtcEliilaY16V8YgCaKeHlE4vfFFDSnbj0+q9E4hl+IElO21Xs87HO8kFYsDF/ucW7kNm7LKgci/FKOeh+H7RlWlWnIfCogBd0SrIAOeoojhOSna1s0GpET66BZDzqkZkQGW+tVrjWaodrai/UlD3DYOmWiW/1Dg3I959ZVVZNSfQ8AJ5vkoSUpSVrlKRvqTtnn9+fQJzjkQ7bcw91uV4szKu0vW0TysuekaT5X+C25lD55b/CdqHGdWMcxDwGkKa4uI61Ck543V7pXjjuJZVNdrl5rAqMF5P5LFAWIMl5qMZMdlvF2o9Kbq4AO1Dl5RX4hSw1B8sMX/ayUlslPLqsSh98YwfIP6rboXPOmPWztUSFS1jP1w1rDJnMT9c40zR36vcE6K1ioYaJollYG62JDvGPcBJNozp6JIU+pizL52S1/g9Y7WISTFSZKGqhtgV4fZ5HI43v4/KkQGjKeoV/z0l9uT9K5eiYhLazwNlGlOEZTzx8dtMoyDLqAZf7JDbR5TilAgmI0dcka4/h34QPcyMt36HnmjHk4Q8jfFGRaD7nPfw6kGOT0D3KEU7bkxLUlY0mh5vc/NYKIMas8WWFQ+rN3vxK8UqTsamJX8lOXyXjrnQbeYJJtCP3kwpAujXJmk/uLgWQkZdmW/QOXHE26GcgWMrFEpExztLViKxx1aiGbGEYLcqrfB+Rcl5KeKAVQ49hSnFLiS8I96Hxl3hliNdUi/IJ+PJz+/XMBIebxOSxcFcrl4h//7GjYpY/9qF6XvyE1p0qHpDIE6Vkkm/ED/OiIUYzOVqgjGfndMYPV7R1ZkOY0TNtyZ6GSbJnsVtggcB7vpzxOuKAlSk3AJZnoCftUdow1p8vAU2tpjW1HpMJ60LcWqPBiWnxKydLVJe3h4hxD6+CBYw2Qik+BP2Cd+IC7+sbASlfL3gEQQqHlfPAXy/EZNdAQ30OrOnFqEp9Hwo+3AhAdUKnu/S4vluTN9SBGjWEhZOS4t2tyXu529RfdtC8OgWiA4Tl8i3QCxQrFujbUxLLHRntDPXFsIiS48RugvwTusaKIQuXbz1hcWuLRC7NBbv9Ig77egJOnxDwEGsKx3dHU5rwcRHWQLdsZuXGGxWY3JTv9NBYHGXt3TmtnVNW+cocEuMyytRzaTKYJGeGKRV4053xpg8+NgXASSkLNEP3QKU0agl4ru3AO50iTmTzp0R2truAvRZc2zK6wl7Cxz+LZ+VkMsOMNd94CdEyMglMZ4P7j1mcDWQm2ini2ShPaBmRRaTexyilBajptoYcyVjP6phy5zSJFTuXy7CB3ZJeBUTYH7FKqVaUa9mscmKcO3KWYQmxS7mRS/aAVewHu1GUQXYZJkKkAXqQlfBUGdPkvUogGm4Ee90ZSJEJ+CXjUPA3ylZTBeollMt92IfpGaCLUnSEVonW1EJ2b0GTspYODIrB3JPgvhFACPwGkEpdTHjt5SXLXENsQqqi13pKsMU7KLuy6Fgh8Uupau4FLvyqS2cLVBsX1ifKN23eTuLAhfyrWDjvHDKHlnsOxlYnfFikpSX8bOu6CQ+o0beCcR6woXQfolBGcxKm6RBYmAO2JLgArhEbkm6cyanTlKEa9eJN85ShHY+/TpvX0mOBlW8TXqwL5rvoSx4vXHcvRkbhhMS6imO0lfFSE3lVUBXugltSELXwe+0aD5Kw5UmsBfO/pR0ECDtnYd4ZIsr0oI8uNQTstrpxXwv42CycA1d7gOPhcrqzfC0HScZFLNLucejABn2wytNpm/pcqcncsDmIZ3ATMOZR4ynXVXyE7pob8pr5CEWaCAMrORDpxcygwptwA1NZAcwNR0NrydIGzqOI1ELxGR0dUjRn/leqpBflwuVqLA5Fh5Soc02JbMiE8Bf4azDFghcvCVhV0ip0U47uIViUSFyc3QLhTQ14pXKJUFbhf6Rk/1FoJ15MeGqgEcv8+2c91BG7mGIb0KHujjrYDLEiAOOYsKfuvi0mhCjc8mv2GFMEsHmPRhWBm9yf6qMZM3cOyOk/INnellMezMTb2+SIWPGBEn9dIx0u9SxuKe3y/g87i3qWji+kR8EdcFF3d5j3NBvnBXBtA0sfPvvc/g9KVQl0Rg37oawX+P2/iX+fSRWk7I69yt0YTKcvL9SDcgJoZzaEHEb/ZeFvHrx6A7pyy2Fu9NkyOttHvaMl7jwmPEtENJ0bkcplJwxF1Muo52k07EYN8zNeJEL94PaismbYhi32YyZw2JcU5cG0sIgXBM8nqdouQ8x1BBL4yL8jMe7MNW6dtiVy3Qd4au6C8TD1zCf5IDA8EqdBXJsJijcVujY6rDTk1lGaswyOELvh8o4jtCjJwirbLlkP7O4nZcnpJhlKFz8rRLSl0sdVHIxhSveVVDdZeJp9fhjRgFEgJwEqO5TU+RieQjL3gkEdV94/mdNMeB2ijZ+QtRLjDHRbE/hrtkq/dGF2zursIEVHptXVXszg5MJo1nJrGb0s2bM9phSrfPUooeU/FWA7IPUowtzK5pkGQoz43oHtrgOlAh8Krev+0BWtIgF4hqiP2FGAZwgV+SK8mRLbTvfAnRFTWC/hbknHIevvgbjU6PJ4hGMjk8Vs4sDfGQaYelcTsvikQ3sIndgTY4C2CWYYj6pcPdyTZKLuT4hwPEu0UZZsTpWOOAuS8wux0tFRpI+Bed3AtGgfAvpfr3ADUIlbuhlLlLIEV/UvU7cLY2LjilG0Q8q8V3io4sAQqiG6CUO1C3Huk8ZrMhkKJefpQuwOLzSxEXblOM9ebigcOKUyeReUwaWXAp2K5ZAvHeFVKX0wly8SlsxTVe4vGxLqgGMfdNXqomByOtAVYrjPKewjDAbmMmIoMd9f3s0ehQgIIF9K6m8CtBnFR7h2xMk61C5mcxktnLl6c0mWqMaMkPUKUX4dmsKj23nDdNFVdiNb08YAnBqqGYeloaXRWMMpEVHY+hOF5wMY9+0oboyG9hRAMMyCcAfhOvbRevh466n4JFVnnvx4D1eBLBPXRKDledemIyFrNyNYDKp8vYEsUDewEZPWALdyQjHcwi76CWcsaU4GZ4k8DAGvqwBGZwE0FF52EeTiL1y0ORcvyKARHHKQsXDZJsCazhB25IUfy8cUdqNaTxNLYl9MIzjWhLdyoxmvtMlCiDWR3oFXFWyjYu6tWE1waQb84bUVDZ75hmoMqXlQmTgUZaQ6GDrYxJa9IbI5ZoiBrE2zHsXod6q94BDrCiiiSSkqRweu5cq+4D9P+tEccMxUIQJczlBu8Sr3eaqKpU1Euuug9ml+1D0xlVOMguT1kOg9DYbKhgT5FdqB08AW7LXgYkCy2tV2LUvfqv0ktXrGPom2htDS2ncqhc+yiF0Jgz91yqN7wNpPsUrMR33IeC4ePdDQO3G1TIhB75woHgtS5i0MEErldfasAlQ25ndPvATohvKg4mtHwIO6jDaAvHGMULDh96FjescvKrr0DnZPw7KGJnlTA4fk5a7/yWLxoCjiG5tTL2l0xcao+vyYeMuTChK44bcdfng/mCEIu1t9VKlkV4y9yr5CToFA2HzWcCjrPk8gNFJHhSAl0OUhdSMMhvWI0XuO9GAA1slpZX+NnJXQDCVm8S3QDwaPLPlGE9j/UEtUOGjcbJAOKNiiJqpXG7WAJxhMAcBJi2vahTt9pXi4eMI5aEzfrVAXDiKRGtsgfxoiF4izElV7rpLMVh5QRuXm4Vlyn1v8luFFOSiKouMVHQBgqcKhc1jk84CVQYG8aCaotlQJqUtMlH6MqimSBX/or1LERQ8DxdxAfHuKRYtVfp0C2Z0y0m3YjOmHj4Gz5UqlOKc8irKxMsDCR1XLMl+rFpqR0VmCIkd0nbo6MpwZV80pYvaYYAWteh1fSVOn3bhs7+YXadXEgtEXmVf4pEVzFWOJKe1ogs3dOhRxWrZSKewDEzW0J6+ihdonOaSXRbdRZEV2LihTIqG3swWiDTQrIyHkncaz7jTzhYuuvR1CDgQRq65mXbDtWulidJFTfhlvJ2H0hR2oBTHhqEqV3RwV0iTaHdyK70AbbYA9mxkadyabBSz7MNkDgTBhtbJ9kHzrUzAUTR3z6z/3k8kT8DkZhJFNpjsN0meb2COrAiUx/1MMopZ+AOYC74IXNUdU+64i1MlOzcMaQB+aT5b4sJdusp1QMq8VWliTZHpk5w3SDqBUfNVEeBI0Ud/lPgETHktSQHz/J+HyPnF16CvdOjp4/uQTZBqhhWOFSsihevZ0mns3Q84IjrCmCsuYESPslRuMhIAcEVNL8F9YRoXITi8gHNPv6e25y4opIszGatwT/vtu+9Z4u/J4R6CsGP+XmkvLhkBRZLp9t/jCPN4Hvjv5ywIWJ557h1IP7QDZUXW5cIl70MPBp9pkxmmpeImtCqNJ5U9qhrTPR4sUudWlQ4JLl41i7RshXEvTfIShUmimswaL8yL3iwatWI85cii2SyclzgKUEnj+Ep0PQ+L5vEjh8/KdRzfOBEo/JW0Q4LyEofDx5RmTSqnt2aydsLYXqYGF/msTDU9ZB+wjlMOzWToUZVI0FquzFixd74x253MzrwhkaVCcVt0jnFY4dShF01aFLhwAsZ2NcPjfXglnr7gi1bd+kPlMVeVXJaJPUlM4+9HQ9Zw2el4Wq+YwtgLY8zIZNLP01ndzwgMKBMd1WGSzcyoZqYOSGRww+qS8+Ws8pI22spfaSkUx/AsLdFLj+J5JxAzH4zdWdIWUhs60A+Z9osAXdEXvu7XfA+/kz6CQr3DIjpqgcNn4oD4sBEd/dDDVnd0yQ6HiUf5rfkZL/9aARP2uoFqYyzBak627EsS1zyzusrscHeWQTFl2YcL4eqKyRjHMZKjK0mDyhBbGWrBkCvxTC7vI9SpzvROmBehP+MCvA6QLMyqIiM2CoIJxV+9DJAxYYnMCN61eAm8QRG/Z4BQP62rb/Yrnh8eTyNM/36g8fch/2IZfbAZjZolRBLnEeOw26ymKbMvF/dQKOR1cVertGpVZlRqVcjcE9qo1mPW4D6IOBLSJx4j3+NX8n0gvSKtKZeR0z4LVk4SapYho10z9rK4QIsCVKdvkkwyTia1EauGl9vflLb/0rDQD0lejCUFDmSFF90jGtoF6Cy16EbeBIqQYl4RrHGqY+VEtT7hMuxsihor3CEtRXG3UxS4qaEtTAKocy8KYwKbKIELeM1kuuYF+GUyXJybkA4DqgoDIS1GSRdzWIW47TI4r54MLuVWqjC9uV6CC1QtevN3ClelocVeRyFuM54D4xBaeaXLtBydjkZZA5P8kGVEu20lEOePVJ5GvmLV0Bhl1U00HyOJu+T2HZxPtY8hQ947KoHjEwhwtAUOg+qJw00DjIFXtAsfmGtbKuBMsQ9M4dqltf0yRr5P8UEZOtB1cjFTAfXTZHvSrVsgUktP5kocQubO6Z4uha6HtOydQGikMmbhd/pGGRFECKWmSoDHHDXhe/FXIsPeY/zs+wD3wYQbwi40CTLA0J/AVOuhQPnw2b0TiBboMjgvxVyjTe62l25Km0zEkGKi25hp8aHbfhFA1KFkrJ4uo7evZFGAqo4mwC9jchVliXqG9b0TUGV8YeGP8xY4J6aF0Gcc4Dsrqk9AYsN+GNJ7uXFx49qtVStOxL0OktTPihwd0tv19DG9i6fjWerMEiVUDzY4KaMma/A+CHn100T3btExzzX4eEt235jd1E4mCz+r9B/cFJn0H9jk/jSTaHfyZ82RJcq/EjeOJNlpJDYsEnAwP573/spOU8tc0RvHtL3e4SCvRIBUf4J8JeQE1+mCHcPjIszGF0e3aBKhI2nsFogbxwNui0DLjHvhS5Mbd2k87xKhNIQ2FRndakwQU4RA2S6N5zKgwbg85rxWKkCnVQZlGFfslEDMbznVZoXJxLieVqU7wDrTAxf5Sp1rCDLQypj5zUxeaXDvr4mzPpjtV1Ule2QmY/BuBkUntzJ82jS/NHkNWkuYTARt4oYu3mnNzSxMAZuJQeEpLWZx3oItrrdU0Us839aqVKSu9QeN45A2JEfd2i4Tf3Ks5TqhCw2/kd4uF6DBMYIOalzhyGKnL4OJt0CVeBpnCpXDZ6XTmjWDxRuXZYip8ZCJXER7M4myC4hHRmmKXCKTiV9RFtDgFcfrFJk5N7FalktEFLsAvZL0OhrzOheZG3HJwpl0mrgFoqLLFCvKPUVDkwiGGzfU92YYy0yi7rnpYgyxogsziUNsnF9R6u3KEVjcEurWPqNRbFyE7EJh2fKtGSwOiM74lbrMa9sCmBicMfXoU7E5Gxp87y2ACdoRA44t0GkNEim2C+ZfmEz8lXiySDhLjVEsOlqkcZNq7zJGO3MKuMug7sxtf/0TMP5y+KiBxxctJotKtV2mI1zMbpe6aGOsQ58HO01W1DtzZQ1ULesyiazxBKwuMLDGg7qPV5SSCF2IDRtX8bvM8tinFfdBAB5e4maBLAIEluvCPuFXlCtNRZ/Ap3XqGviKqtag6sAPC4xT7h57sIW5wZjye0j30qW8ph3Sl9CyTUEiDKb3yoe03SWvERFeXDjKCtm6zML88u6/vPv/PN69zrflapmzaspXQmosMVnGowi+8kvf9uErv/Sbzy/pEBZXM5TR1eLXxOPt1EJyH5BGZ0kRcnAq/quG8neBrxqKCvwGayix8mqMGCwCJjVm5VdUPLc+6pwk7zHlYvAXEqF8IRHOAv8pkAhUQ/nCkX07Gl84MhE44MjoLP2/x5EV6dbpV+Zo+UpIRqEdFh1H1TTJ3VtnIhqTKKujG/qFxv41rvQXGvubwH8sGruf9oFeqcorDea8mSc1Q1XLLJEiExuacK1Y5fEiU2wcs1d9dU19Cnx1TenG/ea6prqo+8SDxhTaxk2y3tiopICUSZSxFr4P1P9dpM2KG7T/f+k9TrLor95j3Yf/9L3Hmg0tqJdMKuC+caSMlyTVMo8RnmIfGHOSh0Qo+cJ5qZwglGP+4gT54gT5fr9+a5wg0VW4kujE1HtihjKdT8V1n7ZiGacObH8e6zBIiVTjqjG14sM+mBnri6zri6zr1271fzhZl04mbhjTz3GYPUAZqGEyRKWi2m6SKvFZ4FxfjjSckyeLNSG+7Qgc+2LV/BT4YtU8bNz/BVbNy6S9H2PVtDhe0MnHubUlkmTyoDAvSk4R4NnH+gRUAl/M0X+/D1/M0YeN+60xR9doRQvPttQ52u6Nw51219xk0QxuMNlpakfIM06uvyjjnA43jpD5XzMdvmY6hPPw25rpkKK37R+Up6Cod4GoKYspJG+KI/9Fcn/e+E016xXLJD5LjGqlOi58crtMkzRJ4akROu+GOfsctS6JFXTaFMjFLT9F1K9zidLGfY3V+rvA11gtFSgi8B88Vkvc8y1AzkLVMaSNU8NSyawcrnrFICQmeHJ2t8OY6q/hlCrwNZzyFRzwbqd/c8Mp52meMj1BGhCqXWt0Mu2Y9uEwodbQ/zzMwDWMoItOzjY2KF9DpP9+Rb+GSB827rc2RHqIIstYmPG8tgqQna4xBPVFU7KxH2ZC03DKKtgBF6Ckr0TF9YLLGqK9Cx7vOg5GkbKTdUiRr36Gpu8EhgiQXjoIGJZCqzSSu5rhrxTvg2Flswp4/2Kyqipjzor50RAbh+i1Hhtna8MCuf+zRQHCT/vJEcOOULFysNNYKpJ6gH8lrjhEr7IxijCLC2cMncxyH9iVdgEx7Nhpm2Wn2QJ5IUct0A8Vo7YAqXu3BqJmKJdey8Gg4J0uB0WG5a6TjcM0hdDMXuIHVwLiCWA3WIqQmnoZAVolFq0YizqWWZUxPUHgbpedNrUP1zEVh6AJTqupMuai4IPtfw2auGcu7rTxJElpgbu40t7gIwaFJskrIrVymcUk/X6xDyb0RI8+f3c0VFXe2mVE3ePGSaG/ch/svg9xshiPAK06u6yh773/OWaweA1VGtRq42puil0XLsClopibaahbyzqARjBCWRGqeHEdiiJlGtaLnR9Y4mnsR16RpMMjRX5CkVj0Mtw++hqGRXKf+Cz2gXy+suQscY5sH404Sb7iFa1aHeCquoc0qlvJX6qiZio7iar5KrciCi9tZWI2EwaxyoU1J5AJr5QxqeZUEBrHkTJeETv6OKbn7E86OCcFrmhLscXBPSgqw6dYmqo8n3wLRFV5BY1Eo8jZUGeGW1GAELy+Bo3jLiOiJeVFjm6T5l9XM+Sc6J1mwIVCCS6RoilolvGjbthFAE9rPRh2qotaOgR+aEWnXCB+QhUGADcosA91/OAa3FkXw06ecR2xt/2CpKzSX3NJAVcFdxrXgfrBAl3ySypw6dVS3xv34ZRfQsifuqFcn94CVTXf5WiIfSiMr4tXlHOVJhN9tgBBU7bJCobdnTq6ogKyLZeJPkK2WCaq+4fZ4UXgYuNCuqjwoCQTj6wsBlGtyBDjHhS/UmipcOeawmN1EhNzDCwpWCRuspliRTOarIfN60WATqsfDfFmkOBCw+PMbBJDrOjlCdK1vb8SJXNMurZrwmyoievgQQ6pe0WPrRv7VgRGzhv+OoIKB7cX53hatwCqSgFHlIFXtIqdvj8hqhnm7CvStVGYS7SsWJ8uTPKnsWhhZhKP41oUoJDmKEDgiMMr3QPwEgUuXylk4S6Y2UfPvQhge0ESdKFxw2aJIU1h6II2kpfCKS+hlClcLXMlIIhEaoY/oHIzQtuejr9XAVpDllcqyIFvOfZJbQE0WSVmTgoHfiZspY5rJd1aYhq7XHLG4v4ULicod6KXhy+LzlEAG/oFALiPNzonUtZx8CfHQFlv3KWQKooMO0+koF0Yz/d4qa9GkTzjLMp43VqGippdeoKCztnnexyFFwEsBif5SswPvAUiTn1yHJfktDJTz1EA47gkFmjwIG7J/pQLg5iqysF9Ukn8pYG4mSqEwoVHxD1x4YsA5Ze8HzQcbybuVK64wtUBs8iN5Vrj4ntLj9GFCjFkHbxJgtTMFK+ycvZHxtE+IKt3AtECGXMnSpdr4VT8w/H0IkAVDpPRAreNm9LKyAULm2LjuCTiOy0CpDWU/7FcmD6lLnoXiIevcXhs0p1gzJhg0hZ7TcXHiD2hgOe9v3+lzExuTcYjZM5K9xwNyuKumxYLTZ2RoULr0RFa1GWsUmeoaovXs2MCrvcYCTD4vAvhcsc4oPeYyu08JqTHzgqe69l79Ek4PvT36eH3lMHRmTkc4fr3jH+fdFcXCN+8nocVfo/7a/HGsCHfFybkV9eNhT+UEPMF6lOja5E7w1klCZ2Zl7BU8QkzT+arkvdIqEqfeOVFgLKlDpgVAdJbT//0i8AFhxzKPoWHffgavl90XhirKoY3LybgrpFhbAsgLKDGCsgWwNYZi4fVSWkYcR4MTl4ImC3SCZN5/kgRij5fwwWpIDkDco+qtiUyFqKuQ8iD7lE+INluDMUh43tJHFpMARhPwPJuUmFvIpTw05z68gSKkfKQNVyG30jDc12oNbIw2NfLiKAhCFuOt7OWEHlQRhba/rp4plCXRU/MZR4FcOKPvtLEoCp3AZtObBrMMs68MrtvHlInGlhNy9L7XHlguh++EgWwyzBJY8slL96k0MqzO7xmI2vAAL1HyhoXYJryWCEfDCtWXM1gYh/tDBs81kXiCz8aTFMeK+TzhoWI+KaJDrQpTOZSaE1yHxYjO5MwY118PsmheXaTM+/KKkt5D1eMSk7K/JCRNDlxc46MGL0x4w7hok43DuRI+Hih0i3CgZwwVV9NmplZt1YZmVWZT9ufIBYIG4yqtCVeUsTCrVIZ2qCIwmcYwTsB5Q+mhNUDKHndB+5eiEToTFBQxcF6FM87gTgRLnGUlWP8UBkLUaXW5dqWsaPRZHGm5NBrMzCX6RZoxidglCVl0MqZ96JYiIHtP568EAI+quIUGfBWmZHJfXmBICITkB26PQlArsSvlYmuisycc6Am7UOLM4UuPR5FO8O4hFgUZs9kPUWKARecmVMGqgBoPp2AdeljVIKiWjF16Iw9EpZh160GHBXdnyKjj/200sbNOGy8do4UUxS4keoX4ZefXPapUbc2Y6BmldHHi7EQNar7dqk5VpmKzTQ/LiCvRIfvQVl+y7Iyks3P5ogCF47MUCfaAheqxZCY7RcHq8TT2jkLV2U2bE/szQjaovNUbG2t7AkBIA+O8/UrXayo7gO3zgR4hk8koSs6RIAnwhXJMDcmKi8tWtHGIyCU+rqxR+YCIwpgclPHpC7EXXrBsEYBVJU6EmXxxrWYCHE0Ke9DHL+2sKXPbZysAUkWdHgmYyEO4zkXqpmi0xAW77Q0IxgDQMqQ0HIhXGmbrJD3bszrXiU8bjz262kM+Hanxw0bFPZhZh6DJzyfq9yqy8GgrMsYPGkPXZdRfiqwsOjyzOx6EaDQ0uvX8gTMnPTIqbP4aJhQNK6Fyc1n9NOLACIVZBDrC1X6WaJFL/H2CCkYL67r+OxY2QjENsgkgrUYBd9iiWMtDLMcWBO+a+dXSnEjZucu2h6/0mBqOncrQ92eywPuMAXf4dJrLOPJO3N3VcGYdE64PgMdvi2aKTNN/NBRuY1ECLkHl2m8epDiom+DwoLvwOS9Nct4Qe5sUWpdu5Ab6RxtnkSivcbGVKpPve5FAAPqdaivkYFwXKaOjyK7u2Kiz1NYDLyMw8MTupVVuze5vlazNDIuJI47JpgQR6nzm7nvxDuLZR+wxFFk6k9iCtkqie/MWWaT+3BRMzqwrTNxXJOzxJMnq5B9tYQVvGdixKsfSqd1yvAcLmYVIbS0SybEDlcUmUgFu3AjqW0HvlbqMCpKQsjcvwf+gMWo3ywzRjM328wYWz6UHO++UhzNx5nBPGIjo3Hv/ZJuz4vSEK3EA0Oz8NJ1jLGUYaFjqJsOxC+kwwTO/lCWvPl97M1rGBinAysYAWZOk4Ko4VFYvB+F9u73whxCkU868YDg31cOSzIJJw4n8lSl8aryTJQs789TKYq0RzNrlQybvfBzPADd1w0gxSiQ3Qtb8aGEOLilQ9kCmCq7Cvz7UuWvmhe/zCyaciwmj+Sdws+x2BWZB7jS5ZUixRrDAhynI74Leng60zrxVCSBXD1NgO8EihRasfm/n2rwjHppP1bK7YdXwlJuP7i12E+kVKiDXXMpmTzkFW9vnBg1bHZW/lemXX8obl8EbjUWtZssoFxgFy9VWUyQLElwyBeWqwdl+SKATI7idFZjRWaHAh/yLJqU1I2Rne3E1MVtWkrGXThbGkvqPGZPM2KVmSdaliAsI3iidZl0XDHcbkuqB3w0mnCyGbeEb4EYqvJAxbZEGXdM0jUB/VrHULUtiTwHz79aAsQZGHm2FXP7xi2wTVFgTJHQpkyd5XK0jzscUYAaPJrQz/gTQAk0ybzbwKpmGxGo6ZSZtIYm4TY3OTXh57DLHDJpa/epM0yAVsV1wFT9FMa0hYrMWiwGPCjGd8nS+FnTLWmdJGWARZkck6X+TOqvk8S7J/upTiT8HDYx7dFkOKcrT75xQXs35tZuksVo3JrfhMqocYPqFgiwgMa5nib9pj5Hj7VG8CobN/+7QIkCl6mqQd1vAWIgbzOqmS1wUZXBdWjcb7oFgl56esveqsocBSjK2oos7gM3OzbBN/kTeMpGsED+lZgF0fRokBLIB7TFhe47mN1W0DP2jFU4S5dBaRJabgGCIG6B0Ip8FyjySnSnt0DI+jSmxcoj+hotoWHfAlEJMLw7j4hveqagvk2EKOoFdlobjFq6LXoIFoLCsiy81A6eoCeI9jauwWfNCSzEjvpZEsQI9gCWT4v2IoDDGrJ0L0zmfz25PxShdOHc8XCARltKhGLMmDZlyrDD7GnYZhfWaO6U7DoCbGI83eppNjmhLZQvv3FxWVPdHLx6ckgpOC+hZREBOkvrwNOO5br1g9nQeqKZxvyS1IovA4nqisq4Vs7zLektuLBGC2PaA6F9+5WUS5hbyWILU7ltXJy3daGq0GFvhZl+hUjCAa4M6orIfy6mHTid85UMQ3lHibxBsBOV8a/OTiBMjhTS9H4gyLwIREw7I2yV8KGmG4NDvNMJk2pdcsb+WYlDY0jNK/NQ1iEpr8zTErv0eGSeodcPDOR4NPrpePMrRZNVbswbkciacwJ+loQUHScySxd6Zaq7Lt0LT/PA+cYJc53neLljNWbW220kXtxpTkjlGv1Wrz+A5pO47wJsUKgFD2KbhywIRUwS9HnWBOeMd/n75FsNabXLCBURHibjLgRhx7XE8zAFAZGwbidxyQWYJUzoT17qze+j5WTAhMR6z1CVN78/dP1RMFkjkMYXzB1zP1jY7GLVJlNtKenB4OR7El3XbzzRkXOcR6PZidUc8z3pBwdmNWVxrphs9FHjAi3BgbtdIobOR0lt/0T43aqnPlv4SktmIVhCu7nqoe+cUh9LMqwe1tAr2aFBmtzzZRJyc6P6sjglzFUeqMglZccHivxWoEQByuEuoaEy9oX9s2ojIr9SABI9pLHvdjr2vlyQaFJVdwGyzBJMGo//nEl2uqBt7kWewLNnrcRA7FIJLVpmMbxxWcIk4wbpLRDUjAsQKY5MSvZXolSgXlFD0rpsUiqqzARUJQXFnbwuIE8g99wFchQgWEoW0IhxD1JWzceTO7LFhh8rzGakrFI8ucOPRhUByn+aoN4LH40Ws2LeG8D8YbGJL98QGrGJj59gQsBn19lR2t9AFYcd9cQiecHWlybDOR9S8XfJxniBCo9LlzHdxgmiJk3eVrkML4x9VrnsWEVr1NsaoqPLWqMJZbJxKrCVg6rE+lg5qEoEjZQIvbRLcVapUgxtXBOS8ou6N+UaqjxMRID4D+//+YoKaMRjdJ62EPMM/FkfVujXNBrX+CJV77iRpumICUp9ONBZyICRcaNFr7JwzsojnvBKzGGgQ1IzMz14CTtwlQ5Uxt7oGzgyO6LftkDkyByY6e4j3unMIKo+Y9PfFqDesS4JnDywIr0FTNaAiTqZWZS5k6ULpGOfX2RBnrEomDnw69IVniem97vgujI3SHcBO+fJzMBSkc7cUb0FIhXvwivaJcryJzBCI1LxModBE6zmhaDVpCUvM1bz6c543QeeVHC409RGtaLfelECZcnGMb9kEfK6PDDVUlZ0HTITIW6BuA/cKlxmZJVyRca0CqEIkhmV+4yLexG4DNxNoluRBETqlJk5+H0fVhRAhmMp/2aeib0PX1xDu3XYFXkl0t5VYtHMSbW6YsCRuYRtkg31+Jc8MotwiMyEY11m5TinOGk+E5PF1dxusYtvC1C+tQvLWuZwoLfo6GYOwHuTna68hiYmi737LrwNnukg+yDwUT8aDBpZcrzJq+wmqrJhMsd3Wi8Qb1ySJ2DZscacwOVOb4EiSgDz3lm0hvEs5hVD/MyTwx22KIcPWf9zdKUzB69OxiIX6MLesmTRpDWcZUTUPboOevg6T1W1WKXJlwkqMu8ncy+sR89igTAWFb7V/ZWwDmRiUIwnCqkyNryiZrFVJVc0iqZ3mmkKTfiSXN1zQ090Ehke9LS+vJzWC09P3GnmQNNBTfmSzMkRrJC5D9hhweGz2i0hNcQ+UGa9nQ4fKeOmvrexmpHCkRsUyv5I7v7izTSTRTc8fA88+0UAu5gs5pdyx2R/k3JCvjRWmYSWnfsRJBWfL51YUuZ0gUv6dEYBqry2HOvTuWO/mo6tzx0Pn3VRZNzw6TloMeyIxZmRsDg3JjcVYMElQnEkmnxWOho1SV6jM89nOpwlUvdFuvo8aOLgdYhHdmEO0juNsaj0PrpR5MBPNR/yQAtxdDae9qwRygVkK8Nqc0XDXlNswvCgCT6rsx+JBUKC1hxxApmnqtYiauYCRW4SgBuGNFVmC2Ym9zApc3qFjgf56U7TWWpCgXZZQ+uxr9wPHxlFzToYA22kYJEZ1u7xtNg4jKeTjEniO92FBcVVJYWW0id10Xw9iUfWEaTSk/jeXOFoqgQGBhxN4BeZh5m3dXglSoR4k548gZqSvGBRRICckyF5jcF+q8B43bCTgBS0M4/ObOUQsSOT6IoY8nyp+J3ih8tArGiBCo+QEBrbzAPinJ3F5AmUhcuxvHZRAodYlEcXmDDg584xkPAgugCX/WNIw85J0ywck1e1FhEhFxeuCdldvrSUdvEEeCBm6xI0daYc6OJKM52wC/QogDiBHvtzMg+gbj0yzOSJvkaT6VN5YcTupJ4yCpA8Mm+ozlEAuSJMtDdPJzyExzzZ7xCxX8prSQQuOOMZMYn5MhtK78PC4PVB+rwIkOugHXGXjas9InPy4gqHwIZ90fSEFqGel9ruw1jzIoCjbSw2cT/txG8FxLAjoZiJo9vZu5fBM5lb3Z2mT3KViIpXVcmp+CqjcS+Bn6O7xRNAXqpxWANyawmqJV8omqRbJTfG/qhXyUbREbRyljB9apK755HA2p1w0xpDbtxA1KMJuihfOJ2EBvpSLTMtN2dWZCt6xhNzzI5cCJwGnEdMMevN7aEtx6PKtHFNQPrMG9+aOAE3xyfOVuS4uAm7B6aJmszF5bnYTdrUcsKEyXYmh1SkkAYpCwChMXVNlhQlD4dsKWKqCw8lPBwibtBtwnu/Bag5rAm96RbALv0VkeclIxDEdNrwBY+8YnbCBVhZxPnehe++MNGUzCMRZrz8l5nMNqL+Kpn1l8wzLhf9NQQdyRMxTbhuXMPQZ70L7P/x59//9Q9/+49//uO//dtf/vrLz//60+u///PPv/z0L7/8/O9/+qdv/9df/vD7P/+0/+t/Aw==);lineShape=1;strokeColor=#FFFFFF;" vertex="1" parent="1">
          <mxGeometry x="714.367411966114" y="-701.3277989172259" width="107.92622025580972" height="114.26467618559771" as="geometry" />
        </mxCell>
        <mxCell id="xg1OOrG9r_t1N4pU3jfp-24" value="" style="shape=stencil(7Z3Z0hxFkoWfRrdlGbvHdc/Me2CGaMmaQZigZ3n7CW+o5feT9YVkxhg0XXdIlCszY/H1+PF35S8/ffjmx/fv8vHTz58//e39f3/89ucP78q/vcv54w8f3n/++PP6r3fl39+Vv3z36fP7v37+9Pcfvv3lzz9+47/0//rPT//l/8L//CLXLqW6UD7+95e/mMcllX/8zX/88vvvP/7w8PuUL7W9EbB58T8+E8j5MtNbAbv047lAqRcrUSCn5wJ1XIpFgWM8F2jjMrsIwEf3dsnho8fFJgjYpZQoMOgJ83LIE4ahwJAnTNiHccgr2SU1FLAcBWoHgXRJsqxGr5Ti4fOzBDvtAnL4Oj8hvT0a63gfvErWokCBnfZlHVGg09GY1319EJh8NNLbCzTT5aCjYdc3fhCgO91a/Ia1rBVWqa5PlMNH+7DUzBEEGiqBlOI+WLl0uNP1UoMOWIoKHpCvx+D2+4RfkETHpKsiPP29Xp50yfA+x/Vtb79f/wJs8tLSOf6+wdVZx17+/QTfe0R9NNa5xd9ni7//9XI/+X2Xf/+gAxF1yzB8n3QZI/6+0QmNZm39ns5POXkf0hMlnmf/9+E8rwtwhAeMywEPWCsa7OzolwknqKwDWUUAXqnMaEFcANao1qh9l0CHV1oCU55AZrMuLSLfQNem9ksecVnpHiyBoK6XQIWDvbyRVKMAWUF3X95e5XU0Mn30kH1YHhUYZn8lvWy8SnZEATL9S6CIALkvvnFBnx7ogvnREIHEZymLhsy0cSnaqPUNRgJnOo9s1LpA8bSuZQWlvQSClveNoycspShqBl9paUXRk3T4XEDuA+20v5IIFLCc/tFB8y01wwLjiAJky9fGFXlCIeciRRdsCWBIkq6K8UEg0QXKV6fx8Qn0DVNuXEcD2uqlyRMKvFKb0SVxCwT70Czead84+Ib1hK5PIM/2uLqlX3iW+to4eQLGYUleyVDNdN1pux7HpwLhxk28cUvAUhQYcFqXQA3O9tJUsNNdgh7bxDBHvA/Lu6Wwau108DXcHeazVOQJeFpHvNMuQAZlKbIWBVDdixJwAfjo0q9R14MA+UulRX9p80qlRgvkUQysUimXOr9mWUu+vsDD0ZgsEAOl4xqaPROI/tLcPSGJnUYrmmPWYF1Ryt4sgWiyNsFAOVGVk56wPOMZBcgzXkfjUDeUBLp4MwNXaflLTQIO8vk8ayDKmHzvPmIMOm63/Dy3Uq92/1G3gubzfRWPLFH2ZorJutnVUwGTOH0JNBJIMdHgXiULNI3UYVldR4hAh2V1LaTaG5bVnyCKjIJp/9+iW+lOm9hpy5g+8GyHCJDmG5J2WwJ0WtdZmjMK0J2+OwoPKSvyyLrFG2eV09Ci+dYTyDNuXXa64NFoWTKB+fqS5wJ6WvNVLZwLHDFCsYRZhyWQRhSgw1en3Id1vEnzzZiL8ltO4cA6S2qy+KNjMmditmgJRGfdMEm89iH4S+Pm3zzbaU1gZbgPrYgrbZxVrlel8ihAqyRJYn8lUAJdcu8e+NEF6jEzPjrfuCFRVrtMeiUT+7ARuCVWHl+JCw5VcmRYoUixeDU6WqAlYJIjozs9sjxhoKM7RM1ssrP+BPH56PCNFP1WNwBcWspBVR4YgHvhRxxdPHwST9stZfvsLMWK3S0pfC5QRFUeuA/rikYlMFHN1H7NJj16ZCSQrlWJLwzA3dHV+0CFnBkt0HIbsRaVxecrmNdITW5cQld6ipbhomOJyr6zZs2x9LvUFF3ofDlq/D0FfWvPwu87hqHr6sz4+0y1jRi19obBz83eP/w+wfrnGGf0W+7rye/DgVi/TxR2X1pY/4LrX+MJ7QXfp538+6Qde/Qj/ffk2sr+lsuA90lnL0Q3xqulQ96ITmiP5bfOrvCKuEOezjEarFeCK7wEMAnQY1LMTzWloW8l8AcBVHUWte+6l5leya6VpwcBsiAuEL6BvcIlkMOyTgw+y5C7M68O/rNlncEwc1nGExkpClAMU2pE9ziog55QYng7GJHh+SF5JaOUVZLCz3H9m6cCYkJIxZRD6jgHxsNuNuWjC+x0thgldc7TZUFZuQcEH+16KVwgw41bAgE/5IaTFP2Q+zDwPuQRYRzrTtPRyHpFOy/rPDGGFDAUqTq69aT7kKI7sgRoH9bxjvahIRyozOizucMA+1BLTOy5B8N1/ujCsIu0BEK5uN8qnc8826GaDz7ai+pyvAdX4WMa+tghCSJAI+2wCjHoSZgvXQIRoJGxnraWNbh6SwDBDVW+oXAhtIj/XzATWAUp5gL0hJtifBDIdLw1u5/RE8gWFdlIWF9eHmWIMDpHq8tFzGKBCP61fNBDDAp+Q4nQg85oiJxFGU/M7uckutWw6uhxwIgCFFctgR58voFnaQlM0d4UmWRVlZy9WctaRHtjbFLj4XNHlz66nWhvDKB7zMgu35sskBv2Jk8gny+LJ9Dw8NUSi7m+rJSGFliXu9KUjLGY43L7QPkhAV11TuFavuITH7MAVJYpseDgVxS+waqUKQ8sU1q7prUfnUQq/GgRkev8SyACNG5ghGcCXZ5ArsOJQEbd6q9UowD5GtZPLBCd1rWsMcdVENy8Ni5oviVg9A01uj/j9jfPzlK0DxVTJiZle38CdQdUyQRukhRDShqZYSyHpKETxtPNJJWeGLA0on24w/+fqZn4SsdV2z7VS3JFKbXUWqxg94kWaAmESNH9VqqntaiX+i2yeyYQtTc3jjRRAmvvCRLVRgSbdy44NA3LBt6HZrJKHW+cQtNcgI73EZVAZ3B0n7JK/VpWPL9xU3IzAwMOk/rB2jgqF88qwSsDWqcE4G7jSMAE0Mo2bpqoygMziXOKIuM7PQUY4KUgWNYlEO104laEQ5ovPIDgj4iQP0Y3LIFYoiiIpJyKlCkYjE7JDC4BClHW2YiuQEHLPrsYCEY3zHY9/o8CZHdN3JmMie8hTXbuztAdPSJMy5NkpAUEm+Z3lHGOUVcaAsHUBHldkZRrk6jJ2PlusdDviomeUCVpPDBUbNLdtVPfZwJUsmvizvTG+6AZqcaAiybRa0Ml4BsXnsBxWRN83RIgD8vNaBIBWiWTEgc/oetZ4mTlOGLXRmdo/iiycZ1hWlWKWYObTttJbEk7vQRi5WhgJ9Yd6v94p+mju2QRuHvOBVIUIMfVi+5idzEe0CCIM1JD2rwHdzx6QBKekLiBWRFLifGmWfqkGEOuoBH/mw0ASXQrIjTmWe2b1P0Ra1PrnyB8Xc3R7C5dSKtUekT7VMMY3+sJQaAg1GwJhBvnXUcMnA/f4Mh4SjCl2GhYEsZlVTyybLtQMZjd3LFG2FOEOOWKWqMLdYOX3cnXaLEnNg0GqNaIpEwVk/e9REWWEqYd1kcHDLld7+zT6/B2kRpirpo0YxasxjWpoHB5o0mjZMZitppo7tdoI0Zkm05+i2n+g7MHFlERByq8tf7Ww+9pv/oRw4yDT5xA0w+M65f7bPF7Uf+WGDJw/qaLH8ndL/dU+32/qIdivU/IrTB2zXE3b8//RFekS1ovFUzg9hzDvKUjKETyJwS1dTBxSY5opcxOZ8/xDOW5g0GGjy4Z45EuMMgysODtNvjtsVtWFAXUZnLCqt+adW6KbtOSZ7Fk0go7O0dULZ6343aFoOv8dnOXYAxgOHpu0kt51zfnVnnE+nVj1ollxmMQljBauK/6Q8RD+9AEG7S2EtOrOfaD+laSDdRqmnEHRY4F786sOUvgpFhMr5QEJn9wxveQ3jFuQaqS/Bzs7FTN9XANvvZo2kZCL7Vq+intKAwiq8KBR2MJaBCGXqq0d27CvOUHV0lKUGJlPSFWDzKnPaR3zC0Gl3IjRquw5hOo/3oCRc9dw+2CiXSHA0q+iizQip4jGi9xoVXLbx3ztyZgU29lpOzqEZN0TmBEGWJBFN77Bp8JBDt9/6pnApHSI3OG+IhX1ArW4P0bpGGOjvc8Yo7BKioBE04cYw/OTF6pYiDpOy1dgthL2aNe2gm06ERb5Qp5i/bBGGC//ndkJOD43JN02nbO7o82myEzRI6Hb3S8ol1bXxqrmdPeMW42i4iRvntC5J7YepUx5za4Z2lIVm9Dh9GF3cIwAnVlLJ1dhKDStMeml3I5bBF3ObGn1eMH0a10vN2iKV0Sk4ZEApq563QMKbRhXAAxATlWzpT0E7wfpkqaCHD3QhNcvl8pEmhS6urM69li0OTAZX7CFO8eXWlhA/PWIoaYxF6tyhkioUvyThjahylINkbu9CPmPnvdUtzkKEDch+s+KKKQsKNdELb3W/5MIAJA2q6XMgZ+E6v8Q5q2vGDBFAaxEz7hfViGPfjexmDTKQx/G/bTKaSG88B05hIIEcpMeFqnxKJLgAI/F3i7cetvCK40hRjL/4bcUCkeTE553d/4QYBcB6dfFQHC+61VD2WiJUBQH5MOUheg+EFY2VyAoBCCoFoCVK5bAkmWFdGpPfYL+emiG6eETAPj6XGI38qntWeBpFTUGk3wrxs4R6si0LBydQ+GvzAA9+SQwDkyHO8hUNBN39ZoQnZ3YNVnCZzgkDf1bu1uY4EI1ExoH+60oQ8CFNL4EwQljJwHXbzKDZaoSX6pYFJttJimGLfG42cmK3LYstYYRZaVAVRDOs9dgFkVFGa24Z6INfuCfVvL6YxMWgcn+8WK9o69mE0hWpw58Z6nkMYeTEBzRCvqvjL1z+WoWxvf6WrSocck/B4OfBUfchd/yQYmaIda0cz41xrV/WyYm7nzW94EOrOM9MjrM5lN2PktwxMGMh8Mqf9O5n270xnfBAzDAU89igCy9gtL4TQs4DnSJ3z0xKyDG9kjCiDiStjx5uSdLhH5PzfefY5QiCVAmfUhLIVrlXDcQop9KkuA1EyX9p/JnWFNML+TKfL7EfXSEsDA74i5GfcqObSM5WnGErUZgTuzMuDCYu+ZKwEqJ1hUZJMnDyxdHczuEthgQOIqNXYSxbDPxliiKiFNw51u0k86Gxa/WhbNV5lZLsfarjcPMFFcVJXsOjjB8dtVWlERwf2UtNyY4aOKv2QFfT43u1pDofKaxKLGJfMloGMdsMyZxUnkzmGH+wn9MC5rEX7WDdt8OWFERjCetsMNhiy2kzS20Udr3xajWupZZp3U/XKw4itxorwqF7wx0+IhJGtsdlUvrdOK2jvJaa14vDVRbgxpV6CNj4GhV5IWV+v8hBbVvW36ts5GO2HuXrodjKkoeo2lWmPONPcEwsaxN6OoMOO+rTvo5UEAcW1nY5GoStOmpO24M6xJgna9EqnKZadVAMs6WVjON2WdKoa9ot/aBQM/mTLKEbkScGCJsEULNDcFvBYB597IxR/dJX5AlJek4icXjvqZ702Bn3Lyewseu6GBfuyhBe/ZcU0SQFDk50DbGgU2buUhT8A+XRmpMo1RW+1q0h7OBmLbBPk/GShQJfKzDT6vCtkv26wqHagb5Vqlb2upbzIQ6xsiC+dm9odgeZbNQg/LZJRfYx9OSMiXAB4Ngdv5E9hbD3rGXWOKy4QSba0SlQe04c6YY7KdWUVSTE3n+UwGJRaB5kxsqGjCk+n4IXbJqhg5dO8tQtUmU8DWIZEfk8zWFn2HjaGuNQI27pCmp1c0+A7GQZA03NnAs7S+IZLBM62z01jJ8d4sa3ylhtnNOoV5fd+GJVoD8xQ51kRs09pSorNh7Gx8tUCX0QWb4u7L/3n5P/9M/k+VKjvTUq0blMM3HFiGbNIJbNz+/Iqov8Tpe0XUN4FNRG3xlX7TiPpkvMjkC6TDwzeVUWELtk3W+E+SohV06CtF+2dM0UrDmyV2K6tMTN9MABIOWdtM9ZK5knPTIvuqKv4q8PtXFUXgVVU8SZ2Eb8gsUCOjk7Hf6r1kEoFjXlrGADjCFY6GYxFSXCUEhr2AML8KvIAwepa+HgjT4ir9pkCYIUyKc8PlK6Qds3I6dIpXyU1KJ9PVJmZCao6x6IbGs3QRYLNbWozxfZgT7EOZMeBomSdMS0vdnSTtmckKqZO2beWKvfLMUvuCJl/v4AuafKLI/mjQ5Cl02wWNomNo9SzBTvcjOuudRyx2UTODZ5SOJm1QE7WG6YRp7v16NSld/dZXk1IU+J2alOgbZBbgTNgAatLgc1+GZzcu5ip5p+90rg+JEIxQkqjKzDzpLXrGr1bf0xD/T9HqKx7ZP1urr1L58piYLuXjsWF5e1FB/EPgRQVxdh/+gFQQkaR2w0imTiJT1NyV+4NXuUsihJ1unDmxmKYYA8NjqzImZmIM9OJHugq8+JHU5/uj8SOZJMptmxMIvrdrDbKiki5aSmBTY49zlriQ2mQExWYstXsCMmyNAvA2ha5+ohX1coKwhCBedURlvJkPup4Qh7jw0XjxSV4FfnM+SU21/AvwSQrl/m/LJ5kl4OCSeRUCcA/8iOp9SoSSMTHow2kDZfjESLEe0avcEONWoeRoPLy8NaGtbRyhpHiW7sNBniYGw0cn/IYm96Fu1MyIwWstmHpsLUYohXOVXs8IUwAKK7ISBfLkoS85xtMbKur1hIB6zJkBHiXa6TR5+E6J0IXU0IVrAuVJGfNLTQaKTj6sLwr9F4X+Wy/sj0WhPyIer/C/LzCwvptIFJPQ6NYOmXaSOAi7l85uAjw5cEgKLfMg8fsU8JtAuQILnq1RcAlz46yeNHplRmc44Pztqcs8pqblGMCUhKtUpbegcGxbpWWjNOxuKyOaj8KwyzIiq23lOYD1iEnr2ncz5kNiZa0bFciVi6INtJldrHLnb/iDDuiqUeA1oEv34V9wQFeJWqPv+1pe8xhf8xi/yFP9/ecxFhFoXI1OMR7xnBvlPtPZ8GfOEMcqKI/Eew0dvjl1cKdfQ4dvAmSz/v+HDjuYSKBvlAf0liiL+0C6cpig8RLeUfdF5Hyj820RVuypSc4ORfgeX4im7T8cVqoZ3eQyvRdTXDIM7JuMftp0rDaZjWOcQ2snmXdymDwRqcr167yTwc6GQK464wjcBImBQFdgxm7mvuknFTx45/hYMxq+SsypHAWMqUh1pyeOQDUhd9yYIJM2XQcuE1auCdj0QO1twm09EiahTQ6fD0PfgOsU6UxlUBXIWGPxVxJoNFZme+xCd2VMhVaNmhhGadopyWmHJRAc11HxxpkQeg9GzZ8Ml2LYmCUJs3gE11BlzF1Vjj4SAWx8bPINHCp6B0bYaeaFLllsHCd+c5N94IA617MyKOxDLiczWSgNl3N0jX2IC71SEnVvuNNLIEZNDK7z7LzUrwnvtwRCc07nsRjro5sIEGwsy3zQzky7WUomvSEIfh2N+EoN0z+5n8AoKbbMI3qVveGdLkm+oePGlSZP6GhFaxGBgcq4asi+IftqMofPEADi2dLw0RNrjp4/FWjDJuEaEYWci6/SkO1JMnolqafd0/nPBJLoVgKQr2XNMwqQR1arfEPBLPM6Gmp2cU5rEvRRQWxQPWTeVcErWgR8PTLu9LpAEeR4YL9QEYDgxiPLMtx8CVCpNVvsXtiM9nCtIcebTusSaGIf0AJJcqYbZh2WQBz3ycn7rBEKQ66yRSexd17WKRnahsp47bQKUE1xnaXQOuPdC/QEtXENB06XJjAZJsMuPd64ztxdRSaQ9o4AwSJ97psukqIbN9CrdAHJxdNZKpJfcvtAbbpDMuUTuSuKENiMA+EN5ayug2dJem1cL9ETBEY5DrxARSCI4+DCaJKO1QNbvvMQwz7ZlRbSEa+6wH1IZ74GRlknOQRqhBHczsaXkXZVd5ZIT8r7M1g2nTjFdCpS9AH8+oOXkc5UHtycJIakYdAqfFobnGyWi1kxHSigi87dvzLephfG7Z78+0S50SOXhP+eCjOyvwX7G1KOyfrONLZJsspuZzkejltgGHwW8Qo3tVaHcn6VqqtSgdtUKJQSeVT0bPsh/dHMIXjeCkbQGouB205gSiKD42GPWEoUQMRSEp6rvmudV3IvbFfI8oSxa/8PdBjO1cVQAm02I4U9ZMz8hsZNsQd28KS+I+YljMl+faePKLCZghrpwxJCCdzL7FEAKxSCtrQNPFM2zjKTrOmcVW59cSreFl8Jq11HhDhZQt1dp0yeSUxrOGPgtjaO8ER1RljKOnzEurO+IapKbo1cAlHz2a6TJXLisLN9R6I9CGRSxgoPYp/KYfeiBDaY9FgDMQYfCxBsMFihq16aXO2yE71Ep9Xho7LTSMikVfiJaNAh/PRjIhDfDjFZE/ETJkzTY6JBORm2fGDgtgTiFeWwygRGbdxRZEko81lrWJJ5t4n7EIWAxjJm0UycE8tYkB4CS/GOU/JCTWhvM4M7LSYnbUNAU4UXPSPkr2t7J1cddZC9C5D2ricbR6tUhFnOGLtcpEHIEsf0NYZjG7NblKYnYTxZcnR/jHH8RaqOxtRbRUYsDs5mFu0i536fIpNcB3O7e+ZDumapCl8Emj+Yg7xUSdYzD+I6GhEdxOzaJwklRnjXJDDewSUNO3HWET5qYlA6ezOCGRkD47gVlkWswmASHSX3GtzuLKT8OzoM4fp1UoNNI4+4DohdTgLgm4x7SdJ2fjAtupCWuxWlRpIjEvYZg0zalMb2xJTiFt3QjSJrQwiZGEPeVFUyNE2nvBgDVGsSN5Tr/PWQih3T0xelst6oyimY2Ynf4PU00a34SjLwbRge7yL0YYORxSclPlYCRaZguF5igVBfdrJGON7eWyxPwC7yJIyXHZthqqqZzrVZ4a67d7s8c3+iyWKAho8YkvwS6dba5LQy/XDtsQNojF1RXY/GpmwfnZPBNfIhjAR8vF1AYlEk8R+C0ppoFHVA7pjYWlllBMs9QHi6ceLzbSgMIsUNx3FVp4Bt6mkCzbcDU15FGAk22vveT/yFr5QkG7oxKF2ScAxly9Hj82AAfp9kiRLWuqQj1hLW+CUdYNxIdpxM2KBcrnQ62IG3/4igaD/W+PsQXHn+A/briNm9wc1/6SQxhr0dQoZlmGkQhtVdFHPyPpQ7LALW4e7ILsDJie+fivApHRg/5y5TkTICumuKgG6nqWIkfqi/+RhJ+AZPvcsUPAwwpoyRZHfHkQjyBEwECkmIcfuBtsLbhlJfTrYZWs07d/ZNYMOQn2JIb8xFNFL0XpzTjFdJBzVhdUymr81NkCRZt8mADAepBKrexOGwCVUvk2D0JlNguKJxMg/uwCqljmDcfEPR+SYJvfmlliK3b8L7kIoQS7PWEBrQyTX7JrTShXmzTtiMkUwpNtnOstHzJv8+3f8ip4hxolLfd65vggHJeIzM2HJZz8T4gehX+C1AuxbXk5nJq1Bus98iHJXOwU2Fyagc1++xHrb9/fqPH7/5+cMvf/ju4/ff//Tz509/e//4/7/79Pn9Xz9/+vsP397+6qcP3/z4fv3p/wA=);lineShape=1;strokeColor=#FFFFFF;" vertex="1" parent="1">
          <mxGeometry x="908.6599265239909" y="-808.6039044213064" width="44.8185909526459" height="79.24826600435513" as="geometry" />
        </mxCell>
        <mxCell id="xg1OOrG9r_t1N4pU3jfp-26" value="" style="shape=stencil(7Z3bshy3DUW/Rq9dzTv57CT/oSrLlsqOpJLlXP4+oOWe6d6YWW0niqVUusoPOseNwxsIbGyA5Iv0zU+vX75/9SKuP3388O6HV39/8+3H1y/Sn17E+Obt61cf3ny0f71If36Rvvnu3YdX33949/Pbbz/9/P7l/HL+66/v/jb/wj8+ydV1GXlKxfWfn34TwjJ/tP/+8kngxzdvdwJtXdZ+FGjLGM8F+rr0dhCIdckkkJZaDwJpXQJ0qeelpaNAWBoJlCUdu5TSUgIKFGmhLHlFgRiOAm2JHceQpYWxrDSGtMSjQF6XkkEgLHUcBWyWQKCNpYtAXEoBAVOEpAK//uaxQFHlM4FeQSBvc7ITSNRCXKIbdALlM/XuRad1hYUrtnDHMZjyBZhW+3vhqBrRVgZWemr/etxxeUmgrbFsHbgJ2G8aCCTdQNYCjSHGpYqALRx1KaguTTMD02oC5WgEBk7SnMPj9w1Vz0YQjh2qS6K/n3QR8mbWHn9vS3TUI7Nq9H1xVnJpoKc2PJmfyPM5lpTle1IJU+J1yPcZdmay7orBWwLYCtuG/dh/U4gOC1DSpmC3DkWc0VqXIW7ErAfZOzPyYitWNsFBt75ZoxW61G2Sjr4z2yyBlnY36Gzmhlqw/y0t1GUlz5Y3H3ATaEuFhTOBIi0MtEYmsB7HUMzGkitMy3rcOsV0mwYddFpNWTJ1aV2itJAZ9PSlNBWo5Kjqpsw7gQZdMuUTr2ACiVpIm7ffDbqCLtXm1DsvA9ahBl0HwzC0gYohFsEwGbtUumshbojgsUBzOCywdzaBo9k2Q0h2yQTGsUuRgZuNQQyZmfICC2eIOxy11XzFCqbe1qEfB22Wb5DlSxv63QlE6lJR/28CK8Bb0yWxGrMFEhibUdkJdMKSwfmrtAzaos4B2TokwsN1c2g7TE9mZtgsCTRkHzrqUoMKVOjS6Es4dsm2aICFG2PTzZtAwWDMBIbAmI4+Lqzrpgk7800+y5oQZFJYN2zU1Zm+ALZyNA2uii0NTVPR4Mq2+UpjSEvqKkCByQi6qc0uRHJBXdHJNIasrhKYWJcSR5TaQt3c3jMnJ5DYPHujTW1DlNBnYERZ4zbEXdxNgMlMX3axUgD9LmGL43fsBO1RU+YmgUnFyN7mJB+hgMVKEbpkG0yssSFdcnImIAhrIF9iPVo19EGfuGp4mNEUl+CMPVpiwyE6pUum76tavXXbrs88blvle3RWQY3kikZ1us8i3w/YyuY9FTKgjk7nKewT6kMzxC0KVM6ImySgp6CKNgdJcuElKOoULJ4jSJI949Y20P44nrzxa3tTAascb5zIbdBsUG1VBaLHisYo9M3J7IAbufNpehwOo6A+3Jz3TWBF1sMEJAK1ThLSMwHBw/abTmOom/m8CaTtTzwbtJhsM3fkp8INkO+YHqaShNLrqNyTeDl+37YY+fH3VYnVhm7TmhdzYQE0TNCkB6P0v8Aa59VRZxk3p/kD8R9Ti6BHFrfJjFqXiP6rDovY5iQtsui2i71YUYtaV4iXefubzWsOOndi6FdHrdRtop+xDGJVbaIJWphAFOQcUPOsS2Lopysl0sAZ+gmEQZdac1C7IdqZnJigzo42r7m0hGlXglmahPuqAhg/d4fNB/vbqnhnYnMiPrID86wa2fEYJbJ3q44I7GhksqOH8gkQdhxAZvRfbn5g16VEVqO5WVpRvSe1knWWCFjNiEhYtxNY4kjx2Sa1UDUwrCuGbZPFO7ZgMU2gQd8i/psA72mbRLEapo60p3NTbtIAKVLveYPvuxYG7LiZY+sqQIPOq7o4myXyD+mGWm4CAQN0c1BKvTcEPvGW1d7FqoiUkksfRHaKGyuyg5OULc0KcOMtjng8ApfwyZjJDBpVnWRwVgcCVqTDHC8UGvZ/VV9lyBOxrZoXWxHa/FHp7RAwp+/ytgM3Qd06e0dtlP8bmqjumF4MQfM2J9+nLYWy6w4pQ1WOYCD3P0Nkgf1ji1qfbUjJ8sSB7iN56jKh+5i0iEt4kBs3Z5EETg3GwVWJC7NCBM2Lo8Hv1PszjyZZ5HpbmGctSHbB4M+JC5QcjAEsylTZLGniPGICcCZipYWMhsJQr3D/hiqJEDJcLbxiqxjKG7RpTiAQiZfVGN2Tv89coHJsGattpguUQSdMxKZVgbNBkUpbuiulMueN+AvP8mTODWsJwx0IPDGRQ/7+evK9eCiDAZRZKFpelJj2r8oIJU4Lt236bt8H5vA18I8DmQhbgCo1Hg0HEKKO2MZE9sVcqiC1yWaQQFNyYQoQm+Lc+Fx2aGGiDkcuULpzst2ybBWBTvJ6WnCds08HBUx0FAcep11m1J+PAvWkiiyp2TbETARJSepvK2fzrUtJPEnDabVBC6CtN2LpmdkW5WuBiaqm02qup5OAi75aQhs5E7ROgGbJUIkEUy2h+0xNZ2kmokkgK8c7U90waDNaGhsNBPIxqoOuBcHkrIuS+C4iK5RumrMDGURsm4AwW7OSE0DGrJaVaa240qlq+NKYFUqu8KkHtBoW/lWB3Anz2tOjHwd9r856vHBulnrBTFXMSvLc646fRcGifNYlDMKGWm8bNGE3cyhiZu51x89cltSe2MIRsgpZ03+tcd7GZYbaLfZ7GozJjrvlBJ45dplWiwMKdclRw5Vr4gwJyBa1UIKq7maW5tgli26w0KNoSW/hGmDDn9qlyCGiZ3q5ymhmbiTiCzhL0dF5hQ3ZDNOFD0+ofMkjgbIFK8+sxvhdZRveGFvUSqUn2eXDKhPoeah6237ABPeqbHWrmKIrLhlTM0IHfxCgdMwadOfYDc1gLJO20H/nssh6T1stARyDk2lJxcwUNAKzMFawRuc616g14n1FrNGD6lLn0g3rQPP+gfJDVcNc80CYskoaP/SKftqWSaB054pmUwQhNKYXpTC0qDHutwqQxwJJlc8mmnKNNSh0MB9HHqitjg7MmFBqrrjXVIPYWBMQ9Z6Dpi65YsZZQEm6VFyeu+MGakn3w1hZYFWwPiI6RV95MxKmcM1sCZS+VwY+W2mJ2MdJjmso0B2sS/dU5G6WiOuatTqy0u2sfkv89Dwvx7lG4es6U4jZYQ3TLgrAs6s3mgX2nLJSH1dwx02qyvF1VHWXnKlsAU8pWkgj1ntSuRxaCm9qlopOvKSuie7KymfRrjDk5uqpZnomnQXCdRx0Thopmv7SsYbsEhWFrXf2hbQnhw6ClkDfk7qPBVyUVU4q/IOqd2WGvDqnODEfn20SUznP8XKprsRxk1868UBuDJU8UFDbataWAJbBKfFAhlvRZUXNmDYOONqjxANWHTkOvvHZ5lkBfRQwt4sFzUWR8QyPuWR6COaLiL0n0RhUAD1Q0x1nAoXry6ILB0j5kitovp/ueCxQNFNRxyk34/JqlHxPntxMmIhLq7MafOzNWtDAr+AGssBPUq4lopmZLJw7WEdmxqy3rPS9dPyp201OgBx7dyfxVq46Cg9qgihrX3xtFpcRzPhc1mFgxD7xkkvqEk0xKQPR1srcfXBkP9fIzSOZkt8MyOia2xVj3Lh4xZCAJnX5coDkq2RXPlCcFGDdDyQ+20ASA5140bQ63nvlDeR4vlLxJMQcg6eLCPPVBzVydCw9DV24PBiRJT32NgERqUZ7cH73rL7sdwkUz2CduKx/B/4I+3PBnwv+/DHwx2xEcV0iyiu74vfWz0JLLQU599NCPV7h8RUeb97AXXXwZcPj4rvUcFqrr8tLiARmQZoEHJwHuujTTwL/Bfo0q8BFn/6n9GlJLmFxEjR5+pRPIlVXR1a5enEii6AClEP5n8nHUXrt8+TjaFr/kHycs0tXPs67LNVWvumpuOPLNSAim+fwXE1iokG701SZa3+mRxM/zXcYmaqJXaqcpbFl8mA9ko+rerpwcJFKTap8u/tJntpKuUyhM7sZ1M4MLqGNQ49ijJUFoqs845MtwR0tany29f+2gMnp91XA5DmvKLP0pQuY0q36aBeXNSLJrmrSDRH9P1aTkgu634yyW7gvXE2a9Sazk7L4kF0CIvDBnvbgJBDFA6Z8cvXJyeHwefzJn5jgwwNqZhpSuteJid+iGteJiW2WPu+JiabQofJJseDOcRbOTV1n766zdw/MdvcCX/bsXdWtllaMA5K7ey6vmDLK/pqRhg76S53i5ntJPscpbu7SFznFTS1cp7h/dW54itsVXtR6dvV+dwkddD3OUuaG1wcGd3/YvNb8uphk9/1XdzGJpDSui0n26i9M7PTspJ1NXZqBNywNdNDlRP+ze27DECuVc32pq7aoheuqrV8Erqu2HvJ5oksFq+QmNnclacgjNReMnNBzWY1G5Prg+0sHO1xLV4zPIUr8wvVf81ZCGQN36brhcsOh1w2XD3TpK7vhsrpUdzkhz7JTvs6opznlO6nId/VfZjWIbZsvf/iXuvgStM9xQzSYyuuG6A1kfu4bohWDIq/yFd4QLTUZXGXuamkME9Mam+OIbo0RWrnbZG1NiJ2/V1b+xiCvucqvE7rNTKK/IJ5g+iyUdHEtxcHX0xAvvoanIfQphutpiN33zqUVfIZxFtyIwmWMPLvLOkd+SrK5JPLMxlA92XDPYSX0aL3py4SJX7e6nmH6VeB6hskr09f3DFNflcqfZUlUCejGcPLs7vVO32bJrnf6vEP52t7pa02NQIp4RuZ6lnXDftezrB7/fIXPsko+7w7CnxkyfceVEVbO2qUUEXVf74f/spLX++FH8uyrej88RcXD7Dqzq9kYeKHaJDBc2pCwanMphsjJpJ5U49KKh0WnT3CgClvwj+4l5GBNQGFbQcbjXiB8E2jsE1xyOw1+Y92x7fPlMALoQcm8zDdZWACq9RERE8StKVV1grf97ZYmQGHMLGePKkAVjwaqohs01WDMnETRaUVCb2gSw1aaqKfq2LPYEQ2X4AB6wFyp+UnJ98YVz2/MeyuOgw4nl2sMBSShYSh2z5ftKEOKGWahtjCxGe3kzFmLb448S7da2Z3nJE8yo82j8oWT2rOsLQwkP+Y5HqXzkeltqkkDExKTGS46ADxKt+r+DAFx528QsH+8f/nx9acfvnvz448/ffzw7odX+///3bsPr77/8O7nt9/efvXT65fvX9lP/wI=);lineShape=1;strokeColor=#FFFFFF;" vertex="1" parent="1">
          <mxGeometry x="898.9967836630179" y="-771.3834056029631" width="48.17209817809771" height="50.73234770063732" as="geometry" />
        </mxCell>
        <mxCell id="xg1OOrG9r_t1N4pU3jfp-27" value="" style="shape=stencil(fVbLcsIwDPyaXDW25OeZtv/BDFAypdCh9PX3lScTg0TQzXG8tlZarT3Q6nO//tgO6D4v59Pb9mfcXPYDPQ2I43G/PY8XHg30PNBqdzpvX8+nr+Nm+v5Yt5Vt9H76bjv8TriSwPuGQvc3zfgCNM28TIDDeLwB1Ag+CwA5qBagQkYBCBFyMAHkBCB5wGgACGoUgByhGCGVAEgCUDJU9xiQPXh5Qk2A6TEgJnBVptU5cMYRwUGSMdVipgkTUJEAhGSw9gGKYo1mXjN4ySHZEXFWpTIiQTQCYgJKSQU8GQRozvkMaEdaKeq/exVojnER0AKQgJ7k5TJ3gl3bgNVgzAlUSgW0hIqacSui1QosAdlszCAYsruKrDNgIRon3Oi4l5k9BI0j0qyyTtrPHrLMOkORwit2nVu7y5CaJRjt2QxFNVs3nWVpR21iV1tbVpLTHJpxGiGx7aIi3a35EUDZZLHr4J32pMyJNkIK4JUP83qjG1g4qv8TZGP/OyFxlr3VzrM7dL8gyEbRElQpbaSZ0SODVC7vbRnxfqTtwrp3ON4qM4TgrAJECFJ19h0SM7ig1luGne7srl+My31W7m815Xc8uD41duPhML1Ubv/rpwlPTc8aev4H);lineShape=1;strokeColor=#FFFFFF;" vertex="1" parent="1">
          <mxGeometry x="932.9316966921439" y="-658.3207369824406" width="6.986210432460323" height="6.987525145727998" as="geometry" />
        </mxCell>
        <mxCell id="xg1OOrG9r_t1N4pU3jfp-31" value="" style="shape=stencil(rVbbbtswDP0avxISqetz2/1HgaaL0Swp0uz296PnyQ2t+KAD+ibLPBIvh4ca5O5t//i6G9i9Xc6nl93P8emyH+R+YB6P+915vOhqkIdB7p5P593X8+n78Wn+fn2cLKfVt9OP6YRfM84z+TSh2P3+t+NJ/N+dLzPgMB6vABxIqgU4crINkEqJDSATA/uoFzhjH6BDqZLP1iEq4PwSyNsA1H8H7CtxNPbcArppX4VyXieIwQU1rwPWCGoAgErBeiSJEgjZuyXEhohMGSS1FqoWkApFBEjElkeFSTIA6G8bhO4UEHXJFG3d1ElYaKZQLKDCoLPeECwgkhQAkHXlSmo7twELE5ZeEAqI3Jp1S6ZYyAGXekDwrZSbLnnLvtSO2AzaArxQqjitttIBNlBfN3URnK/ESDapvinCJvMsVXPTwA9S2+uNqD+75hFPEdTgRn+GDEVvkgBL1SRNl7dEhm33ZCUSylInYyqEBbg06eSqezJ0qRfiqzx8EqIfDlocRI5++qgGIHb34035lcEN/QDVzFUA6Ed0KdCl2ubrYp9hRycKq0qHxvib9oGcLbRSqQJ7boq12KskAQ1zTaWvuJ2BYPTDTQUG+NM3m8o8GCSdPzpuGfjfxcvaasD/Lp8qYA7oS1cvHykjPVrzQRkV0HPhf9+EHwDo4v0J+jweDvML9vr/+smqW/NzVx7+AA==);lineShape=1;strokeColor=#FFFFFF;" vertex="1" parent="1">
          <mxGeometry x="886.1660690600689" y="-712.3124510265724" width="31.48225692064861" height="9.96792128086855" as="geometry" />
        </mxCell>
        <mxCell id="xg1OOrG9r_t1N4pU3jfp-34" value="" style="shape=stencil(fVbZcsIwDPyavGpky+czpf/BDKFkSoEBev195WZwkEn0lsPraLWrjTtaXfebc99ZvN4up/f+e9je9h29dNYOx31/GW581dG6o9XudOnfLqfP43a8P2/KynL1cfoqO/yMuBTA+IKy+Ds+MQm8/X/yOgIOw/EBkD2YJABkALMCyBCtADgPKakAQgEIBsgrAIIcBSDyF+IyIDmwEpAiZFoGRAPWCUAO9y1mAZ5fS9IGERCXEQ4hSdY5QXTLABvAZwmwEBQSxgM2rC1YRbkILkgdEiTFGg68tJInCMr6AEE2lZJajyHwRgD4k05hXF5LBryFU77ABZCUjWs0isxMUFLmHigFlQZKytxjxdksEEnGk4jzo2Dbnk42mQewyRoG1YjzIkw+rjKz2RXSZVSkCtM4zbOuw1iNygOrJMY07nUUaiTM68CB0sxzDZ15a9fIegBExdtTKFYAB6dSUondhjRHs9KlAnBPAMVMBu/TVXWIapdcG3psX1QqwntePRgjB219YyTuMin1WEBpVSI1tQNEqZml+3gv5Utups2pEvB+KDVjwsp6rjdIxlbdn/uBMo70fwj3O7TrgyJAiE+/ZjVd2C9BOog9hcJyfDEdNXbD4TCeVB7ft0cTfjQea2j9Bw==);lineShape=1;strokeColor=#FFFFFF;" vertex="1" parent="1">
          <mxGeometry x="951.4276692144016" y="-832.8515086319888" width="7.339559042046907" height="7.338056570773718" as="geometry" />
        </mxCell>
        <mxCell id="xg1OOrG9r_t1N4pU3jfp-44" value="" style="shape=stencil(lVfbchoxDP2afdXYluXLc5r+R2ZCClMKGUJvf19tibdYZg/p22J0ZEvnWJInfnjbPr1upuDezqfj183P3fN5O/GnKYTdYbs57c76NfHjxA8vx9Pmy+n4/fB8+f36NFvOX9+OP2YPvy64QEVmUHC/3xcScf678vliv98druwzBW/txa3be0dlAHgBAN0h9AChkNYBgYljD4gUKwBUimYHpgIALM3fFeDdxU1A9CRiAQ5kNWZK5kiBMjiSMKVqAYIAlbJYQOR1QBIqw5HYA2UEcoZpaeK6Dcjk+xhYtRTXAcVT6neIDJkuuUltAUQqQEtVaTJBe8iDAmIvPq8rIOgayZcOkCBvVWwInirynyjkzt6RA/ezZore2EP/xQYcmxJv21d7nrkiAJIVYAqGL5QBZ94tES6k5SaU1S16llV4EclCg+iVqjqKKKul+WsAcSQF09AfSSKswzPP/ZFEiFEMKqSeCLmvVBN0gfe5Lv4WQGjX6YO3jZkySmug2qdV1ZeRmLi1jkVM2n3QDky111KhhLIarVq5ta81FkqfVEcMqrDqwrG1R9Iu5E1KYbdVZRv/hQTJrlIy11moImHX9vcVZQllSAGDKO4c6QYAcKZdwcjuqoTcRgxDzHzBASCLvTulUAVCzbpDn6Zc4EwytmfdE1WYcQBQACp644ihAAZBj0OMAhyIYRyTcmxRfXAQU0AE2hhHPQUgpsdhMjNkehxXdQ5K4EaPA3H2sIYNE7faMyB6mOjVXkBSg+0LsxZRv23elgFGpQ0CXuaJxV7gAOAsx0nzAzh2Q19LcIIZpgXxsMQP9jHBEj+cJzp49Yd4dRjx0L/JJ2uXBf4HvrTEo/wMeggZdvH/fUHet9ePf8/Vl91+f3ntXv9vn7e6dHka8+Mf);lineShape=1;strokeColor=#FFFFFF;" vertex="1" parent="1">
          <mxGeometry x="858.9004948017594" y="-707.0123081888707" width="1.0595755491389618" height="0.1349528387528677" as="geometry" />
        </mxCell>
        <mxCell id="xg1OOrG9r_t1N4pU3jfp-49" value="" style="shape=stencil(lZbdUttADIWfxrdnpNX+XlN4D2YIjYc0YUKg5e3R1mOIlkSd3vnv88pHR8c7yc3L9v55MwV6OR0PT5vf88NpO8mPKYR5v90c55MeTXI7yc3j4bj5eTy87h+W8+f7/mQ/+nV462/4s3CNUEKnAr0vV2JCan+v3C3Abt6fAxmlGCAJWnWAhsoGyIKaXSCJAUoEeyUltGyAqis4QG2IFmiMFh1AVbIltYLE14FCyFYlJgLRdSITJNolGtiRKRGq7ZzqQE4jooBtI2oFO4BUkAVK84EMsrrmBhIHKGMjUkV1VIphXCGqW5zO6W1pFggITklaQK4G0CKzs0KuaMkCGSE53lARrZlU6OB8dG+TXUFbGfyBoGFG6V8zykPjCLFcB87c/OkNWoPh8hI6MBbQofJa3UdysGtbX3FZJh36YUg1GJySeqzYkr6i53KrBeXbjFYnBjQa6wBofHozmhCHoVZZHTN1QP4HkDima09Dx0whrm7+BBKyE0yc1rQ+i43ofHRBtW4tDHHaEMYwzrym7cXn1ar2AxKvKXLteWuLSODg1ZNsYgRfUc0TWz831xQcR4GYkZweBxmBBHEmRz0x/Bm0AY6garpBofHfpgdfO47HebdbNizn98cdil5adjdy+wE=);lineShape=1;strokeColor=#FFFFFF;" vertex="1" parent="1">
          <mxGeometry x="858.9678696919938" y="-706.9402050340119" width="0.03566840766282613" height="0.03577782640554397" as="geometry" />
        </mxCell>
        <mxCell id="xg1OOrG9r_t1N4pU3jfp-50" value="" style="shape=stencil(lZbdUttADIWfxrdnpNX+XlN4D2YIjYc0YUKg5e3R1mOIlkSd3vnv88pHR8c7yc3L9v55MwV6OR0PT5vf88NpO8mPKYR5v90c55MeTXI7yc3j4bj5eTy87h+W8+f7/mQ/+nV462/4s3CNUEKnAr0vV2JCan+v3C3Abt6fAxmlGCAJWnWAhsoGyIKaXSCJAUoEeyUltGyAqis4QG2IFmiMFh1AVbIltYLE14FCyFYlJgLRdSITJNolGtiRKRGq7ZzqQE4jooBtI2oFO4BUkAVK84EMsrrmBhIHKGMjUkV1VIphXCGqW5zO6W1pFggITklaQK4G0CKzs0KuaMkCGSE53lARrZlU6OB8dG+TXUFbGfyBoGFG6V8zykPjCLFcB87c/OkNWoPh8hI6MBbQofJa3UdysGtbX3FZJh36YUg1GJySeqzYkr6i53KrBeXbjFYnBjQa6wBofHozmhCHoVZZHTN1QP4HkDima09Dx0whrm7+BBKyE0yc1rQ+i43ofHRBtW4tDHHaEMYwzrym7cXn1ar2AxKvKXLteWuLSODg1ZNsYgRfUc0TWz831xQcR4GYkZweBxmBBHEmRz0x/Bm0AY6garpBofHfpgdfO47HebdbNizn98cdil5adjdy+wE=);lineShape=1;strokeColor=#FFFFFF;" vertex="1" parent="1">
          <mxGeometry x="858.9028036181905" y="-707.0052711078151" width="0.03566840766282613" height="0.03577782640554397" as="geometry" />
        </mxCell>
        <mxCell id="xg1OOrG9r_t1N4pU3jfp-51" value="" style="shape=stencil(lZbdUttADIWfxrdnpNX+XlN4D2YIjYc0YUKg5e3R1mOIlkSd3vnv88pHR8c7yc3L9v55MwV6OR0PT5vf88NpO8mPKYR5v90c55MeTXI7yc3j4bj5eTy87h+W8+f7/mQ/+nV462/4s3CNUEKnAr0vV2JCan+v3C3Abt6fAxmlGCAJWnWAhsoGyIKaXSCJAUoEeyUltGyAqis4QG2IFmiMFh1AVbIltYLE14FCyFYlJgLRdSITJNolGtiRKRGq7ZzqQE4jooBtI2oFO4BUkAVK84EMsrrmBhIHKGMjUkV1VIphXCGqW5zO6W1pFggITklaQK4G0CKzs0KuaMkCGSE53lARrZlU6OB8dG+TXUFbGfyBoGFG6V8zykPjCLFcB87c/OkNWoPh8hI6MBbQofJa3UdysGtbX3FZJh36YUg1GJySeqzYkr6i53KrBeXbjFYnBjQa6wBofHozmhCHoVZZHTN1QP4HkDima09Dx0whrm7+BBKyE0yc1rQ+i43ofHRBtW4tDHHaEMYwzrym7cXn1ar2AxKvKXLteWuLSODg1ZNsYgRfUc0TWz831xQcR4GYkZweBxmBBHEmRz0x/Bm0AY6garpBofHfpgdfO47HebdbNizn98cdil5adjdy+wE=);lineShape=1;strokeColor=#FFFFFF;" vertex="1" parent="1">
          <mxGeometry x="858.8637640604834" y="-707.0052711078151" width="0.03566840766282613" height="0.03577782640554397" as="geometry" />
        </mxCell>
        <mxCell id="xg1OOrG9r_t1N4pU3jfp-53" value="" style="shape=stencil(lZbdUttADIWfxrdnpNX+XlN4D2YIjYc0YUKg5e3R1mOIlkSd3vnv88pHR8c7yc3L9v55MwV6OR0PT5vf88NpO8mPKYR5v90c55MeTXI7yc3j4bj5eTy87h+W8+f7/mQ/+nV462/4s3CNUEKnAr0vV2JCan+v3C3Abt6fAxmlGCAJWnWAhsoGyIKaXSCJAUoEeyUltGyAqis4QG2IFmiMFh1AVbIltYLE14FCyFYlJgLRdSITJNolGtiRKRGq7ZzqQE4jooBtI2oFO4BUkAVK84EMsrrmBhIHKGMjUkV1VIphXCGqW5zO6W1pFggITklaQK4G0CKzs0KuaMkCGSE53lARrZlU6OB8dG+TXUFbGfyBoGFG6V8zykPjCLFcB87c/OkNWoPh8hI6MBbQofJa3UdysGtbX3FZJh36YUg1GJySeqzYkr6i53KrBeXbjFYnBjQa6wBofHozmhCHoVZZHTN1QP4HkDima09Dx0whrm7+BBKyE0yc1rQ+i43ofHRBtW4tDHHaEMYwzrym7cXn1ar2AxKvKXLteWuLSODg1ZNsYgRfUc0TWz831xQcR4GYkZweBxmBBHEmRz0x/Bm0AY6garpBofHfpgdfO47HebdbNizn98cdil5adjdy+wE=);lineShape=1;strokeColor=#FFFFFF;" vertex="1" parent="1">
          <mxGeometry x="884.7143863669994" y="-707.1341258272291" width="0.08671112897373577" height="0.0869771297105311" as="geometry" />
        </mxCell>
        <mxCell id="xg1OOrG9r_t1N4pU3jfp-54" value="" style="shape=stencil(lZbdUttADIWfxrdnpNX+XlN4D2YIjYc0YUKg5e3R1mOIlkSd3vnv88pHR8c7yc3L9v55MwV6OR0PT5vf88NpO8mPKYR5v90c55MeTXI7yc3j4bj5eTy87h+W8+f7/mQ/+nV462/4s3CNUEKnAr0vV2JCan+v3C3Abt6fAxmlGCAJWnWAhsoGyIKaXSCJAUoEeyUltGyAqis4QG2IFmiMFh1AVbIltYLE14FCyFYlJgLRdSITJNolGtiRKRGq7ZzqQE4jooBtI2oFO4BUkAVK84EMsrrmBhIHKGMjUkV1VIphXCGqW5zO6W1pFggITklaQK4G0CKzs0KuaMkCGSE53lARrZlU6OB8dG+TXUFbGfyBoGFG6V8zykPjCLFcB87c/OkNWoPh8hI6MBbQofJa3UdysGtbX3FZJh36YUg1GJySeqzYkr6i53KrBeXbjFYnBjQa6wBofHozmhCHoVZZHTN1QP4HkDima09Dx0whrm7+BBKyE0yc1rQ+i43ofHRBtW4tDHHaEMYwzrym7cXn1ar2AxKvKXLteWuLSODg1ZNsYgRfUc0TWz831xQcR4GYkZweBxmBBHEmRz0x/Bm0AY6garpBofHfpgdfO47HebdbNizn98cdil5adjdy+wE=);lineShape=1;strokeColor=#FFFFFF;" vertex="1" parent="1">
          <mxGeometry x="884.9991069522633" y="-707.0392193162512" width="0.08671112897373577" height="0.0869771297105311" as="geometry" />
        </mxCell>
        <mxCell id="xg1OOrG9r_t1N4pU3jfp-55" value="" style="shape=stencil(lZbdUttADIWfxrdnpNX+XlN4D2YIjYc0YUKg5e3R1mOIlkSd3vnv88pHR8c7yc3L9v55MwV6OR0PT5vf88NpO8mPKYR5v90c55MeTXI7yc3j4bj5eTy87h+W8+f7/mQ/+nV462/4s3CNUEKnAr0vV2JCan+v3C3Abt6fAxmlGCAJWnWAhsoGyIKaXSCJAUoEeyUltGyAqis4QG2IFmiMFh1AVbIltYLE14FCyFYlJgLRdSITJNolGtiRKRGq7ZzqQE4jooBtI2oFO4BUkAVK84EMsrrmBhIHKGMjUkV1VIphXCGqW5zO6W1pFggITklaQK4G0CKzs0KuaMkCGSE53lARrZlU6OB8dG+TXUFbGfyBoGFG6V8zykPjCLFcB87c/OkNWoPh8hI6MBbQofJa3UdysGtbX3FZJh36YUg1GJySeqzYkr6i53KrBeXbjFYnBjQa6wBofHozmhCHoVZZHTN1QP4HkDima09Dx0whrm7+BBKyE0yc1rQ+i43ofHRBtW4tDHHaEMYwzrym7cXn1ar2AxKvKXLteWuLSODg1ZNsYgRfUc0TWz831xQcR4GYkZweBxmBBHEmRz0x/Bm0AY6garpBofHfpgdfO47HebdbNizn98cdil5adjdy+wE=);lineShape=1;strokeColor=#FFFFFF;" vertex="1" parent="1">
          <mxGeometry x="884.9991069522633" y="-707.0392193162512" width="0.08671112897373577" height="0.0869771297105311" as="geometry" />
        </mxCell>
        <mxCell id="xg1OOrG9r_t1N4pU3jfp-56" value="" style="shape=stencil(lZbdUttADIWfxrdnpNX+XlN4D2YIjYc0YUKg5e3R1mOIlkSd3vnv88pHR8c7yc3L9v55MwV6OR0PT5vf88NpO8mPKYR5v90c55MeTXI7yc3j4bj5eTy87h+W8+f7/mQ/+nV462/4s3CNUEKnAr0vV2JCan+v3C3Abt6fAxmlGCAJWnWAhsoGyIKaXSCJAUoEeyUltGyAqis4QG2IFmiMFh1AVbIltYLE14FCyFYlJgLRdSITJNolGtiRKRGq7ZzqQE4jooBtI2oFO4BUkAVK84EMsrrmBhIHKGMjUkV1VIphXCGqW5zO6W1pFggITklaQK4G0CKzs0KuaMkCGSE53lARrZlU6OB8dG+TXUFbGfyBoGFG6V8zykPjCLFcB87c/OkNWoPh8hI6MBbQofJa3UdysGtbX3FZJh36YUg1GJySeqzYkr6i53KrBeXbjFYnBjQa6wBofHozmhCHoVZZHTN1QP4HkDima09Dx0whrm7+BBKyE0yc1rQ+i43ofHRBtW4tDHHaEMYwzrym7cXn1ar2AxKvKXLteWuLSODg1ZNsYgRfUc0TWz831xQcR4GYkZweBxmBBHEmRz0x/Bm0AY6garpBofHfpgdfO47HebdbNizn98cdil5adjdy+wE=);lineShape=1;strokeColor=#FFFFFF;" vertex="1" parent="1">
          <mxGeometry x="884.9991069522633" y="-707.0392193162512" width="0.08671112897373577" height="0.0869771297105311" as="geometry" />
        </mxCell>
        <mxCell id="xg1OOrG9r_t1N4pU3jfp-57" value="" style="shape=stencil(lZbdUttADIWfxrdnpNX+XlN4D2YIjYc0YUKg5e3R1mOIlkSd3vnv88pHR8c7yc3L9v55MwV6OR0PT5vf88NpO8mPKYR5v90c55MeTXI7yc3j4bj5eTy87h+W8+f7/mQ/+nV462/4s3CNUEKnAr0vV2JCan+v3C3Abt6fAxmlGCAJWnWAhsoGyIKaXSCJAUoEeyUltGyAqis4QG2IFmiMFh1AVbIltYLE14FCyFYlJgLRdSITJNolGtiRKRGq7ZzqQE4jooBtI2oFO4BUkAVK84EMsrrmBhIHKGMjUkV1VIphXCGqW5zO6W1pFggITklaQK4G0CKzs0KuaMkCGSE53lARrZlU6OB8dG+TXUFbGfyBoGFG6V8zykPjCLFcB87c/OkNWoPh8hI6MBbQofJa3UdysGtbX3FZJh36YUg1GJySeqzYkr6i53KrBeXbjFYnBjQa6wBofHozmhCHoVZZHTN1QP4HkDima09Dx0whrm7+BBKyE0yc1rQ+i43ofHRBtW4tDHHaEMYwzrym7cXn1ar2AxKvKXLteWuLSODg1ZNsYgRfUc0TWz831xQcR4GYkZweBxmBBHEmRz0x/Bm0AY6garpBofHfpgdfO47HebdbNizn98cdil5adjdy+wE=);lineShape=1;strokeColor=#FFFFFF;" vertex="1" parent="1">
          <mxGeometry x="884.9991069522633" y="-707.0392193162512" width="0.08671112897373577" height="0.0869771297105311" as="geometry" />
        </mxCell>
        <mxCell id="xg1OOrG9r_t1N4pU3jfp-58" value="" style="shape=stencil(7Zvbbh03DEW/xq+C7pfnNP2PAHEao2kcuOnt70vV0XgOOWdNDlCgLZq31NU+kiiSe5PS3KVXP79/8+n+LvqfPz89/nj/28Pbz+/v0nd3MT58fH//9PBZ/nWXXt+lV+8en+5/eHr85ePb5//+9GaOnP/66fHX+Qu/P+OadyVMVPR/fPlLcq399ZfvnwEfHj7uAdH1bAADAMX5YQARAM3lrgE9XAd070K8BGQXMgBkD0UDigdAcTVpQKsA6C6aGXq6Dhje5awBX8xwDIgumxk8AbKLXpu1gllHOTjpQDM0swcxNJh1dDeiBnhwvjHWAnaARGYdLkezB1rScNWcw8kMXQVQcQOcTwBDzdBcB18K3juvTk5+4zaEuHyAmLOL6uIu5Bxm2726wHZShu3NtXLL0UlQjZucow/X6CSM+43NbseA6nLVgEKb3oJ+B6h0Dsl5MwMGaXDZGwAEqdikGwAlfLF6Dhow4OAkWXZl1oAh1JNLXgMq5e/gejMA4CBhiGQBYKXWzcEJADYtMRy7ARDLSZawmyYeFSsZs3YCeB2iwhnEELW7ZAAR9lDL8s29L8FJ17gy3T5rgHvXsLLQBmArlbF4ecuVHQOoWKYumJdKNeJhC9pjgGgLxUGb/x4Dok4CAiCz5uGKBYCVsnhr1XuINIMkMkW8bc15DIgHB5dg00n44SbKSm058w4QaQY5h6YBiWaIBzMkcI1oOa5gIovN0G7Dk46SNS7z0uQ4AmxaexeiCQ4uiueYmC6whzAWG+yTALBoEEIZGjBgD6HorHFCKCEbygpLTBwDTEEgmY/MGrzJ3jInsagWM6IlPExgznmwSEyuqA10zJPB8NtgC600vcbvNOYhwBuLDizivA7/KedgQeLFXRuINLHX+WiKOVyPin05YEp4Mt5wJ5WURqEPj/lRxl/ac5aYcMBSE6tkV09+P6nEkrFK35LCNj4tcXxlfDO5lFJjcD7r8QnOa7P2vgyDXJ11QIqYyXBeVZ+vCAdUwZr0S8L1h6ABQtIJ1JokuXJp0eyxJxGaPrJUsGSbPnfpE0JwnegsaiNJHiMRLGlLEab8BRm2rP7ABoi8h7a4aAP4JWWOE6lfkncHCCQrom5XhbrqmWs6ROV2OXvqqyT5vUsrcV2bumbkzmrQkAFzR946hC/roa5NrtqPWLPkrssKoVsqvopfqX9nUU+ApLPLBFBZkXVNK0ui4qtUXdMKoJDo74bxMb/UoENnYCuiptUSfRmfaXxeBfLLeOKPWl3Uv0/iujZTO2IQSDUbLlVj5+o36sDvyDezZWyCAOzTitH6rlLfvJnuFHfB+4qR3XgSmF4rtL6E/LUeuGrWCuVS2uqmKhXlT4wvBV8ziZHivm8dkw2QUKNNgBJR2GTvpraRKKW2UdB5JWHMvEiUbQNYkcp4VZx5JDORWKHcNl5VvCfrSW4EvV/qw0nMVGVP0lCzp6yJo5OGyro3Mx0CgkYA6q5puhztIOke2XRqNlFWmiigrhOA1kR8xyFOoQ4tnjQ3o84s0y2oBRx0PS3SkHLRjDMF4GJIAEWdQ8By187Q+ELObCEvjfSVNgqoAuchXI73KMbtKXN1bN3opAl/63jDBi+69ivpRgABjtjyWfJ4Y2QJcwJoBsPIAiCGspQ/Z+AOudIUAvDgRla0TClLKs2ootkjpIa3kV1xYKhZXTcBVMga4TiVIACsMo18EWe1rwCo52jVtQDoHKx+l3xBlamtECYAAtrWILKkSABT5IhZKR5sFTXZkGYwZdqJe6ehe0wCIPqUQrMaALl3MgSdEvYg0naLtgGaG7CH6WoqzQws7aYEuTSrlMMUD6Jx+m2AqLvLsqRMe/D62jjHdfN8rVOjvHW6I/WCynrUsHWbykpt1xreqo8ieSTSbbxuJzYm9KYX1OqK8SvtOMW3vaI0jOaOuaI0/9a//j/2r8Eh/m3966DvracEhfFJl+8nd5NF6wqR0FiG6NJOBB9e0nkt+ecTOViQpCANiMiw9lZP9Bsegbk3FADVOfNm8qYsN+8+owEQFRjxNV9pwDHMiz2zh8AdcuXYlRtT0Ty3rAU7R5MLLkO58gOI5HVfp3psSCfDTmWsx4vXdEixAFI67WgGAgxt1jLwHEStKdUsOpruQnLWbzKEwymiRXEq4VJYrWXzviezWeX3FMtmbuqW7fZmBygQ07LFMfQe6NlraVpLlbCaVteqF7WHkrERL76p0ozMSedQo1b+lVv9Ei7qzZ5UfZSLpYpUZDufakEA2ZdclTtt9q1YY3lkX6M1bjrZ926NWyr2RZ0AMu3BvNlrXO7YV4FzSdwP7hbAbaFkNo0dZPN2clIWNbbM60xhINKd9v1n476/fWE6AWAl+4ZVACSt7CvZCaBixLzDFQC9UfrPPDSHg/vHHpqThvv20HwF1d/70Nx8SSEz0M2N/Vaj8/Wo/RpkZhIKUvO9SefOjf2iRQCFsqt5iSuASLnPfJUjALyLMc/85pJO2ujRbJraHkZMz11Rk9t8HSUAUhv2+6vOjUn7hdecgah96yruAFTUTKkwtJXoEq2asqnXM4CuvgveTghAl7v8sdMEKF9iXXkA4AsTu6TGEWc33erZkjTLldWV+sqDEw46ASjXEJYbNznf2eeF5wD5x8vXjO8ePnx4/hhy///114/yp+cvJ9PrPwE=);lineShape=1;strokeColor=#FFFFFF;" vertex="1" parent="1">
          <mxGeometry x="883.7276083460649" y="-707.2495716445834" width="2.5320347286128553" height="0.30828459694428856" as="geometry" />
        </mxCell>
        <mxCell id="xg1OOrG9r_t1N4pU3jfp-60" value="" style="shape=stencil(lVlLcls5DDyNtih+QXKdSe6Rqjhj1XjslOP8bj/NUVHyA6SWtHMU9CMJNoAGuMsfvj9+/vawS+H72+vLPw+/9l/eHnf5r11K++fHh9f9G/7a5Y+7/OHry+vD368vP56/HP797fO0nH/9+/JzfuH3ARdklAlK4c/hhxql6f+/fDrYP+2f39knqW1rnySMy/ZFQrTfH+GyfZXcrH0l31fRYe1Tu2zfpNetfZBWL9sPGdvvlyEtX7aPUXJ2ALJATNKD3VFgKxQp6o7QCUAlG0CSmAigS3CAys4wRB0rlNxCihKDBWRGO/y34xFzK4hXuvVSjQSgltm4uEKYByo1tQBGPXApVrcCubiMex32DIl4KeOasvVSJGfIxbkV4UzcmqsMRw12cblJcTcdCb1zt26dN83OgBB1h06E3iVaepfjJs8DkqQtl/BLJF4qWVraALKuoD0PqCu+joC4EuF5AMi3zdsgC+MSmJODW4FsqeaVhY4A3HQhgGqTQM6SWKpvMroFdHaGIV3dCmRLGi35Mq9WirRVrVsZ+bRK2K6Quihxq6rE7RlmpiJc0mbzErJtYCuMxf4jIEthJTHYCtS4fXIRKoXEWyuipiRKY99Xm5SKJJIxGnhkok06289YtDxewSLiWfseFu9P9pGwrqflvmUflkg5b58XY072rI70IiMa+0DirKvdf5BIKmFvVvNwidSH1G0cRyovRrR1kGeiAb5FY18JH0ZZy7/7PrOvVlBFWgPHsJo20AiGvZGEKGjkvmCvpijz/SMtmu+HVaUvAYZJKccrP6/vQnBprlJOD1eUZ6rme2qmegzaKABQt7dcysoDlwDJpKFGdfPoNs5KpwUNAN16qSjVOgCYyIQ2ubKlaMp+XWS5BAgmd3WaXM4AwnL0jVtCuYn8DObQbcXTjV5NtML6awu0g/S8iHw/jnhctXhm92vENqEToQ5JvTkXnZlmeJ8AIHM6B5gUA13fyZ58DoMmZgrYJ0lEJ5NqPguXTvXp/QBXF06q+8bCMxuLuyobADRLutI5VyAZxtdmAJSJHVf8yzEj3KguAKByx8kXAJjG9voIACYAvAADgCoep/CQuBsBeAmJDm4QL02Nmi2AzqnUxQMARGVMld0sQBkg2W4K1GDDgoa86EYqmWQyHW4Go9d6HZNm0JCxAEI3ZcaF+ERmK7h+Dd0Pa7R9R6id3oPvObFJpsZ8V4tNstxaXYgCkFjf7Drz2YWSmj57/+LcSrw0iWAuDhHCxsLuphufI4HMfZs1ECFKvAQ1aM6APMJkd0m2ZCF5KgPEdcQFQAFgEecnVVNtMYCbhY3GJ4Zu2gYAnba5ed7QlZ5vnBhihUS45GeS89B3TT1PlfvGueqUXHdNbt9JqBuHw3MJcgg/fh6dv6u4ATf8ynS3H6HPmyNn8EN6ABi//TMAAI1syT80TPYx5eqeMuAlNnP3jyVTvbMV3HPMSb6fV1g2t057VtjtexJOwL7v3qtmNNzzHja4fnPvbbCnDyuO2I12b+69cNKUBGewChcc6iTloVczF1ykE0YEFzb8/TLY8SsEr5IEGVaCPtonOgxzrRiUX6b7t/ZROqm0bj8o5Yxv7rzQJ6xsOn/Wa/dr7quiQFD+GD7URIfH975PX7fHH6fH8K/7p6fDW/r7/7eP5/jp8PCeP/4H);lineShape=1;strokeColor=#FFFFFF;" vertex="1" parent="1">
          <mxGeometry x="884.1344721049925" y="-707.3507110905166" width="1.7792443614161018" height="0.07334145227627503" as="geometry" />
        </mxCell>
        <mxCell id="xg1OOrG9r_t1N4pU3jfp-65" value="" style="shape=stencil(rVrJbh03EPyadyW4k312nP8wYDkSokiGrCT236eZF45mqjn1ZCA3We4Sl96qi3NJH77df/p6d4n+2+vL8+93fz98fr2/pF8uMT483d+9PLzqT5f08ZI+fHl+ufvt5fnPp8/Xf3/9NCzHT388/zX+wvcrzjupAxT9j/kL3//9xa9X88eHp515dCWgeT03T64Jmvtz8zLXfjNP7dy8uoh7l3xu3lyJB/PgCjlqd/1oHudyS/PgXehgXxKxD65nsG/MPs3dTvvkIrmcUFwsYM9uJ1TXj77KrhZi311uB/syD7S2F9fTwb66yiItuHQMtTYXXNvr9R3vs7sYiH12PoB9Jv7V46UI9oXZ6/Eq2gux7xjNwlNrS6U3+0b8lQLGs0bsfwmxBqQZvxsg0IhLGWuJAugK1SWzQiX1ITXMmQEgQZfE5WAA5Aw5YNaE6AJxQ04uBASwPMjZnEEvmgHqPOIGyC6SSMoayBEBlfiheHOGPJNpDQiuVQMg11q0VqWfWkF3bACVHLpUTIew/Yk1oLlkzsAStGhDaAZAKlj1LnYDIClaA5aMASA1rCaTQJkWpVpcsKFBbqk2F6zj2AoyW/YOIATQtEYAQGkA8UNLWOgVEEjwtTIL4x5AHNeaqXzbva0BW6nen4EAul84Tkjl69FVk6KsffaM1OtGLPXqpCAgsRXEBZNxrD9IwA43AOTQkhaFLJCqIcXEUqaxJG11S8RxokUAcro4IdcqYoKvu0ZWCN409sE82TVpygGTbHxPykSOKyiZiKQwSZ3VfQPkWT3PHAHlW1s3myskzxTe2KeffHQNiDgrjD7J4lupwNERZWOAZwkBgBpp+e4arkc/NO8ayyA/3bQBGuU/o84cb0nrgpDyrX+vH8+gp6IrmClA761wgD8eeniG1XvDEtX3ia2QsO9qOAZ26DiZwgZotPRpCwLHCZ8dtMmFigDGTqoW146AztqopjxsSWhOK3eAwjQAbEsBm9woVWza1vIdERBJNVb+I4KHzpwwdbjWNgv6KeAY3hoajMONLQGg0ClXD42ezpTeKyAbAOuKw3Ewx+mgzgARS+UAsEMb0WZkHGlBCoCuqABWZhSAni50GFXiCtV7tBhSBAYAHNco/xlbgkN3ztbjHAx34X3jlmCAUEBnKRrNiOK5HlYDjn5jCXaIgCKFbG3vDOBNJaP83mODUEfQLXmcd9XVtJKZrqjBJDfO0BHAWN+4JQim7DKL7zBjbQfw/yugzpzfJTWbIKph3wPAxqaAk5xEWja0jeKWAp1RtLNDC+qdj34FS99gJ8TTg50cz6BjDkug1vGWlHMxVVYZlgCHK3QFJWD5uELtk6StAQV1zaJ9l/HQPtn/BvC0GovH4BsiFefS5ZjTqVLHvTWcDRCpUq8p7491SUeUSMJbiwqq6XmStDMAVOPop+D5zllRAZlNTWYavfE8YefdAeAjCkSrAiLxtJ3ZFcCosVUFbrzILHQHode6UDaEzmUL7UQoS1yoM0KFioX+wzv7QmGSear3algyg+W9KplQEXihwwkVUBdKn8w56r1aotAHo4VaeWPisHqo0DKzUFyFVr6FpqsA4oeFaix0Llvo0jKb2KnybfzA3vmGtm6CjzXF4hcJxJhu7kgSR7TyF4gkCGCKa84mHzqdwHM0slqjfsiG8ymApeh4CQJPVzpmjbemaADsga3OOW8HYBJWyosVmDSYEooCCmAyXApTsNqplWzMirLS1tkrap+0di+gsmfOOp+i9poue9c179g3NN2YFg9sbOCIEceB8SJH/BA3/rUBIi3GwZb7QOuSBjOu4Gmp1ECArwOEcvXx3ADknirAeiNwgk7fUfV8QDT6ra8ngCByBa7juy4fQhsSq0YfdQvqUJUO0WmqvBtBp1lp5JhCn3PNFzplttET85bQnFykx83kqVSemEPr4M+HHtWzTO/ddLJExWr7UEL5x8Kcucm2VSppmaMG+mhjLtJTVmDcxEcPEwS6O7r3n/oI7Ka5/vD2vdmXh8fH6+dq+//H79P0V9dv29LHfwA=);lineShape=1;strokeColor=#FFFFFF;" vertex="1" parent="1">
          <mxGeometry x="883.9476135869129" y="-707.4211918613886" width="1.7896201022935745" height="0.6619155361395688" as="geometry" />
        </mxCell>
        <mxCell id="xg1OOrG9r_t1N4pU3jfp-69" value="" style="verticalLabelPosition=bottom;verticalAlign=top;html=1;shape=mxgraph.basic.half_circle;direction=north;" vertex="1" parent="1">
          <mxGeometry x="885.4899999999999" y="-723.3299999999999" width="32.83" height="39" as="geometry" />
        </mxCell>
        <mxCell id="xg1OOrG9r_t1N4pU3jfp-75" value="" style="shape=stencil(fZbdcgIhDIWfZm8zQAg/17Z9j85U606tdqz9e/tmZ0c0uJ47xP0I5JwEBl59bp8/1kNwn6fj4W39M76ctgM/DCGM++36OJ50NPDjwKvN4bh+PR6+9i/z74/n6ctp9H74nlb4nbmSKZeJCu5vngmZ6jzzNAO7cX8FVKEsBuBKrgKg9oAE8gkCbLeUhEoEQKSUDZDLeWYRKIl8MEDRmHwfyBrBG6Amyu4+kDxxMoB3jhwgYu7TVAsVkFcWCs4CTBEoF4RctKeOxHIf8IXYpikHikAIf+MNUW94AGSSaoAoFIE3AlOyeWU+p2E5S9yfQZcQILVuQOwZdJNoS9Ls3wA5u2XZTIHECqeJ9kDpSaauRiNVcAY1QhdBzeLBli5WazpkSsBLV25uRaqWRyFawTQzRRIQYirJzq5atkBqLfouwqUxLBepthWb10vrWZY6UOAeyKCCtDV625mm9gmUC4Wc3VLJMMIE1BsA2FW9JraVlQB7n3c9oMKhCLEvIM1zBPZ25/umNQ1tVEC2G+fFCC8g398O2hNQuQlVu752DBfA+q0ptnqO5JFmeuIuo9DY7KjY71UxdJV4EntifPWorW++R/dC4t7V3DlIB5cHx2bc7eb3yvX//QNFp+bHDT/+Aw==);lineShape=1;strokeColor=#FFFFFF;" vertex="1" parent="1">
          <mxGeometry x="853.816087797014" y="-701.3376441749631" width="0.5134659090236999" height="0.512663320478868" as="geometry" />
        </mxCell>
        <mxCell id="xg1OOrG9r_t1N4pU3jfp-76" value="" style="shape=stencil(fZbdcgIhDIWfZm8zQAg/17Z9j85U606tdqz9e/tmZ0c0uJ47xP0I5JwEBl59bp8/1kNwn6fj4W39M76ctgM/DCGM++36OJ50NPDjwKvN4bh+PR6+9i/z74/n6ctp9H74nlb4nbmSKZeJCu5vngmZ6jzzNAO7cX8FVKEsBuBKrgKg9oAE8gkCbLeUhEoEQKSUDZDLeWYRKIl8MEDRmHwfyBrBG6Amyu4+kDxxMoB3jhwgYu7TVAsVkFcWCs4CTBEoF4RctKeOxHIf8IXYpikHikAIf+MNUW94AGSSaoAoFIE3AlOyeWU+p2E5S9yfQZcQILVuQOwZdJNoS9Ls3wA5u2XZTIHECqeJ9kDpSaauRiNVcAY1QhdBzeLBli5WazpkSsBLV25uRaqWRyFawTQzRRIQYirJzq5atkBqLfouwqUxLBepthWb10vrWZY6UOAeyKCCtDV625mm9gmUC4Wc3VLJMMIE1BsA2FW9JraVlQB7n3c9oMKhCLEvIM1zBPZ25/umNQ1tVEC2G+fFCC8g398O2hNQuQlVu752DBfA+q0ptnqO5JFmeuIuo9DY7KjY71UxdJV4EntifPWorW++R/dC4t7V3DlIB5cHx2bc7eb3yvX//QNFp+bHDT/+Aw==);lineShape=1;strokeColor=#FFFFFF;" vertex="1" parent="1">
          <mxGeometry x="854.1185404712928" y="-702.8498941320373" width="0.5134659090236999" height="0.512663320478868" as="geometry" />
        </mxCell>
        <mxCell id="xg1OOrG9r_t1N4pU3jfp-77" value="" style="shape=stencil(fZbdcgIhDIWfZm8zQAg/17Z9j85U606tdqz9e/tmZ0c0uJ47xP0I5JwEBl59bp8/1kNwn6fj4W39M76ctgM/DCGM++36OJ50NPDjwKvN4bh+PR6+9i/z74/n6ctp9H74nlb4nbmSKZeJCu5vngmZ6jzzNAO7cX8FVKEsBuBKrgKg9oAE8gkCbLeUhEoEQKSUDZDLeWYRKIl8MEDRmHwfyBrBG6Amyu4+kDxxMoB3jhwgYu7TVAsVkFcWCs4CTBEoF4RctKeOxHIf8IXYpikHikAIf+MNUW94AGSSaoAoFIE3AlOyeWU+p2E5S9yfQZcQILVuQOwZdJNoS9Ls3wA5u2XZTIHECqeJ9kDpSaauRiNVcAY1QhdBzeLBli5WazpkSsBLV25uRaqWRyFawTQzRRIQYirJzq5atkBqLfouwqUxLBepthWb10vrWZY6UOAeyKCCtDV625mm9gmUC4Wc3VLJMMIE1BsA2FW9JraVlQB7n3c9oMKhCLEvIM1zBPZ25/umNQ1tVEC2G+fFCC8g398O2hNQuQlVu752DBfA+q0ptnqO5JFmeuIuo9DY7KjY71UxdJV4EntifPWorW++R/dC4t7V3DlIB5cHx2bc7eb3yvX//QNFp+bHDT/+Aw==);lineShape=1;strokeColor=#FFFFFF;" vertex="1" parent="1">
          <mxGeometry x="853.916906472967" y="-703.454792773435" width="0.5134659090236999" height="0.512663320478868" as="geometry" />
        </mxCell>
        <mxCell id="xg1OOrG9r_t1N4pU3jfp-78" value="" style="shape=stencil(fZbdcgIhDIWfZm8zQAg/17Z9j85U606tdqz9e/tmZ0c0uJ47xP0I5JwEBl59bp8/1kNwn6fj4W39M76ctgM/DCGM++36OJ50NPDjwKvN4bh+PR6+9i/z74/n6ctp9H74nlb4nbmSKZeJCu5vngmZ6jzzNAO7cX8FVKEsBuBKrgKg9oAE8gkCbLeUhEoEQKSUDZDLeWYRKIl8MEDRmHwfyBrBG6Amyu4+kDxxMoB3jhwgYu7TVAsVkFcWCs4CTBEoF4RctKeOxHIf8IXYpikHikAIf+MNUW94AGSSaoAoFIE3AlOyeWU+p2E5S9yfQZcQILVuQOwZdJNoS9Ls3wA5u2XZTIHECqeJ9kDpSaauRiNVcAY1QhdBzeLBli5WazpkSsBLV25uRaqWRyFawTQzRRIQYirJzq5atkBqLfouwqUxLBepthWb10vrWZY6UOAeyKCCtDV625mm9gmUC4Wc3VLJMMIE1BsA2FW9JraVlQB7n3c9oMKhCLEvIM1zBPZ25/umNQ1tVEC2G+fFCC8g398O2hNQuQlVu752DBfA+q0ptnqO5JFmeuIuo9DY7KjY71UxdJV4EntifPWorW++R/dC4t7V3DlIB5cHx2bc7eb3yvX//QNFp+bHDT/+Aw==);lineShape=1;strokeColor=#FFFFFF;" vertex="1" parent="1">
          <mxGeometry x="853.4128231539422" y="-704.9670427305091" width="0.5134659090236999" height="0.512663320478868" as="geometry" />
        </mxCell>
        <mxCell id="xg1OOrG9r_t1N4pU3jfp-79" value="" style="shape=stencil(lVdBctswDHyNrhiSIAnynKb/yEyc2lPXzjhO2/w+UFXaIiytJzdFwYoAdhegB3542z69bobg3s6n48/Nn93zeTvwtyGE3WG7Oe3O+jTw48APL8fT5sfp+H54nv5+fRojx6dfx9/jF/5OuEDJjaDgPqYXUsilf2++T/H73WEW7wPF1AGyEId1QEhUekCKFOM6IAbi0gG4UuZ1QCoUfQfQM8WvA8RT6E/wiRKooTiqfQ2FPCihCKU+IyZ26/E1UY1dvCOH4oV8NvEMOlTLTcEkAuIr+drFR/I4XvrvSztwWUTuUt8lIXcvoxJ6QIRHKCD0LfICZac9MrLzlSoQRRXbVO1qzACQyWULqIjmaK2jgP/ELAOYpNoaInBCDVRN0ZkEdSlYZXumiIjTedETp11FUg0k3M8XirjkaK2GrKw9ZTFWgNbRydDn48iD+agki7WmQ/lLa8c1H2i10kR5rfeOD3Iw/fQ4vvb9qZRQ/tXmo4LwqKG18TmTXEQdLW2Yz0QNXSCUb3zmUE9zk/AMUFCTvgooxbI80oY2SGgqvgAy1JEEu6JYnQSMkB0FM+PxkorROjkJHF/jkjRbgZuZltdCotAzfV2ky5ufuC9hnPqA6GhpG9ULJjZbEmaLa7nk5pXZAYwWIUlPmoodmUd13MtIlYiml6PYM6DjD6nItdMv8R4ydrPGVegFEKbfN/GqatAfzb/PpzDcBq7ReYn3TVIr/TSTQpQvIIiv3pbvx+vD9Wr+stvvp5v9/P/2Kq+vpp8B/PgJ);lineShape=1;strokeColor=#FFFFFF;" vertex="1" parent="1">
          <mxGeometry x="853.4561043489948" y="-706.2188790274345" width="4.839125912776481" height="1.6752283312375718" as="geometry" />
        </mxCell>
        <mxCell id="xg1OOrG9r_t1N4pU3jfp-98" value="" style="shape=stencil(lVnZchs3EPwavqJwzOB4dpz/cJXlSBVFcslKYv99BmFhSTSWveIbpe3eHcw9g1P69OPxy/eHU/Q/3t9e/3z49+nr++Mp/XaK8enl8eHt6d1+ndLnU/r07fXt4Y+3179fvp7//v6lI/uvv17/6W/4eeZ5F3InRf/r/I/kcvn/H7+f4c9PL1fw4HwAePG34dEFRXi4DbenCzzdhqvLCFe9DS8uV4AnIntzZdZMdJUIEwK+PjpfCd6ElQkfnBBxgrrYJrx3RQg+u1YAH5k81Snimfz98YJnrhBcqYAPxFrdEROeNxO8Ok2gTyWebO4gsytHJwzfXPDgPsxeaTPPwMsItX18dDrbV50n/pbECeIb0WfKLs36yTwWi2uz/xcXGb4N97rghcgvfgTrBa+R4AMmB8MTfUpE/y/Uf0QwE1bnmTwWjxHwieGziwXwleFN3bP/NJcawZu4s/zBj2R9iwAOaoRMMoo0PLHlPM8JmpEQOKHqPQT14/EVIZFDG6HMVgiRpi0N6NaB1wGNmCd6pieJRdOw60aQUdj2CToS80ZQV4lr6+JKobjAtNSwsl6qwy4hx8U1mmtES1lRS5auMwmHXLHc9AJBCCWM6r4R8siY+wRZ+gNeMUsdStwIlpOJHapVJPiCFRWi1iquzocW3hFVE2m2g0W5EC21gAGkMiyzT0gYojlQtbaMzlcCVWurS6I0kcihm7narFZ7RSN2CH5rVTYGN8Q+g5X/LlRDQiYx1wkZCfXgCxEJLOb6+yBveN6zdUZaPsGMbU3zcurGT12WUxdiif54EUmZOxlhUVM6+MJCYEWoE6BSm/8dEAoSDg5dAxIy8fC2FNJOOPA+vxD4GdpyaDaPdMJy6HZvBLHUtB+krCfb/YTed4h2eGpBQuURVNcI4v6NPdMHonpRExsddvy10R5oJyIabWnuJ9TReV4VCaqmjO1xiS6xL2yriq3QRbrraAFFskaNlYi6nEEaHVHsiJBdRemM3huO2dJ96mJNk4kEKxWlU0pvmqAHCjQz9eI/f8HmMhYQvfGbE34fjEnIWWu5doqeWNrsGma1HqxitOGhL8uQmw34TLB++qjFXzp2YQQbIoCQaeqzMQUsbUMEiwcbhAJMTkIXCDZq4RAh1HBGwDMkmo1laU9sNmOFtw+kEQmFBJARYClgBCWuYe12bkhgyVi2LcP1BMtEMl+C+dLT5kGWBtwIkYmk6K2NGrpvTqDZGKu1D25meH+1bn4qLVc9xwniDzZX92xm+mYM35/ZJjCPlcTVZolkvMsUedlcJbYJjLhmyVT/fTM5y6M0zMw8kFCFBk0XFxftlW16FatUpONbH/xxc0s3ycvmOfDzLpvtQDdvfTeC7xe2ac84rwZ+56LoP5HGS8+ay80F65sD+kPiEz2qU0aC2a/4mBHlvksdoRPncmWko5jv2xZTldJUuFx3bUvfXfhymaZUMx6XNUdvh7WfUrf3WOCVdkEe2yyh05lHzQidg5bJTOhV3Q48kYywI0wgAbhzVLYoXxSZxlbuY2ZKtKlfnCCNePmYi/H72kO4/bhcDX97en4+3yxfP8erZPvX+Ro6ff4P);lineShape=1;strokeColor=#FFFFFF;" vertex="1" parent="1">
          <mxGeometry x="853.9743409646194" y="-706.759436867553" width="2.7684998751704826" height="0.5603236621894633" as="geometry" />
        </mxCell>
        <mxCell id="xg1OOrG9r_t1N4pU3jfp-99" value="" style="shape=stencil(7Z1Jjh65EYVPo22CUzLJtYd7NNBqS3C71VDL0+1NWvhriBf1RSVswBvvpKrHLA7BmCP4of7ut08//PrxQ0m/ffv65c8f//75x2+fPtTffyjl8y+fPn79/G3960P9w4f6u5++fP34p69f/vrLj9///+sPG7n/9Zcvf9tf+Mf3cenIfQ8q6Z/ff5CPWf79gz9+h//8+ZdX8F5vwPNRmoVXgs/Lwvvb8HIMmcx8G16PK72ClyPBZNpxDgu/3oafR6sGnvPb8H7kaeEnwedp4CW9Db+Obr9eYCPH0YqBV5j7PLJdam0EH3bfK2xkTkdrFj8Anx8b/QIPZLDwQ6ZP+HKc1x18Peqt77cjy+4zft76/nlct/anH+ct/PWgrXfj5639HMdlLyLi59GF3gC/eFq1lwXx+d55Lfx1Z3/Wr4WTIL4e5dZ82r37sjhbujWf8x59Lt42bs3/ukfPi7t1mQ/wk8WvTqEHYM01HaflzcQ9az66nT8x51qObum/gMytVZl/hvXWpuvNNJ9T+VsGObrw084/0/y7M3+QdfU6TpHrtN7xOM4XeDrfeRTBw/m29JDkL9QSkHdN+El+CHsfX5zvg/ht1VHCYP9bs/xw4WH/23mcVg0bQD+tW36+8LSf43Gcz/iLvj91/hd8/0z2Pq4LSopetvJl/QDmcy5+blXsDud7VqWHAN/l+zSfdiS7Px3458JXS28X3PeFb5be6Lw2Xs6X9r9Z/SQ/COpNvKXPi9d72vkTfbp4uF/efAbcX2+9g+jB2c/B+ynnNXg/m6X/AF8tfUZ4S/8Bvsh6CV+PKfvJ+GqtUsSXx/G8G19v7f+TuHonPlu7N8Tfm09y9pPoLd2kZ0ee0v1a/H8I/ZD8WvLC7g/xh4VPd/jPkl+X4El+jaMIv6L1Lv1H+D/pG13poZMfZNmPdv877Wd7OG2e8Sftz7q/Vh4hvj6O5wWe1ltVHwi+L/cL8UX35yT6eVLH34nPqi/hfLK1B/PDQHlLXz1l/qTPT3W7naSfzyNb/tnITTce5PsCz/p8ufX9S+kzwHe7Pzif62FevsCTPdVVXjTa/67ysQF/2PaXrJfxot8GeKG3RvZve5gf7/x+c/aT8XJ/EV+d82V8kf2h9S773crTRvflyc/8TnxWeUr+kJrUyx7gRV8N8BJSoPlv//BNvNI/7P/CJzt/xA+HHhifrXxBvPivgvVe1v8Q4PtD/Xo3Xs4X59/v0X85H+rju/GnzJ/xuj+Ebw69MV7sHcRXZ720/xIvCPDlYY6+7z5ud+Sd+7vdPbfoM6v+EODv0XNS/Qr9t0n1yQrfz44+kzm+IPYyBQYX3vDDhP7APB7utmc82V9Z9KWE9sXCt2nwpM/v+IudP8nHtd5k8UG8xgRaGb9+nW7iq92fAN9vfn/a/QzuV7XnG+Dv7U+x8Z3E/Kro9xvQ5+Y/dj9P8F/t+JSdz0lR/WrtnYT2XRF/ZkL7aOGFHgL8uPV9yQQI8det+XRrT4X4bumN7M2lbySZP+MNPwzxw9JDD/Qry0/IX7GzGQQP9u/CX3a95D9Z+mSx+9k5ntgsPQd4479i/NK3y0288Dfy/y/7Isv+MP609BDg5X5dbB9VwQP/WXiRX+TPX/ZdtvMn/+TCX4Ine1/i7yFe7hf5Vxde6Bm/f9r8jRB/2v0P8NPSG86/22yk4Pv9Ef5853ldqv8M8reMI8n3iT7FfkzoH97xZft90t8WXuQjxeNasv6xxP7kZOOJCeOnLVt/eIgX/Yfue3sKj72Pn7Ri45Uhfgie/cNV5Avjld+yP1zoLcC3W/Nvqr/h/pxKnwH+vPX9rvo8yeuF1/MlepZ8A9aXmvhvWb9tQ/n5yfkM0/Jn8ie3af1FTwmSLv5Myt9I/z/FHmf7YscfLX+mfM5T/BUJ00V3PoN8H853x6MtvRWKV566P4Xm05UfFtrPy/p/EuZfnZJOmx4KvovvSc+Lvt8lnpswd7hLvkrCfLNebX4d72dvuj+FUp+76mOUL9ev47T0g/hh/eGMv5LNN+P1XhKvT48Ar4+vzvwp17vp/Il+Lod/Zpr/pfot5eNdjn2UKPk86fcpL38Utd8TzGc0tZcTrHdIvIz3Z1w2vsP8ajj7Q/6NmZQeSF+dWfMfKJ9zir2T0T8zJd+J8ydnt/phQf1kXg9x9cBXjJ/OYflzQ3/ylPzwE+VpTk/09RjQ0WG6/oBxuF+YoLkWbPATA/brwGyANiNFDM1AOdFlPaoVqXmizL4kZ2UdAjlRFpMzTv3KVlWf1gpYdlwBNWWJDRO2eVas35JjRu872bDqySbeLNFPnH392nhae0VX6ymhpD5RFjTJVV7SgYIfyzgxwmMdJWnHy7o13ojxpA++5R6xAxrah5v6Xx/c6GjQ7wDm60UvgkePYrMa5uKxlMK+OZC5oZzzUiQnaBZ0AhQxWtctnzzAWB3zRDG1ufTrbV2MmfQWZwDfuD2l1yc9n1Jz3hpgJNtinVQasM9h2gHoS202NrMGTA5um/uwBiDxTcv55kT3d5WayDWAtnVdoCRrIIVnOwCTPYeLPGLdepDXgCDFyZjUawDWmIiPa14Y1GzJssp5RVlvJoqyqTVI25P7QOWjTfKA1wB0pFUbWF4DyFJukpm87jSWRhRburCUM9KVWrKxuMWXSNeoeh9Yu13Uarx7Sz+mcpYl9w1vXewemfGQv9DwHIokvC79BuXDKQKlYMpxkRs3uKZrxyxf37jBRTOL81mhyFmda4DJIlsD6D5skVXtANKXdp3i6ys62NH9XOf2YgBlXm4JNO0AMj2fK6eetJmJqvpz6vmLAbjobJ1Z10Dr4TmZ/GkAc74i6b5rAKlwzoCOATF3AGmVzoCTQ6TeANKMnQGNxa4UNawBqJFle4HWgEJ3Otuw87JZyIzbA04ZEPwFHUB8KVtPxhowOHXEuBquGhGfkdN7AJ90GTcHmOzNdwyQcwjW0HTRvEtNpkQVj/4APmnj0tgD+D6YGPcewPdBdwl7Z3jnQGlp+6SF+KIB9eaUsi46GPBfuKJ8DvevqE6JaUkXHV3Ruxeo6AUKbpxQazRAdikacHfRzgUKrujdASZLZMkHSgPduoaIrEibEd8MyjgdEEhRbwDKaR0QaALeANQ1ik0GjbQZqX6I9KViw8eRRlZsffU1MeDw3G/hxQDMcCuWGY+ELQnUEbI1Y+J8xcZMBidBrQGGWrd2H2Sli8GBxCdpUIPrqpYNZHyVgwuttzNHXI8Uid2VB2KWUWm5tllaliLmng4bCxns967JJmuPzt0qqvyFCxnZdosbEz+hF64lG+/dPgH2OpgEku11oAykZiseI79Gs3d6dsxhaFXcRZ2LcnUNF4ZEWrZVaztsw66WSwZQX4Y6xb90oYK1CxnNSbO/dVcOioOWyLs2a+2uAdSrYOdOiq8Sm7eI6rCjZ5wda5STyAXcPRcwiV3J934RAXyL9RkjaP2JgBsXWTU677OtWdpHHXgRhPrQeZ+t+2eHB1g1tt7Nk/12ItlnYECIg2kWzIxc52Ds45m5lEFKARavTNyrylhNY3Axw7RW0+L31F2gSrXElijkPx0yIOg3VC1pXCNKcDM3aLtOqKNLtW7pPjkF6rKXegdGKSdIarzOC1WB9b1sgv6cpdq7zcpqDeOca4km7XFLYg6BG/JeygFpJ5c2zmtYCTGkM1zmUNMiZhv3P3HRU3JhMzfv2VLW3GnUNaYUk13oadmM9/WxdXT1z2lF4okcY0qrzIbGxlqvUX2esrt8vKisBUN3U5ozcXO1xUGlGQCR0MzaXIqS9aY0U0x4XmNq8RYpSUOanXBy607mKgZPQe+dLHYnOW4UTRYmfWdIMStnHuxkOjt/SubayXqSvEnJel2T6TCZUQLqbFzsZEabHErNES/xF6RHcpSPd5IxqVmjl+xJWvxOJpXkZcI7yaqId5Jhcf4iWjmZeifzSnI3SbFsc9ESumt60uIA0kvP6STzsmYgxdAkwXaytuwnJWufmlyJyenSjC1IlpfmIlw8vZPl7f6QIrST8QXPzQuL3R8Km51O8ik1B9rFCvb+kn7cnPtI8noXWwiedNfLKQblYpRpz5fk78IL/8HmYd3qA5zM204tjiSfsVd8g804neIexDvFQwFe+E+A12I7wjvFVRR58Iq3EO8Uh+F8nOIzxDvFbXi+EptJ6JDZxXn2/iJe/JMhvgh9koNoajEQFmtO5VdYPDpsXkBib+mwdmHCgOBuNmzlI/rouvW7s9t9F79afZtiE1pcm7mZsRTvhvgi8yG8FB+HeG2mwnhzXgG+3pyPGrQRPsl86LyK2i+U5lvFU5gw/lw9fkL06RTr4310mgEg3mk2gMXcTjMDzItzmiVg5NlpxoD4ofoAzmc48gX0vSLNrbkMYjcPk2Ju8gM7zTnQheo0/wgiZtJcJMCL/obzd5qjBHhpvoJ4p7lLgJfzDfDi30B8vbneqvptgBf7K8jZFHuTamJ2ZONOMXdxiokxNddphhQkeEqzAcQ7zZwCvBb3M178LQFe/WPczEyac9B+5mmTIbi5TpZmyZx3kKdNpWZ7Jzv8HDO6kpVHLK+L08wSA29JmwUW4udOczvyl3rN8zBx3GnOh3in+V+Al+aCiHeaFwZ4aY6I++M0Xwzwel50vk7zyAAvzSlxPk7zS8Q7zTUDvNBzgJfmoIh3mo/i+TrNTfH7TvPUAC/NWRHvNH8N8NJcNsArvbF+K81xA7yeL+cXSXNfxDvNgxHvNCeOHi+y9h3tp9dcOcArPZD/wWkOHeCl+XSAl+bWiHeaZwd4ac4d4JUeCN8dfs71YdKsPcBL/BHpR/y3mR/Xcpq74+NdTvN4itd4zemppK9ObfYf4IWfUDqU1klyM90myeDczLg5zSQofuE9bkDxce/xBMQ7jzNQfGThtXkz4+VxCSyobPp4SICX+4j4Ux9/oPhO6zYLl5Nw22VL4TPmJ7Sh8hEflxg2nyF4vMKRvxgPkmYemZuBTdWfyd45kz7Ggo9xJdUPKTtxP54jj6tQPNF5nIea53mP/yDeeVwowN+bj/M4Ej7O5jzeEuC74IEe9mNQgv//42aMp/38/+Nm/9vHzZraO+RP3vdF6Jk70sjjhBQf348fWn6IeHkcNbhfzoPkmPc/bf5e+PhkFvoked3Vf0Lxmh2vt/RDJY87nm6baVE8cT/+afMDKaGzFWufFqyHb9n6k7kZWEtWP+RX1eu08WV+Vn0/7mq/T++qV2kWGDyW2/XxYcqv2/aXnX+B/d+P69rzoiz8ZW/ee0y4OvPn+KM+tkzzz5afFLanxH4p0WM+3Z4X6fPbX2TnQ51tvMelsYjNebwa8c7j2AFeHt8OiurkcW/EO4+HB0Ws8jg54p3HzwO8PK6OeOfxdsJ7j8Mj3nl8HvHO4/YBvtzZn9ytvhTgz3v0nNs9+lz4W+eVJV4Q4Iu1pwK8VCWF+HyLHpLVH5ifTBvOLVxe4MyGss9tMJGZp9j6zJslFbJwKrDNnC/oCTytos21vM3GyQo2ua3WTVc4zKdVF5TFL22GWImRjg2sI4lKyyqYRBRCuEwGFAx5bCmE31E3k0q3BESQtJMsKb/StzVjgzcPDqcqk2HNXZaasQpVNjJjXqIcUwQXK46qdJyg1X8EX//49Ydvn77/56fPP//827evX/788eXvf/ry9eOfvn756y8/Pv3ot08//Ppx/e9f);lineShape=1;strokeColor=#FFFFFF;" vertex="1" parent="1">
          <mxGeometry x="853.8029405799107" y="-706.9010568325133" width="2.8219548631573286" height="7.699146613329291" as="geometry" />
        </mxCell>
        <mxCell id="xg1OOrG9r_t1N4pU3jfp-100" value="" style="shape=stencil(7VrLcls3DP0abTEkwOc6Tf8jM3FqTV0747ivvy9ZldIlQB02q05nvJOueEQABA4evCf58O3x09eHE7tvb68vPz/8fv789niSH07M5+fHh9fzW/t0ko8n+fDl5fXhp9eXX58/X75//dRX9k+/vPzW/+GPC46FQuwodn/+84SJ099PfrwAns7PR0AgXzXAZQCIxGUGeAoMAJmy2sGNPZcAaTqECeArObkPCJ5yngGFGIgUvRapA9x9QGIKZocCdsiektM6BA8AlTxrQAQilUjRGyuBk66OkmgdAtihBopKpEwpAEAmFg3wSKRmxNlbfaIaAaAOqx8ABXhrByQDKBBQnREJOF8HBK20Q2ZtgGysBFyjA6oGMDgH79yQ4IAQoPUaEYGDL4VK6KxXapeNnaIG1I2dvAEAounOYaLabdzPhBAiyxrJeQ1AvFFEK93IksEOqZCf3a/RcQJHHSrxLFIjfA9EEh7EddgB0XGn96CVRq7hvWGmSAUcXBop7bpeBt2uVSCnfLXtCIzqSdT/O+gXTluoQOp2I9zHcsySbrjYbTnyubZ8tn7jL/zvrJYjBzU8keDRLpZjy6hwSSSA6Nzww9tylMXdyI+35diQfpY9UgWBZbw+QrZyuu7CLu90ao0jT91bXvRy4MBMMjuBkADZC8ksjINJuKcSp9ajDMmGl3k46ZrSmrTz+sZxQNuYKMzyt4hHgEayagOJMGXnokk2NN5HFo2aQpKjiMoOSyI8WG4NEO2fJZBDlVATaQ6XWmGi6ICiAYIy/AqA6GEpEkp2HcAaUFAJG0eddADAijTq0DnUUvcQbJSAZUrUztQB+CB81oCMd1C+0e262UE0ICB3XQFQDdsBxkqwvYmD+6+AsrMSRw0oWAcxO8AKNuo6Yr+DYoG9Dqrd31spGNfYnION0c1J2x02vhSM8228VaoGbKwkZoddxM1K/5ugNv694Q1v7LphJm+OesN93wng0RkfMgTK68X0yllgRVUM9SUPfaPlUTeL1NoX1I23TK12kATnXzFp32jFBhpn9WJDE/4IwrvVzHwOMnzlbrWkesbB//eKMVMsofmdjrYApX/vVcDy917lP+hVWl2sXSyg4YLOkAXO/0STZo9usD7pmsAznPP2yYOaLQRKwJjd+AqQYcQK65rXVxgmfSI069D2RAfWZ06iAegM+lRLtEhw0BYX48iEZ3/vg+H3wfD/ZzBcFjvAq5KsuxV/TfxrQKBoprAF6eDG5c4hSFHM9RuoOeZuVL6u5swdVwNkVP55iubqMKHyz9zTMZ7cLm4CcXvT7xqLAYCD67eZRiRkpZbPipnoBxDVbNqbVuTBlBLG7egVIKOlWgNEN4HtCarb2Vzh7gGqp2tPIipjGyBqQMA6iDdKo3NoZboRCbFr/zlrAJqwLQAMG9kOKBqQUe9hdWB4U8Kmu+FrSN0FJA1AvNSPyRkAFuk7X2nYA9qH2xsUX85PT5cXMI6/6zcu2qPL2xry8S8=);lineShape=1;strokeColor=#FFFFFF;" vertex="1" parent="1">
          <mxGeometry x="853.3438374832713" y="-705.9256883391035" width="2.2186236067906977" height="0.6446876286396283" as="geometry" />
        </mxCell>
        <mxCell id="xg1OOrG9r_t1N4pU3jfp-101" value="" style="shape=stencil(lVhbctswDDyNfjEkwOd3mt4jM3FqT10747iv2xesRrIJVav6T5Z3QbwBapCnj/3L+25g93G9nL/ufh5er/tBPg3Mh9N+dzlc9WmQ50Ge3s6X3ZfL+fvpdfz9/tKQ7enb+UeT8GvkSSIXG4vd7/FNrVTL3zefR8LxcLonBIrVEpIDBCZJPaFQCOsEjlQNQYgBwWcS1xFKJOfXCYV87vBZjQJ4R9l3+MSUgI8cuV6f6CkAvGrb6xMclQwMDuT7GIijiF2ae41Ux4qCliePTwQvFGSdEPIkb/YpFWRymSI020wOyE8a49IrRInX8TlS6vPakVSQEhrRZPAOOKhoDgWD90B+ZeJi8DkBfCROxt4I9Knqn14fPTACvFY59ykE43XrCjd8RSnqFkWgAUYG10neDe838FY+ahKKLxYvoOZbV7P6CJYfxeJxAMJCH1AAijcJpPaCADT8wj8ogSr5aP3/IB713IY3PYsqxrNNuIL9I1Z+xgkdbQFkHC/TIAQXcKW80Ac1iEU+q70bBZytP9GQ/GdBYofWavB+A28LgEGHbgUZLB47KNuJsVWQtmC2CtLqsyFf+DH9eYHH/nkMn218mTLCRzuBGU48nWC+j6+fKnR1Qvb6OKhPmdW94SPIN53wxRs8aii6QSQ7IT3QRzcUsQMATeBQpvSat9BpLV1bsXKP97jDcZoa/myAx3txmOTdrYkFmWxbVvDkwAHzCnO/56KlgEIfYd2jEb5Y/XVPZ+AhvQiYFlQCJVCT6tJobj8MN2+9zJimpWVXwQl6XSp9F9K6RnuQXsjMItcaEwiaEoIsCKDRKSE6S0CZ3QhpQcA2pMUJCQSuEdgSMlZpeUJGgVMbsiUUkNuN4C0BXpmSnR+NgOMgj12907TSzx3D4VuKMswt5T8YD34P2Cbow+3zw9vheBy/Xtz/bz9X6KvxU4c8/wE=);lineShape=1;strokeColor=#FFFFFF;" vertex="1" parent="1">
          <mxGeometry x="854.2602731599279" y="-706.1844811725282" width="1.0369592192106027" height="1.4677373420207374" as="geometry" />
        </mxCell>
        <mxCell id="xg1OOrG9r_t1N4pU3jfp-102" value="" style="shape=stencil(7VnJUhwxDP2auaosy/JyTsh/UAUJUyGQArL9feRM9dCWe16HWw65NYOeLUtPi+WDvHu+u/56e4jh+eXp8fPtj+PNy91B3h9iPD7c3T4dX+zrIFcHeffx8en209Pjt4eb099fr7tk//ry+L2v8POEa41q6KgYfp1+4UYt/vnlwwlwf3xYAwrl5AFcASBRayOgUi4AECiFCZAuA6qQ5gEQAwnYoWQKcQQIVb0MyJVUR0ClmAGAqfIAkEiFLwM0U3IApQbMqkw6WkkqJXDopJRHQGKKAGDrldHTKUHHCVOuI6AurtwERCUeD62RArCS+dUdWhOkBpdF4zMgUwT0ZqPG6GktFIAfWCkUD8hoh0RpJJ9WYgQQauwBBZjVAC6AtJEAs3KkJh5QgacNoCM1coCeNkAMHlAFAJiaAxhb0RksHtgDGtrhrMAZIMQgps0k7swKqVQ9Vy2LCGBS9icukRLQx4LHyReYxIRkzMOWN1FKMvONWbViFgVqo30s8zPQJyzWOMuXJY9fkh8dbLWrAJIGis3LV5ArwpINV/INnjemSR7q70Kgyzckz6P9OQQKIMjCkkb+eoMwGQgfwKXGhlsFk5fJAZAQYXYwCJizNdby0D6zfIYOnvVRkFHSRAhL9cD+lhRlVKh3MmCDvsNI0VwWG29rFHyOsC4AmUiVdAzKiMtfmVkaF1ptZ8XkWRqWZuyifPHy4AQmH6f1gZPrZFOTB0Fg8s5pZgHUnJq8OPn4RnkBQbMlj6rGlv4o63b7ZCcPm/EN++cdPnj7I4Zu8Qc1pSYf/Poo6Lt88vYBIdblvT4J83mSR1W1y0/8wfYJ3l+M12fPh4D9y+rld+JxWn9Hflp/h2/tbecVb/8de87xuLP+FI+YP66t2eVbrE4eXTe6vNdnJ17eJG8FwOUTKwAFKGQlpowbWIlBGcKKmMtAKS97XiqTyXXqtgO6CsTl5nwuxMZyWOldK90Uku5/6/q/df2nW9ewNHmru5hAeTcEbHiAxn4MUyv0l/jBkHXGAvyV/F3e7sIJ2Cd7/QtDfaoPGMsoKCCbb6NzwkMhS/qus4/47sCTRrvzkTJNYFBjydFzKAd42ejXGTc6a7B09EJRPACNkln8oRWPkg1QsgcEdOipO9AC22meptuaqaEdlNo0kYSjs0LqdtBlGn1pSOoHjLLseWkM61peZRj9fdA7UiMVWPOl+vhPAqfbdk3VMaCtC1AQD6ZxGgFiKiFA9n2aKOwqLL7KaFaJMB5y9V2FNTqK7tLqJ249D6K7n3grsUUcAGw8rRTYKFhf424rHQAO3c693BlQ4X3otbCuzoAu1B3QJgB6T2p+um2AiFVyfugA9MTVFjKvAIKyRpgKuiESShubCJQGXjuoNTmwYedTFOTrtmS6FaCCEHptutYA7Lo6qQT5Og3puWG+vvn9cx9gH6/PrR+P9/en19r1//3zrP10etqVq98=);lineShape=1;strokeColor=#FFFFFF;" vertex="1" parent="1">
          <mxGeometry x="853.1782642848864" y="-704.5682683144762" width="2.4755051013050897" height="1.1180324028372373" as="geometry" />
        </mxCell>
        <mxCell id="xg1OOrG9r_t1N4pU3jfp-103" value="" style="shape=stencil(lZbdUttADIWfxrdnpNX+XlN4D2YIjYc0YUKg5e3R1mOIlkSd3vnv88pHR8c7yc3L9v55MwV6OR0PT5vf88NpO8mPKYR5v90c55MeTXI7yc3j4bj5eTy87h+W8+f7/mQ/+nV462/4s3CNUEKnAr0vV2JCan+v3C3Abt6fAxmlGCAJWnWAhsoGyIKaXSCJAUoEeyUltGyAqis4QG2IFmiMFh1AVbIltYLE14FCyFYlJgLRdSITJNolGtiRKRGq7ZzqQE4jooBtI2oFO4BUkAVK84EMsrrmBhIHKGMjUkV1VIphXCGqW5zO6W1pFggITklaQK4G0CKzs0KuaMkCGSE53lARrZlU6OB8dG+TXUFbGfyBoGFG6V8zykPjCLFcB87c/OkNWoPh8hI6MBbQofJa3UdysGtbX3FZJh36YUg1GJySeqzYkr6i53KrBeXbjFYnBjQa6wBofHozmhCHoVZZHTN1QP4HkDima09Dx0whrm7+BBKyE0yc1rQ+i43ofHRBtW4tDHHaEMYwzrym7cXn1ar2AxKvKXLteWuLSODg1ZNsYgRfUc0TWz831xQcR4GYkZweBxmBBHEmRz0x/Bm0AY6garpBofHfpgdfO47HebdbNizn98cdil5adjdy+wE=);lineShape=1;strokeColor=#FFFFFF;" vertex="1" parent="1">
          <mxGeometry x="919.2575426657219" y="-703.6672238118666" width="0.11482295617526656" height="0.11517519459385397" as="geometry" />
        </mxCell>
        <mxCell id="xg1OOrG9r_t1N4pU3jfp-104" value="" style="shape=stencil(7b3LribLkZ35NJwmwu8eY3XrPQoolkioulhgUd3S23d4E/tkHluW3/oDLYA1yNm5xNp/uIW7222Z2R/af/mPP/3Tv//xD/X6j7/99S///Y//z5//+W9/+kP7P/5Q65//7U9//Ouf//b80x/a//mH9l/+5S9//eN/++tf/se//fPf//3f/+k8ef7p//rL/33+wv/8O+5e39Y4qHr9r7//l3J9G/P/+y//9e+Af/3zv/0e0LsAOgDmt3tHQB8I6FcE1BsA49uaEXDRGsa38vs13N92gef7t3mH58fG51v8+43ep3+7dni+0PPt2/79++wvGf/s+VXD87vh8yP+/UXyafGL7W+DvnD7Vnt4vtEWat/KCs9Xfp9SwvMXyad+u3+/3vVtL3x+x+cnvX/9+nPfn+/m+Rmer+b5EZ6/SD716/N/PT+/boGfPl/C86Pi82uF59vFz8f3Kfz8/P15Gd9u83wLzy9+fqzwvFnvKOF53M/16wL8/nyhC65+a3d4/uLv1X6/3v7t5v1QV3h+8XkpIzyPOqN+ve735xvdP8/z8f0Ln8fr9/fbbxfkx89Pls9VwvPm+8rzqI/k+edAmPdv4fnB+7nU8Hzl/VPj84Wf7/F5c/+MYEN8u1me4bwXez/X+DzLJ9z/he/DFu2H4vRjOF/l26T3f/Rpi8/z+4woH/N8NPrc8/er93nsmShP83yN8jTPN5EnPz/jfkB93aP+Nc8/1/H17nnZP+b5KvLk56ON7p4fIk9+PtgD5vkZ79vy9UF+9nyN8kf9MvW8DDqP82u7fH++k76b33Y8X+jBrHjflq8L8mfPt/j+nd5/fZkjPzxP99uK/ot9fkf5oL5eX9fZ9+fRYUvev/L7tPg+aP+srz/39fz1dYH97Pmgfy/2j2a0n68vB+tnz6/4Pmb/jxmeR39zRn/z+jrQP3u+xPfB/T++1PP359H+GdH+v74+4E/vnzu+D8lnRHv4YvtnRP/RxDgec7m+kWeP9ol9vsf9g/5yj/aYiaA8+jHu50n7uUf//WL7/zH34/uj/fbIJ97nF90P/ctc++F+4PcX+6Txfr5Ev/B+K2JfcXxJ9PWi/TAk4vWlcH56Xn7/Pr85BB+ex8rxpRHjG/VLIf/0Pqnh+c73Z43PmxBiu8LzaO/Nr8///fnN922f4XmMp83ovzT2T+eXefSh/zhjPORxCOi8zOjvGH92frtXeB79oxX1xWPg0/uveF46x+uWxh+MfRXufxOvEHtj8P5f8b4y8Z8Vz9f4MqA+tK9+O0A/e/6O8TdjjwV9PXn/JM+j/sqef/n30f5Z8T6f7F8k8sH7eX2FC394nvdPsP/nl0H98ffFeOPSeKz7+7Jefn7d8Xn+vhK/xft2xQTMZHsje57vhxnlY85jOO/T+VMtyqfx8yXuB7xPZrQnx9cF/FP9EuO9GI/67ed/uK/YHl7xfTAe+PzvGG9He6NH+6HzfSjxmc7+VP/6nN+fx/ukx/fv1t6O8We0f3qMn3TePz3eJ919r3fx+fEVjvxB37G9EfT7Y5Dy/uyST2F7acbzctF6Z8yXPS9o/PGYT7n5PEr+CO/n+eUe/yAfY9/G84vx8xnzlZ39qRFT6p3t26H7De29EeXfOR8xYry0O39nx3zQMvFGed6sN74P6sdkvagfE3kaf/CO9rOJrwZ90VmfSnzGPy/yMc/Lek28V9bL+/+K57ew/1Lj/XbTfpjxfl6s71Z8n835phXzv8UEvMRgLSbCvaOGL5VVzI4hoAeAZ2x/UVR+ANy0hhRAUkoBdCwV0DivuCVO3NhQ2TFwegBGSlUARkpFAPylY+zIA9ZbgEqJ1xDTc1ZKwX7y36GqWNkCjxneyiphxZDQA6jvcj6FlaAmocqXW/FTrT8iANMgM6b9HwDyiGaMexcTKJzRsH4AaCnM6Ek8H864fjEV2F2uKO4lo8yX3BqdtYMyGofbfIG+U4w/lAJYPyQA1kDJGlhKcbcanbsix+MAzKKLADiKE7zwDwBLACZuKGJ1v6BS4kVH/TBcaC/qh8Hct/X1Aj9ubz7TMTnSnbcTspUPwISfh5w44x/FfIdxYMShKibCqgwCQ6Gc8uG2y+nGE3dbIzQkJWxWN0S9TlrauLW3/ILJM1yyBpPImBGAt/cU5s12WjSEvg6A91ICMOSPKwJQofwWnPwRYKQki0b/UL70AfD2jgSW7TyyyNDwgP0SEPeSXcNSsbKUlkqJD1AC4C+9egSYvbTlEjAa6NJbw1BfAjX04ljwitvbk4+ClE622mRDpgB4DSGccfL5Jp/T46KR0KX+9O0yRlvOA/qikqJx50FyNAdgXBoBmKxa9IG2S9vpGjAOvmR7b1YoShzbX1SRz7+DSe1Et8wCbrmXHEDFarKtKtZX29t/h1vFahK0CjAZWhErhtC3UGhuG8ES8weLQna0vQ/LiO6lLSwOQwPakcbheKY7KvYD4AiWAvAS2GLzFfan01/gYE4C4LBdMH8OgBcdLDKnH7ZYxoZPv6PDcQB0prMv7QAiJfdKonbNortIyYi1i5TMh9NfQC26Y9ThHCATDV0RUFms0ZopNjAot4b5DlV8IIycaET35uSAxow3x/m2hB4Xp6u3BEIWW5UipWIKADXIPF0oPgEYsRYBGLFWAZjN1wVggv1TAOY7rLe/oFJiQIyR2UXHKNx0ejrG+abVokGsi5P1KYANrCkHCOk5Sv+0/OHgvB5CIb1Siwm/ulxFaQC0iymgJWrRZq7KEv24ZkjQJardZrysErOiB0BHtES1ewC0+YrwZD2gvX0lFatZ9FuxdhUrf7igp5tJ62SAQkc0BbBYdQ2oUEo0Q5th+NcY/TktCQzFKpw4m8OPNbLVkVpH8IFuZlmpFt18kalS3O6qjEpx2Qx4FQDf3lEpesB4C1hv1yDGiQOoWI3dKi6++XBR7W6X0E4ARu3qKxm1qwCW0iW7FZuMSNLl0aKYaWoxiHDaGvBFFlz8oxThO+wdeaLtt8reHLBiurkxU/0BBNOhLUxNPYBwphv36thSu9AWFi8cwBQAfLi9Iv3iA0B7CyhvASpWXnRRsfJ3iHtpoQmXA2C3pgAKF+UA3nwJgKUUsjRt8nfYMUB7DhDdfFe87psJSBUJ9psEnvRaeUxp07wjBnNMNYN0Z3HlDFXiS6Y+pEoEyxRAVImReUB9C+hvAePloqd+Bxbr1O9gtoZ8B9OHJwHQ9k4BprOIrGGxlAJV/gFgb50STQdHPr1isc4DwCCznOm6WEqXlF8uDgxeElRbbC9dEqucXFFwxcxrHVwCe8Wky+Hksw8UEhau6VKJ5LnDymcXP8YqDa29iEVm6kDEn67debvRLWtuDSG99gAw3lpjq5famPtTZdG2OVJIEdbKya+WZAeQvi3tZI5lTIsekY19clmmYOD3J+7xRU3FTKTc3q5pYqSg3xzXELLQoS4YroOsAUmM0iXjAJhCErPHHrDeAmTRZg0xe3zzbpVSvwPgLx2zxze7ZSmArvsUYDp2KuDtojGCNRO+hqE+64fDkvIRW3q5HjAtZsBPkTsHBgOT+XSxZIcjWGSNCyZ2jw748XbpF5q4ZRuzx7uKO3B/hZ1/CugCgO9wAFUAsFt3jTEyD4geuwfst4D5ctH1rViji88dZnMAeYpVYgI3ck7yX+C9lADeSgm3t7QxfACUeT3nQQIhdC/tEWPGrWGnha1pf0MxlISF643RxI8zSfkuzf1uV00audL3V0zrZ4AhsUr0gaS/k+OGjoQQazpIRWKyCWMPoasutiqHiHVxHkiK5gvrh1NFLlRPdMuaUD2bc8CXeIqVG73GI3qxVamdVSs7fiXaGq3xhyvRImudM+AlGidtMD2vRNPhAezXAPNKWwBGSksAfM2ECt9mWiQXsTWGi2vED2cSeNl3cIDr5SvFdIJd9H4r1i1ixTBFCuCtkQA4glXkw2FZSZMjartVaFIexSq1NC4ZvCMr/jSIoPNwR0O3dvay7pg4qo293VsCIabA9JaeaZUjJ3fc3rVyNPQWGn3l6/6WGJkHjLeA+RagYjWLVrHyd0gAoLLKdcVuBbViicVPELBff4IwgpJlYCXuncTVTJOD+LFtV5m4wxef0iY5i5vNPr2PC9cFXqJTTN34FYssWmNb94qtKA+AA9MhfH8AHL4PzbY+AMy3gP4WIEaZW/RbsSYAkxXR70CWaArgrZEA6MRla8Co1yXsheZ4W6FPeDO3hppMlZkwVXarJYXEaMvlesdHBsbFhVNNAkCme22LhSIfAPpbwHwLWG+lJNQZzNa2SJI6AL6MEwDtpQxgphwkACMlWTQmzDKxmmxtpIdWZujpZczM4b2FRLvQFNgzrqFzM/w9pBkd6+kt3ZM7hzaeXwhJ8M79jg6rqkcAeQT7loZ9i2NSQkDt040siS25BuuHFnN43bTYkCFUHwBuAfCZDl7NB4D68pXiXvKALgC+NULEqJt+Fi1GH7vpmJEC+EsnADOeTNfwVkpoCWTfAW0NYfP0wZZxdoAwjnDFMo7OrNvnTIdgYt8cvr+jVXkA5heqAOiqvKMJ5wEhCf4BQK5Ks4YQmPZSil96I89939HLOgC6vVMApYJSAHFiU4ARqy7aSEnEikV4l4wgY3qo0n+6HdIWOIDddMFvEqO92cXvUpWx+ZrpMa7WDDOsxPPQuG5870j/6RdvDVn0IyW6l/Yls+y4efuSMo4+8TssqX3vEz3FA1gCALEuCbV8AOhvAfXtGooAYPMt6aPwAOg8PIDYBHqiFs0BcC/lANhLOcCIVRdtpCRiJXsp/XAUyX62dwjmPO6AOUDR0G34SlsugcdDQdp6FT19YUZhNyHGc9+pLaZ0uzHplzBhPKC+BQjdwQGE7mAWrbQTSo1uGTPYbqy02k2uyottvhRAij0FsH5IAEasSwCvxHoAJCWZ9vsAKOm3S2RK9sp8oSs2XujMHH4uAdVAlGFbkmHrG4/oAahFRldl9guodrcMeWWrcu1YAWrs1rViDuUDgFj3DiBmKK5BLQEjJWku1LlYPgWQZZxooI1k5vwXjJQUYBatu5U23y3+NLd22CX2UeidY2RdNh/PlD1xPrm9TXlZTLps5CYf21tCj/hKUjLaFqYT1Lr3gDDI4ABo0Vsoff4X1KUxgPFSSsFeagtDLQeg34FJgwmAv3QCoN2aAoyUZNEY0c3EiiduSiL1xotsd3HAKzocjxbdEoWj/pBLeiB35rmvIXMHmIu5ZNDL4AYYB7AEQJdxl9EnBVO1q0cpfQCobwEiJbOGkIT0UloqVtJAKYA0UJeJboX96RRAnmL2ShTMyQFGSiJW9KenmKFMZn7UbkjVdi6R21Kf2TlFuH8bRPTDNYN141MIHjwLaEuV0gHQZSw9X9vAXNYBKBfTAISW6ABKfGRAQq3kRd9vxZqwPckSUAAPicoBpFBSAO+lBPBOSpOd1ykBWq6I3i2qrMZ9Otcto9Uqxr0fHRfIm30ibX3VaIY+WhQBEoo3V+W8o906KsbI5h1rfUdFF3/e8koe0CKAAoMHUN/+wvUKsKO366S0Y9z7AGAvTYk6HABcMzkATlwOgDOdAAqGvJJFF7yXErEWPHFTuA7HSATLeEkfts506aPYJSVC7KIlLfp6ce5xbD7H7bHPvRSuStMQpgtpa7If16VUcToaTHTAPWC/BdwvAV30g1l0FOtk51Umy7ffDKKfAkQDofOaAvhLJwAOtSRrMGIVKaHzmn0Hqiw50Z93/Y60wocrQJc0HO4Nw0VLDlDnruOP2g356dExbDel09u8sGZi7piUn51jlVJCPXlw8BIu3JzcgumKSZfnlchp2jLKdXJP8C2zjIepk70jJ3FYzklUWdwufkvtwDAN6a8Y3PwA0N4C+ps1KF9jbO7NfonNt7kO6op26zA98jMA9s5KAcxZTwBGSrJopA1nYkXacPbhKKi2d2TFT+6Mu6VTw6ysgaSlwJzY+XBJQ/rjgtDdKm7ZaphT1MDg4j5sa8SE9vf7/KeA/RYwBUD6YcSI7geA9vaV6lspqVhJoYzYnWvxdMEcQFsjBXDMOAEYsSrgrZQwVinjrB8fnjIcJ84XTpxtvBD0w+xMk9QJ2zfbfDtSDIcx4YSoP0z0R6ZSDBNf2tFp+gBQBMBJl0AA/AAgUnKA+XYNKlayZrbMXp/MCEkB3BQz8JcGVxPnv8DZMgWQZZxKCTvjykjFsdhurVHtPgcITekdXZrJRMznUgm2xhzs0pTIkJoLqc/zjsGcyVnLKfXKk7OW847Egg8A9S2gvAVcLxcdcoqTk8E5gCNYW78DxflSAGzvHECuZbYGipxMKcefzERIvwPVli1pu/mcByRtSaeGx7WkRSfJ4IkOx5IRcif0SHarnLhuqtdKUnGECYuS1DSRVblLNKUPgPR09kpkVW65lw6Abu+S1AM5gNQOOIBUr7k1SG2ZkVJ7+x1ibnegl7WLJI4Gx2ZSABOT9ZWQQpItGtl2t9Rw8Hid58QFl+Ykvzh2H9ZwEkd0pmtMyo/Gt0aN4dMDgL10AFUAJCVp4eoBIVD+AWC9XEMI9nspNRUrpzlDzesDIIWSA2gvpQDaSynAiFUWTSXdqVjpuj9xkvBK3AXnRE7Cl76YBiNTvLrJDhQpVm7YCXQ30UCVL+MmVSKcFz0A+QX0RZswaLmvw5bZHR8ApC7LAYSe59Zwv5KSJF0656dzgCH1KoDzcQpAxy8FvJUS1TRt6Vt7AOwpRgDffKcCLxygxXE+GaM9Ch7RJePXBreLP7Z3UFk32q1zi6dYcA0H0AVguA5NAJxei56iB1wvAdFp8gBJfplFB2qbF+vW78A5xS3fgSK6OYC3RgJgGoyugSK6qZSIfXooJJJ5pavyUEjkAFHUIaGrVs4e7/hKH3iKUtOEFRYSM+7c7Ei5cA8AM69NaDCVM68tTpT+ACBK0QHkujeAIQrFLHqIrUFf+gCqACjd3GJ/yM4DGg5AvwMXNioA+2lnr4RNdrJFY+f0TKyUqt1VvjQ3ut3S5q1z3PtUBoc12NqyyEnk4v01Y6hl8IT1NaKOewB0ptdIqhOIyXwATQDkNMkoDsPnO4BLAJwMVqK+A8yXrxRar/hFL5USi3WplOAA5QDmGSsAjcQUYKSkALNokRKGKWbMvI6CV+VaQuq9uERJ+st3HuuyxTI+fU64JCPStwfTL1oMIjyKnapEtiSOHoBzmpYAmM8Xu5BYQPhwHwDqW4C0aTCLLiJWTBF26evQ2VNMAczcjBV4nak8KYC3hr4SURdSKVUjJfkOeICyrdF5FMeSmDG5A88RDca66Z63tujp1wqlI8trCevx5Ke5Pu6SHDuWinWp4eBKF003HwBnyzSI4ADCpnCA+hYgjBATPo3MTSNWif4MHtqYA0hlpQDSoimATIcU8FZKxNx8vkOwvcfAEPCSYePDkLak8N2UlWyZkPgodmzzVoXvzb28tjRL7abYoCUXmXH8osMxnWsZexd5gPhAxttdsmj3C9L8yyw6dledTBBvMSnfzczqFMAfLvabYZ5A+gvGPU4ALFaVEhGTz3eQ1lx0ke0qi154Ge9LWgZyOyXt5TWYmLyG0LcHJ/CkpezgM33ycUGhmKIPGY5mePdLhqN9AFDePac5Q2Dwg1/QYgMDqG+l9Kok4wD0O3AiVQF03ecAUuwpwHwHWTRGfzKxYnxJ5m4PQ6lSxc4Tf9aIaZ3R+MPtSK5+HHC8BO64BkfwuGOxwQGQWJVzcnN6TUu6PaC/BYy3AK0BN4t+K9bYlPB21LYEwM0sFICV8imANl+2aDxxmVixH9ktzuvNruUUznrlcoYq1c3cmXRKk5154ZmeYrfOzrndK4r1+c0KX/oU6P3+AM2N1v24YxTOA4LDcQDw4YZm/DxgvgX0t2toAoBLYNyRR3YAsDWGVMofAOzWFEBkoRwA2ztdA8XIcoCRkoiV4nzziqGWyZUus8bastmRBjNHjM08v0kX2dxihhoH/Ioqa/ArLZlfeHhkzLaLFRaVuw1XaZzFdKQD0KYibP7E5l8WcMtl7ADioTiAtC0xiw40mANg2ztaZMzBOoBXvVpSAPZkTgGkp1OAkZIsGltzZd8Bd6uMITsBKTrTM6kBx04qMlx5VkyvDekhNTd+h8c0Dw74c8rJpRkSWV8VyUKjxvkPi5mbQ/qRrYqG7pBr5gPAeAvob9fQXkppqljpw2WASmq3RqvyAPhLJwBSu+krGbEqwEipCoC3d7iMn0NLDvjjDAeu9OR0wiyx4HpyFn9qAZGpmlpSdtiRWDC3MMq761IVGeU8uVW7kBjTYW4pNrCAWM7gAWrN8BpiSYaVUjDWB6eb55YqEU435wBmbiYA3hoJwIhVF/1WrNhIbkkSkmuaptDoh/WyQsJiVvZFZdL9cwlQTZNeZPNG8ty44iVw1C69kjgcTgNJ2xKn46RtyfdSlp8CVCkagCpFA1ClaNbwytbo0pXH6OkufX8W76UcAFsjB8B5yAEg1nTR1ewltQToPFxiYBW8ZpIDxN3oh/D5Zkci5tAOTzfffFXoF1zN+bzAFIcDq8yH5IHYB3oA0cXnSpc5XhY2zhET2q6F5pByNw9QP868kgYRjJTExUctOsQ4qaxFhxgn7FrmANKiGQC1aLYGOtOplLD+oUnkhOsU55W0/CCG1KE3SUkGBZkP0TkAJiaO+or56ccdIGO9yxTW1dASOIApANJAQ1zLhgm8LsbJB4DyFnC9BIR8nF/0ULHC9j4AESsljnIA7KUcAJdADjBSkkWjcZKJlWIC38ea/WjN0KKlgOixW+lu/X65/6B2aWs8Zzr6ojde9+MWD2Vwg5qS1E/TK80iLfgrdxsu0sGj4kU2ZdbUqNyeuEiFhQeorWEAokXdGkQ/OCmpWMmfLhJZbxwNTQH8pRMAxWZSgBGrNFHAqIOKlQf/PVo01uJ3FwKOe4kHRpwiw3CmGyaO+pYeUsxq6WK3Li5c6TLYyWkgIfUeAN3ewmr5AKAqixYtxfsfANQSMK+klgBZMy02znJi1fCpMX+k64JT7BmAqtfSV6JwUQ54KyWj2EME65T+shkaPPbvMd6fHdHAI5vMZB5a0zQcXyOysQvu1uMeC3MTbz7xp/vNd2tNSFsGEOzWfmNedEo64QOADKdyrySkLQxj14QQa8SqdCRUKBkAHfAUQGo3BRixyqLRn87Eiv602K39RurzY4ZG5mbFNj6jJ4TYSjpOO7nzfNEuBdeP84qRxCtpgEyv1O4Y/fne9/angCoA8wvXS0CIkX3vcPxTwHoLmG9fqQsADlCTQZherAqgS+AA5DvQNZMD4IjmACNWXYORkoiV2uJ+H/j7g7dLNRxdKiHn5l8QStVkf/o7cee3S2ChcTLEhDvWvUloSz6OOFhDs2UeIA4HRuG0VMwAtALPvJK4Ax8A6iuxatlhx1Z1ByDfgepQcgAlv1IA7aV0Da+lRJ6ilIodJgKJtURS73MeKHH0WMY66YOqph6lqNNKaA1NZk2twoApDfIH8jXaiFJaE2OVTVocnGbwpB+GcLA4P92GcLAsIHKwPGC9BYyXi46BcivWGCjnuTQ5AE5cDoAznQPI1kgBb6VUSUorGXpBxkmXLP7kcoZjt4qhS3VZXfrNPN4pVWh3be5yo7Heh4SAb8xlnVeS7LF5pRgC9oAeARS2OwCJrLtfWG8BKlYjJRUrf4cYb73ZB0oBHHpMAOQ0pQDzHWTRZDr0FjMck5vsNEmJTK6Ubzp85MJ+Ak0yHKtjAq8pI2RiQ46qnJOJhKcqXdAfAOWBDmC+BchV6QD17RpUTxspqVhBZVXpqP99XvQLAJy4HABbIwcYscqiKQScihUV+xWDOWtgpXyTZtrfuzT/zEgMbLu5nBYNwc15YUCqdyHaDCaezWT4OV73U677Cz2ULhOuD4CuexnFfACwl7oMe/4A0N8CxluA9MZ2i34r1lglcuEwz541MKPhIzmA9lIGQJsvWwNm/FIASakn+Wn8DkK5PUkSujWk38yseFU2Scqfmle6W6U98aOnycCqwuxf3Dy4bonoFnRpDqAKgDSQxMg8IEZ0PUC40g4gNU1m0fWtWGOsklss1y3RUG6xnANIi2avRNmBHPBWSsS7b1oke2O8tUlnoclxvral5yZnmrr0oP0e7vxcPyC1TUbEH5IVM8pDBKtvTpnLmPu+mQt3xyZsHwDmW8B+u4b7pZRiAm+77xC7LnAnlRzAvPsEwMz+BMBi1UVj5CQTK7VeSV+J6tgfS0B7qqHpoDFjdpraLQOrjXs84xTWU61D7rEOzWPWY5M+iZMbvqa/QJZAkz6JB0B3qwT7PwBIiZIDXK8Akgdyi5ZMkxOrUKoOgILMkvw6X5o2XwogIzEFGCnp5jOLfsXRPXZreKWJ+bgmpTGPoWuYCLHwnScFntkkr0ZHPfdS4DocOhLf3nHYQmFq2y3lPR4gHcSNBoptfDxA7lbzSnH0rJVSHD1bmGIoTacGtwfIAawUFUBRuBxgxCqLps5zqVipt10XlWU66p80p6TMkTGoJ477YB2ijQyGpdFRmvGbPKu2yaSPZdzjFvv+fB+j91OAROHIImst1jR9AJAiWQeQzhEOIEWyZtHRY69szTTx2CvH7lssCvw+O/BzAAVocwBrUV0DxlszKZED3rTPSWVfVMZqTCZiNsk/nE4PdGuoVXlxoe8STiJP2fvuU/0QMyYKSdcmCoNjlVrt7wFS3uMA8y1A+gk4gDS4xA8n8x/G4Hjrltrj4T6cAjDemgJIKaYAlpIumrqQpGLFUMuKJJVDnuNUbUy6FDSlu0z0nZz8autl4UrrElSbWLfbJBm8llWKXQCsgcKZXjx8JNHTC0241mLt8QeA/fKVgjXzAeCtWKOeXs6aSQBG7TYBsPOqACQ8Za/k1K5ICdVujySVxZPG245umWkv9hi6oSRjcuHKiUwKWYim93wfsvSDFqXSyaEx48Et0oSofwDmF0QpOoD0pqDtPVpMN/tfiM6rB4hCMVKK7ScHt8Bp4pZxZXAOgCOaA4ijmwKMlGTRxFlPxUrFmTkFnX3RGLYrHAKW+um5sUH+c2tEMinPqj150d9f95uvmTpiq4mbrfsq7TJuLvqo0i7jACi3K21LDoByitIY5QAoHyetVz4AtLeA8nYN10spVf0OtDVGNOFuLr6pMsv85uKbFECOX/pKVBSYA0isK6Y574517K3EW+O+uLxHvvRz4oxlHJIu32dp/hRwC4CMRPF2D4CsmRU99g8A7S1gvAXMt4teL8Va5TtQirCteOI2D7fNAbw1EgB5KOka3kqJlOIJ5siXJn+6SS/gzc7rc0QD4C6sgaSk+2Zmf5nRSCzXhT9RpHX1zeOsDuD3J+huOPSrzBi3251XrURjbstTpUzkcdnd9R2SWVyYdQBVAEajNAGYVxoRQOmBA1AejAFINzwHkHb0Zg1NxcpSaipWY2GpWPnDJQBjnSiAN18CYLHqoumeec5DSHFMZqmUIRx0nuZZSix6XTcms+7o7W4mnknyeDOzTcZ22OdDOPc8D/tIhnb458fL9+nv5NNFnhU+mMyuOM/DJk2fx++bPA87Ln2e5anPv5QPbuhLyjY2xm+KzLN9jgwN1itbuu7fmIKrlxB/OTZ+jn2JAIqu1CITTTjgU4tMNGGDvpakyMgBJMPsAPst4H656NjJyoo1Ml8GF+hIQfPkGFQOIL2ZAmjzZWugCz6VEtnnz/ZeYoNR0V3J5u9Q/KZsKdC5cA1lxRO3+JY/gFeM7QNQAjZp5iWmLZPID0CZ8wwIZa4fAJQ5z2tYKlaWUqx1Z+2ZA2hrLCmOZ157+guUVs8BRqxKhCcpbWmewonKIoSi5zxgHE3mRs6NVoNGGydPdaw79vs6XQIp0FDikPfTyoFiUFWumYtjH5J3nJdNtl5vATUCDH9UB+s5gCzavdIUAKcRY4/Xi7tANdHTl+PxRj19OaZwAjApaX0lI1YB0L2USgk7M2TfARlINSqUyfdS0+7W3L206vjBgV+6LilCNYmZKbt145muUhw/eQZplWbVkzsC1CFfmidI1yEEisslNSIfgveSRmPWheHJ2qUOkH2m2oXTwRPgaotz8hb32q1KDWgc+mjSc6Dzl26xuOUAyAxt0t26c+ywyQiUzoXlTUageEB/C2hv16BiNVJSsbLpEDszdL4EUgDtpQxAt3cOMFKSRWMtY5OUdMOkxjmiQmlFi2wKPfrCPHzdUm+zMQtyLLKgUBbnKHbkpRwAV3xGm29xXGNLq5+FrMIDEA1kfiHwUj4A1JeLjsOfrFinipW/dATwGMgcQIo9BfB3iIvenMNWsW6spteC5rk56rDEWL9Zi04h83PfhEdPr6BFC7ZcqtpGrXz5LD+1ZsRjJzZb1TZqHiC+KJVMV+0o5gEiJfdKKiXmQ4RLwIs1DsYo2Geq6uiNgpSlHMD5MQUQDTFdAzWASaVETWzqEJXFmYQ6E0MX1zDFqmRv9wDkiFLf5io9aQ6A1xCbCXlAfQsQxe4A6nDwomMnKytWBVBMoEoTmwNgxy8BsPmTAGh7p2swUhoCYCnFON/FenoKn9pcZDMZcIiJoxl7P5gauio9aUw52bkEZCQQpkRGMk3QAaSyygFe1dDVISfOL1rFyvpBrXtscpYCWD/Ee4lr6NJfQMcvBZCU9LovfB5W0hsIuThS7HViM/Qdbonobn6lO+FPYPQnS005gNitDiAxMgeYbwH7rZS0EQ/pByFpzJsdjhTAscoEQNs7BRgp6aKNlCSSiNRiacQzb46RrcThwOCmXvc8o/oEBqVrJip2HZw02Z+WLh+Ly2eqDk7iMZBVByd5gBTd4QHSCT/+F6TjpFv0W7Fq10yMnMg4zjWxNDEH0O2dAahqNV0D8usyKaHH3mUEimWDxlRtx37yzxGNEV0TKN8SZDbOa9bZjRotpI3aiL+U9r/DRWcd9hxAfVHTuFBsDQeQq9IsWo11dI+zXoqYy0oBpjWiAjgwqADXD1I9FN5L2g/S7FZ1ONDxWzIWtTKxYEmJaOWLbMklUNmqXJFSdQBmDbJoA+jiZTmAeFlmDV3FylKKheVc8pACjDUTE6mVr/sUwHVPySsZsYqUkHS+5ZUKAtoVA7QnoW2oC8EMNR0BprgDLNYmUbhpWsxIFM41tpUo3DQ9aSQK9wGgvgW0t4D+ctGxn4tp9ZMC+MPFzm6m2CsDIAcrBRgpyRqw2EuicNMUe3VheXV0XluRYpjtLoFoYPHY7GNVqtPEyeAEwG5ZVIpc7JUauphj7zEZ/AFAm+gzIOo4DxD/wSw6cV7J4ehy3U8OMndRKBOZajmA/enklYyUBIDB/kxKJp0QiJir81CJnYQpUAMpU+1mel4VWhjn2FuNDrjJ4jcpZTQ8gVZFP3iAdHt3ACVHmDXImGAnJRUrN+JRzonp0J0AyF5KAUwmTQBGrBIzxr7+KtbNnd1qZPYf1iMzN4ckIanVT72FJ1A5JqDlDKYcUwsmuito1l/AoNqKE68WK/aq9Q888POET2UWrAMIAdC8koaLzKJjTtGKNZYzdA4MpgDeGvH27s4B119wYWwFmEWLWNHxk37yq7kTFzOvRmW1pL0jdhlvwl+67S9I8ouaLx6AaFEHkISFA0hKxKwhVn1bKSkAGy1I5895427NAa/6ox6AaQWngLdSMmo3thXkTg4PoAjnhOrjms5Gbsz9WcnAT8xw9Mj33oUD5TXS83ZllVVjNHSbYE6N0dAPAFUATH2ObXIsIJw4/0rhTHspaS8U7ORQk540SABMAbSXUgBd9ynAiFUWjYHyFMBSCh3FNs+5OOchHFEeA6ktyNZyRMwYRFiclFdO4nJd0SLFcLK9pFRPD6hvARLXcADpaWkWHWstF19kytG130H73yE5IgW84xnzbLMcYMQqi0ZyRJdpUZtDLTXafNuUWV0xrvGcaQqElDu5W0kpHoDcSxSQKnfSIIwCIeVOGlM5gKgsB5A2amYN2qjNSElbwWHB9R1b0mzOKeYAOHE5gKrMMwB2IckWTSzgVKzUfPEBRPPnwmZcz3mI1IXNVYSXEG24P2otwhPoHCi/hCxk+EuXdF3gQTHJLzSOGZc4Y27xrXGK0YSYjLaGsFrmzcx+YRfNm5kITZJfN3MdhCH1AUB8UQeQvKhbg/iiKKVsHhXSL7KJV1jOkAHQSEwBtFtTAGeaEgAnLFRKaKw3sSovroSsQniqTOW5pKp2sELRWOXGCu2yhMm88ZWK1JatjfHWssRY33geiky8+gAgi3YAue7dGtpbwFuxxrjG5v6RGYBqXnMAN3dJALyXEsBbKVFSvkjD7bUYIDT6M6iepLSTFCF1GS8yM+UASKwy3MMDNN2M32ELacv/gqTMHeCtWDWLTxWpRcqhHwAeoBRAhm4KoFsjBRgpyaJJi5aVsbHplaZQ0DcGaIsMxtjcsb4UCQxy/+xSsr629EpFAoMdyxlKkcCgB+y3gPkWMF4uuqpY6aos4u12jJzkAFIoCmgYis8BdFXqohvvVhVr4/MgjRU3uzRFyBG78HcYkl5b6GUlOq6jdV+kPcDiQPkDiFUiJoiwkzpFDCLspBISu7bdGfXZAGTRDiCEWAcQQqyJnETbu3Jvuzux7k30J+4lG19SAHYATAG0W7M1YNvDFMDbO/ZfanzipCf+iZyQlLQyeLCxrqVigy0BrQz2gC0AkpJWBvtfGG8B7ZWUtDJ4sIGVAmi3ahnuYKsyBdCJSwHmO8ga0KXJxEqBwTObQBgh6LHrAbqYN3PFbmGuBU6RJs5mgkOJCbw5OAOuDS5t1+fQiHryzMUqvds/AEjHZAMI2QG/hqpiZSlF3oz9DgmAI7rBIpvTDaFIALyX4itNTuClAFa7gQs3l4ucxGZ4BUmMpUuqtmPHglKl2REnUh9AbOi3kF30AOIaFrKLiqQID4AHmkTzZyEdqVQxsDxAhjS6V6pvF/1arApgxy9aAgsrLHIA6YcUwH6cAmigSbpoinuXGq/KE4UjpSiMEFOsnBygyT7QbxyWFwAhR+B3qEJX9QCJ/rhXkviSA2iVuRGrfgfa3lV4xlzHngLMJZAAKCCVrYFIjKmUMOpQpehjsQl3SY9yzjRls9CQSxojxpuLezRsMrH/zRU33m4caxUL9OZ+hEKrHqg/25cB/IOLSJdq+jx8sCZTTRryzVokLJzn+f3v+DzdwC12oPfP15fPS2MG87zKE9cbmyY4+UcuRMOLLn2eKLzZ83i+kueJaiFx/c6JAMkeTqwiu6L/tTZGbcTBWxvbEF9iPG4M8lxiO9rnpzwP3+sSy9H+fcnGmudfyjPGgzbS6a4kC1Nh/6TPw32ePo/3ub4/hTrT51E+ceTMRkKjpIRM8k8mSJ4u2bB/ejKFhGwIpa1eeP9MOY8XxtZkZOb5+/C99HmeKzZF/gXt75l1wQH5azfggt9rJrNyiD2n9IsL7Y1sqBjpI4lJn7J3fF7rV9HKvaJBM5kzXIqE4CZaiAdQBMB+ZQzBTawDOACdTGUA8y1gv12D9PswUoohODNdq8isn4mFAynAeN8JAO7SHGAywbJo9PoysWIURJik0zpAIRl3DhwOgowK/EIFnjYKgxUsCdhxsw+9kLjx0pKClYbJxyn1vc1cwNHg6simHDKolGPXXVJq6+uK/dnzEjykIVxdHIKFEx+04GFhDqSLwrTP15fvIxExXq8GxFie0aHkipAu35dLTtLn4bykz8M9mr0/BfUz+VDWoEsTgInE2pFU6JOBtiRaWFE+t+h77lx1LkShdCOBSFyseXPWQ5N63DX2AIQO7QDClHcAYco7gDDl3aLfijWaIDcbaimAR+pG5cqdb9NfwIGGKcCIVaRE5TLS7fdoY/gMW2i+zKTR9vQd3W+ZlHZI76D9pjSiG9g3SMcL8aw3bfY9jLaPDHn3fBNyiHletD2/fxMuCcsn0umd/KP1NLAsKH0e3ePkedxvyfMsT1kvHeEp9OqB2mwlE7Zo8PFKOldTb7uVDEYzz4u2NO8j55etabVeyX3QfHxHbZ8+j+mW5Hn0HpLnWZ6yXgpnrGS2HjGvMvmzdaPfl8hmM6k0JO9Bw2Hcwq9LYSIXV3aRD7dE6yKfG1mRXeRzY3i3y/m6UX91CTfb5683z0v5n3l/7SLP8tEm8jeGp9PnMd0SqYo3z7zNnsd0UfI+L+VDBcwj8VbpfGmzLr5vb2nDULGrgvoCbpK4+AJukrhmpAqXzosv8AFA+nc7gAadDUBHwJtFC0/MiFXj8jgC/pLErxkynwLYAUoAHNrWNSDXLZMSNezTaraGySydNDjxhXqSPOXbKMYKN7eskkYvPHKmSdUYT5zRomL7vNSymudFG5v3l+SgkY/Kkzqrife50fpIn0dtkDyP2kCfJzJAtl4mG6g8KTkozcLWxmtrCNmAY4vq/TC5aIp2mi75KLE/arEuU8yf9XLsW88vNRLQRk0b01g6bHJjFktbTW1MYg0ppbXPy/k17yP3oXn+rTz1eUy+6/miXEj6POzP9HnUL8nzHGuW+5a91UiWY0ak9rP9rRl4roBrYtcYUmekP/DghgPQX2COZuT7Fs6aKn3XA8QgdQCdVmF4pmKQvuT7lrd832LpuwrgL50AeC8pwNB3ddE0WyUVK9J3i1DBG+b4byEPTdQ3SwZpsfct0ZLNk35nvC+e5zm6EqIl53mM3oQO2/tCe2tGb9Q+v2S9ZP8JGcj/fenVxetdL+W5VJ5oryTPo/0UbqLnebIX0+dx/+j7MJlM5UPk6Ww/c7Szyf6h6I3MFdoX2qPrS/v+cB5pP2izde7atMVfvXFe7RZdxv7GndjrJE8ZzmnIqXdif5h0YA2qkoctPADt6kkWnbLbjIn/AKLPurihX0n6t2KRbBEr3wKi22FfKbZpWNzFsMjGXtwnMQNU0q0pgAl3sUPs4o4F2aLJWTwA2RoYdCvibnmAbA0HUCnxd4gel110dLkWd44oEhNY3MwiBfAR1VfChq/pEeWtkRxRc6aVBGWOqLKy/ncfUY2dvD6i/B0SAH/pBGAW/Xa36s1nzsNrQKy3Wtz8S/jVa7FndAlBcSNt5xajnysw7iSISxpOOtaaoMiWGkUmNukQ2dukwKNTxLMlZEzJvlCeMlf0GIUYFAk9IU/DalivpMCf5yko+Mvp+uV0/ed2urZ8L+p0oylkToHfQjjnCuDEXm7cqvBXEPGzNfwKIv5nCCJWoWwUTHreyfQzDoqoPU6UwCEzhlxS41dS7FdSzDz/D0yKzaQghGgmM2k4TJTVLElNJJMhlG12s7TgZ2NQ8Bdp5BdpxD3/jyWNaIcECpVko6LIpc+aeGLs5hdF8UPAL4riP56ieIt5WU3KKozkXh07EA4pUFmY0v5FiP9FiLfP/wMJ8V386P113f/EmosFThP//kzKe8kD/VVw9avgKjz/n6zg6leB668CV/P8P7TAVe9b+l5KqeH5jLfsh4tzmr/aKXwI+NVO4T9DO4UtO4O6Pa74/OJxqDrpoWPsUruXT9R+v5oD/WoOZJ//BzYHGmLNDcy16uwV9s4lV7waPq/eQMP9s6QbY8Wc4JLYYsXY9BLvreCw1y3cECb0CsF+ci4k7ZbYTR/AX90Sf3VL/BjwD++WGF7JkAalffGZx4MVYdEA2Zge3zJn5sbnl7ijF+68Kcnrgv2i1N3l7o1TFDIzFGYyz4W26RT3vmC4JPv73O8q5joc+SmGny6TXI7haSZjdakY4H4STUbrdabzS7hhYvL6knbrrp31r3bov9qhm+f/ge3QZWLVmpjAqjJimsOpv8Zh/BqHYZ//h47DiPplGH0RyV03hvuvmF7djcdCxnDwGX+D8g/663meAjwrnpdd2Y6W0N+6efpnNnvNDJz7NWDro1f6NWDrP8WALY0w4ujZX+MRP3yl+nbRr8WqgF/jEfUyfndEtd15Z9rXlDVcSMcsd7y950LGwq8RwB8Cfo0Arv/4EcBVKISTCUhlC5+5cOZzShlu50LfX0PoPwQIU+XXEPpP1vC/dwj9kpxm50r5LV0GeWJO2ZKVqsz52LJbecpA2XIeKpfW33LiPKC+BUjk1QGEeYyLvsUMrdxqQmajHQB96Vss48r9BDIAWjMpgHZrtgbkpKcAktKWHHBlH2gJha5zMm4kWXKseWxxt+6CNALtr7EbS6lEWtnuTDiSuY67M+Hot+KEHwEmA3m/Bey3gPkWMF4uuqpYTcqyCYC/dAIwadcAaOw/pADupBIX3TgmoGJtaHsXieJuU7ytanezL6plHSabvSXROdl02JIJmGw67K9WoD8CWItG8ogFxEqzycbJllJa/wsS53OAt2KN1ZA8b/YA5DvgAPQUQEc0BbA1kwCMlGTR2MFhJyEvtIxVx22W0hKe+GbrXtrCmLLjA5BUsgNIbtUBpFLWrUGysQ7wVqxx/tZ2H04BeIBSAG2+FEC3Rgp4KyWqiXkAkSWxWU/fibdLPlAtiUtDr3QSTULc6BT9abFN1bzxEjgA4R6Ti38Awkqn81CbzEr2AGGlO4Dwrd0ahDOOUpL6wgOgL92j7T1vvFtTAPXryAGgUHIAiTUFkFgzKVHc+/CGdKw6nYffaF0fupZVG42yS1MvCUhxqv/5heixs6FbxWk6kRMObka1y+GiqlXk27n4wUg8HarJOLnFabIxgeg02ZhAtO4rV8Lf4nB4QH0LuF6uIWQHvJSKipW0qBA9t43+JAD+0gmAYzMKQHJrtmiMJGZiJfZFlWKwXTk7IAm8feEakgqGjaGWpL0RlzDUIdb94qSLNmia2LAl6QDlAfUtQAgeDiAZcLNobURNxNUDULHyd4hN6bhWJQfQ5ksBdN2nACNWWTTVCyXNnTjtn1RUcffQKpyTXViL1ujHPWcaTYca/bjNRTS1SnDTA0ShEFnoAMpLQAxu2ldSPW2kVFWs/OFUsROVPgfwl04AfHsnACNWWTT1XssBxlgPW+Pi87CS25t4M+0SDlZDLdokO3BcS+K0Cmn2se6JLHQA4ikii1RoswdAixbe7AcAKeV1APEUzRqaOE1GSgqgrXEA8h2w01gKILZwCiC6cAp4KyXsDtck+nOhJdCEjrQK2xp3wmnHi2wlPQ9QZenckc5EmyU9eTuvQZv+DraXltwaHiCVCOaVYlDNLjqSeq1YI224M6UqBZB+WJLb7Xji0l9APnwKMIvWBkdm0SJWjP7c0rC1Yry1FYndX9xTSyjok8PYDyCk1+bia6ZKcHNxk8gaeTOTJ98cQH8LGG8B6+0a9lspqVj5Mo5xPi5HzQFgt+YAKmBKAUassvnIy0rE+ls67KfnQeLeVJJRt7T1MCpripfVMUtTe5IipJDXAUiKkJg5tSepWroEDkBL4QxA0s0GoAltB5CUuVm0JuUxKt3jhLMD4PyD8gQoopsDSMelr2SkJAATI1MpUU+sHMBKMfZnbfhKTfne3NS79RhfmqzY24wJi1mx0q3JnIcDoFeS2voDID09JUXoAfUtoL0F9JeLjinCinnRHEDX/RS1W9k9zgCU280BRkqyBmrC2KbYGhWT8m1G3syszhIIRuLku/WEKcRjp1nFNePdY4XFEpXFPOMDEAYt8Sp1dJGheh5AFYBZg/CMDUA7/jiAWPdmDfG6t1KKGqi6kJcCjNMUm1xW5zQlAHaaklcyYhUpYYBWZwlXbD12WrXIeSCyUN1Su14wt1u3FKMXdMsOQNtHGYC0RzGASOXxgPpy0TEpX5hzsoUWVphzkgJot6YAOg8ZAMPY2aIxUK41HIVD8TvpZ0/x1tyE49SURuEMDSYZXMCGbqzm5GLl2qQOZXLJnnbPnhzy0vbcHiBuGUbhmhQQ+V8Qt8wt+q1YlVyNOq5J16nJKisFkMrKABTsT9eAKiuTEqqsLp2NJ7OLlOTeXEQ3pv3tVRn9h5tzinck9U6eNVPvGHqcPGym3nEayQcA6cDmAOMtYL4FSEDKSUlyWUiOkEHj82ZyRAowQWYF0K2RAoyUdNFGStrtl7VodAcuXrSy4gtysE47PDHWkV00pREEO+BVa4/ZAU860HFco2rtMXvsSRNWDxDb2wHEuncAFatZtIqVvoNexty5NQcwQ0odDmw9lv0CTefJASSlrHsjcqWnzDbk2a9Je/rrS8X8FCDEZAxuSthuXRzc1JaYFwc3JWz3AaC+BUhbXweQm88sOh5RK1YFoLEuQbUD4JsvAfDNlwDoPKRrMFKS3VpZSrEbzMXUBb29eYDWaSAqA7TQ8VNOIndwTTiJHqDeLq8hOn4eIPeSeyWVEl+VkeVlxRqT8sZjV9pwYfc4BRiesUZ/WKy6Biy+yaSEDkf24aias04ZSHDxd5BiNB/Gjr2LNtsaEvc2WXw1Qw1PoEr5p2EiVCkwPQB2/IYSC/gXwgH6AFBfLnq+FetUsXIULgI2e1kpgI5oCuDvEBe92ctSsTI54gFc4rFjrHJKSuTCAWd1SBSO25bUJky15ioh4/zQzqViTWrLOlvGLZla1kx9nLDtUE9rQZ0HCC3MAYRz4tagYjVSUrHSdxAqzwEw3zsBMN9bAWiRpQAjJVk0WpVCrjYths950KwlXTNdKLeF79Yu7NPiYvcx2G8vgdhXmQePnLmpShvm0phQVmLY2Mc40UJfNk6WBKSMw9EkMEhp/5M9Fi2KPtAti+Zpb01a4EzOHjdp7TuLq06IIeALyw4fQAwBe0CNACQLSdPnDwDj7StNATCzPzCkDgDO9AFsATCvMoZP+cTlAP7SySsZsQoAOSeZlLC7d/YdSKG0Gon6k+unmw6lMa6lmnDNXTNxt07sIaWlYs81QzGycgsrnr902XJ7F66f1gqLwm3etMLCzCpfX/V2PwJMhyeNnHDbElWKBhB7Y3uAOOBmDbF2wEopmg5mZnwK4H4zsf7Bbg39BayUTwFGrLpbSUriA5leLeWWIiiuf6hXDHk9ZxopJCVmmh7FjlGHIkqRBzPoJJ8D4GYWUSl6gDRxdoD9FiBNnM2io4FlxRqNxMHhohLd4weAlnEK4E4qCYD0Q7YGatiUSonYp/USFjA3cS7Z2DJsCaWDRJksVIp0V+X89B2jdpsvvjsKdfPNKulv+3xs7MIa9I6mkn9+vHwfacHI8omDVgoah8LrOM/DDZk+j5Msk+fhbkmfZ3nq8y/lg81WtJfQzZN3hlhInQkX0uJ18qywOsQW7twFYcix79zUYEgheudYicQZHgA2gRriEHvAfgu4X64hWhdWSvHDdeYuj8gG9R8uAZjwjQI4A5cATLxHFm3iPcHafpQUcnGKpOEbn7gpd6RpF9yikrp5/PAB/P6Vbp43XiTBfHMXhFpj9f1tar3E1bsvLqyqEbAHjzSbSfcuSs62lfSlwgqglfSlIiuvSQ/9bYqSVtKyzAGkKZoDSJccB5BmK27R0jvFiLXKd8DCqpV0yaFZBjmAomIpgPdSsoa3UqIUdhsx/vmcB1xDidX3z4nDLmrSK+LufKZHjOHewzVFa1sAHOQKgesDMAplCoC5B6FE4gNAewsob9dwvZRS1e9gDCz9DsbA0u9gDCwBoFWZvRKmsFPAK2rNXbgibkeO4OY5Ma0Lj2WhM9BLZF2ZAFGX/vOTO9yPEqlmY2HcbbTo4I6B+uEAugDgwx3AeAtYAoAvfQD3y18ItJQPAOWllALhYgxUigcg34ECRDkANl8OgGsmBxgpyaKpr20qVlKKQwYiDm6l2HeS4yO3rDcZkze4P5iQd1ZhS6Ank5lw1rL2DF/ccqBJWeziYnpJnR6AyfEVAZh2X3JVOoD0wDSvFOukPOCtWGN15eKmBimA7NYm5Zi/lZZ8DqAcX/pKxPZJpUTZq2d7x0nHk7kHOnisYJji0aLBjzs9CuCVepfGDAVTp12aNY6FUc1zzchFRmWxByBXJRWi60X2AUDUrgPMt4D9FiB6mlz8BzBET9Nl3GV0zQHANZMCKFyUA2i3pgCWki6aOLOpWIkC28XbHdy2uXdpq3Mh5a9fkbZ4onDcqET7RxouTszmVr5mhO1jKuISHWc6/QhjyZSfJTrOA2TciAO8qohL9INdtE6BxNZA0lrUVMRpa1FTEZcCiAKbA4xSlDWgUsykhAQkcV5PJpSkdEcH/Jw4upda9EXHzTpOOsyMjiZcv8VTZE5UCqAjegBDAKTYb3EtPWALgMR6i2vpAeXlK0W3zEppqlhJodyRlnIA/OESAG8NBZC3mwOMWGXR5O2mYiU6RJfWQKO5E7fFqiRAk60xuVtRm1KUxO0rWo/Z43kjJ6p1UexMdm495rLmzXzTHl38DwBiOjiA1HoZCmzsFGoWnc2vQrFmE7IMUTh2grP2UgJgHZcAjJRkDRSVTqVE6YT0lYj8/5yHWMU0We2KfphcUtqbXDMTjZO+4uYbHNHtMgT7+S+USH0usvAL373TnwKqAPgyDke0M7O4y0zrDwDzLUCk5NZwv5RSUbGyBgrlZwfAGigBkJeVAljtJgAWqy6aUrWpWFFPr1ivNi6k/HUNMjN/qe3IIR83MoufayYwEQ7nhH7hijwB32FGG7thR42sTxvW3GX98rCqbyfFYQYQgggfAJTWbgDSt9AsWusRjFi1lSIWGmbNGrHQMAVwz3B9pcqF6AngrZSw5k4O0Lq4rX+RnrALE9pN2urMihUP/Yo1FYOb03UpZRw8EahLO5fnXsLg5hTr/kLy3AMIbXUOgK5K6f/yAUDuVgcYbwHr7aLfivVWsbJbFg2si2PGKYCUYgbAmHG2BvQUU4DZfBKmQLu1xxThGBgje05cnO3BHTXalCzNYg+lStMbE3q8RMcNPNPtShp/YtXGLVXfE+2leieNP7HMQydOe4A0/nSA+nYN0vjTSUnFSor9TppmYn1OCuA2hAkATlwOMGKVRWOfhUysGGQuyZAiLIsd0snhYsZgViaO173kHya3N+pD9PSN7Y26FNMfAOnpEes3B4/Z7iOW9n4AEP+BWqF06WD8wS+stwAVq5GSipW/wy3ZARqkkQPIIksBpIFSgPkOsmgi2nRpOHl0HJkOLfY4ezxFYgw+WlQbZOCgJelLddqIEGBIWexkRsiQSl2++dqIDKkD4Hsp9pqzgNhrzgNE7TqATNMxi44sLytW7UqO130KoDBFCmAvKwHAdZ8D3kqpmgCtmnD0C1v0dOFLoMromsnXjKQ5J6emhowFGwu50qNFxT46XpUnr9QiAFnA0h3+/AKzgKPj5wFLAEz1jI6fAUiWxr2S5IE+AMh3QLFKampwBd4ByHcg9zgHEEc3BdBeStfwWkrM0S1yHjCMvaXTD5co9S5ch415oEftautpah13LGPh6NKZPgC5yDCXdYtit4AYb+WiD2WEfACYb1+pC4DU7i3RUCtWBWCw/5bW04OnQKYAijqkACNWXYORkoiVjMRjVYZX6vjhuhLEuTH0c0SrVDfTkKLnjoiXwMatMSQ19dwj1HHpuSNi1vJGb/f7qLQfALSXDmAJAG6NWSNt2AMCWeh7pvSnAFm0A7S3rzQEAFtj1jhB0Yt1qljh9k4BtJdyAOzWHGDEKoumosBUrFRr+XiekYJeuPhmxcyr4Uo/5yu2PK744foWstBCLfr400WMdWpv1MWEW425cDrKiWvxe5OIrgdI11m0ZnSUkwfIhCz3StIpFIkFOvvJiFVnPzUmR+hUo8b0iwyA+YfslZCCngLeSomSwV36nLjClf11qfxgt9IaniMa2301DMWPGVnxj9qlYrR5xSyN8UVnkQAtTxQ9Baui2Kk6YRYJ0FbM7R5AfwsYbwHr7Rr2WympWEkpFomGNrQqcwApxRRABlYKMGK9BWCktAXAUoqxmYbsoqEUdK4BH1PKrJi5edxj6fuDhCft0n9zlbk0RjGJ1K7hU3Pdj2j+rMZcOA0MGg2koUcPeGc66GwPC4hjLuyi4yANoxSHTDpuzHpMAWRgpQDeGgnASEkWTUHmVKymDiUmLJhzMoqEi3hG43Omo6HLA01Oc+Bw802Mws0mdCTu8DSl5cfgiXFTmooMro+b0rbkA0ATAK+hiZ52gPn2lURPOymJnkZPUVrgDB7vPKWNzwHQ1kgBpBQzAKUI0zWQQkmlROUMp/WdqF2KYKkDPgZexkOrpm7sCzkkZf68JH2H7/zAH4x1fKUrsh4Nr3Jc0l+44lV5AFL+SZfxkDLcxbzKccn0EA/QwkYD0FpLswaxZlChKGmrIm/mACQ7UJkVnwCYd58AmNmfALh2QBdNZzoVK9qtV3T8zIi5UaUhMTcl/N6O5gc9TZbAuQTCmTZXZRM/bvN1r1TPgd9hCrP/5M/IQ9mi47ic4QAk84oB2i3XvQVEheIB9eUaYjMLK6Xox3U2HbT7RWfTIQXQ1kgBZAmkACNWXfRbsaIlsKSqlrNl37s4/AZYSH2eRVr7VgwiHO6E8DVcjl1mx2KgXBS70Q8H8EoDncyV3N6o48T8+QAgfR0cQBW7WYMqdpZSdMAr394ZgLTokGzZAXCGIwGQRZa+khGrAoyUqgCYyqPTODFmPGV0Dc83nNJT7fkvROqdWriykBFyZm8KM4ds7yW9gAffGgcgniIFNw9AXBoDiMFNDxB/2gHEnzaLjiyvisngA1CxwgFaVa77ino6BZCezgFwL+UAIyVZtNl8+h1IT68qSRf2H1YV0la1B0gsMmcJSECKOOtnPpzM4KK63VmT9vUY17hiVHpy06lxi/+w0fYeMkvDA+KcmM36QaZpfACQUX8OIKNg3RqaADhyEicCbfYUb0lCblZZGYB2aw4gHZetgWzvHGCkJGLFSKLwNU65G5nSLaNU0QFa0bV8fpPoqt8tvB8uAbyMp7SqM3frHS+yfiOpd0k7pQdA+YcDEEoVxZeWBAb7jZbxAdS3AFm0Awj3xwGEjuQW/VasU8XKHy4BkMrKAJT8ygFkCWSLJhpMKlbKi64dU7WjsPkzRbE3pEmuLqStiVn8w1uWHlJEEF/C8ho8bHaJYj8AtirDRfYBYAqALbLQseCDX2hvAfWtlIoA2G6t+h34SyuA6nZzANutCcB8B1k0nrhMrJRDWS1mXp/tTa0mngMUK+UHn7iVsItoYty+EhYwZY/PFJqgHxbmdre0HO8Td+uWAqIDgO+wZVT4B4ApABDrAay3v7BfLjqkzA8AdusBqFjpw6UAOHEHIN+Bdmv6C0RyzwEsVpUSWZXnO9wCYCmFMPb3RiY/Ow/Buu+sstITRwdobbnITJhixrZWjz+N9pJM+hg8fDlV7OSAL+nEeLictGjpxHgAfFWGJmwfANpbQH0LkDAFLlro206sWnbI2zsH0NZIAaQUUwCZDingrZToIltdWvv+VpibA4QA+BwgNOGW9C4qrEUvuWY2ertbS2MmOq9bxPq9KU4OkBPXOae4e+RrdM5abrk1PCA29POA+hbQXy46kNw7F6Pt3+KGPwL4OyQAMh2kfX3nzGsOIEsgeyXKA6VSqkZK8h0ozrel333n6Z+7yivx3IFzRIOtsfia2Vkwh+5WrWkyIS+hPj/XzITQ49LmLgU7bS0Zn/t95NZPAXLzUbHBAcgaqNhgaZMdD5gvXylmOOyil0qJxRp7IhRskZYDaGtkACp8zwFGSgowixYpEZN5abOjwvbSjGyKweOzV9ZjEEOPWwpMeTr0c2vEKJy5ZmrkL51G6vDhkpuvOuc1JF06zxfdLaZ1PgCst4D7JSAkv/yiQ7C/84zUA6gCYI996Hdg13Lod+AvrQATatFXMg64LpriS6lYyX94ANEiq+xPl0ijfxQ76jgpIDoOOF0CPSl3Q5emiDuwmO8teaB5cXptS+t37tR7AF0AzNyMjYK4efABlLeA6yUgctY9QPrzmUUH3owXa+yNzQ2QpzQPPpRApnomAKZJJgBKpGZrMKRelRLZ3uuS/MONUbiE1cLdwtZM5qFQs6NH7VaJSqP/IAyp76Mxf+pPiwYi/tKWCu3ODKkthe+9YphiS1urDwCi2B1AFLtbgyh2lJLEyA6AIropgL3dBMDergJcIEQBb6X0MpjDLK8HUOUXMPpTEn8a2XbC9+5MeFpa7nYxj6xJk53qGCGRgt6QXP19ltuPADgP32e5/Qhg1mNkqllALGfwgPVyDfE7WCnFoo9mmTnCE6DbOwewQkkAnAFPAEassmgM9mdiNRmOqEULHyCZJdJ57NJhF4UzPTk1VWJ8qQ80sA6gCIBuPimYOADSQEUU+0CLbJfIpvgAIB67A+y3a7hfSqm9/Q5NvwPphxLJc32gRZYDSItmr0RdF9JFE5si8RQH3hpbCkyPp/g2rYOUqp7lsgyrRWxvDNtdwtEdeLdO6dk/uZzhAEYEYBGU9Oz/AFDfAspbwPVy0dEX5SBCDiC37BbnlXkCOQCumRxAzmu2Buo2PGWMwAGYzSffARV7kVHMPMBdk8GnYQABlgRCDENKasu+M/FzgPKMF3tZEsEy9Iu9ZWwr8yofgHbwcIAiAFq0BMo/AMhoQQeQIIJbg4qVv8NUsZLaTQGkgbbwWyc7r+kvkNrNAOi8ZlLChPaWbNnE5l97yva+MYF3YsbhiHamSWqFBR/RJa/0vSzqZ85rbIbX0eZb2hyyMyteSpQ+AEwBcD4uZMA/ALS3r1TfSknFSl96RGrbcaM46pAAOC+aADgvmgCMWBXwVkpEv3gAsecmdwBcO6qsaY6oUNDnxMqvPcSEM2p3R8LTvPhulaYihhW/pamIYcXf0tzlA4AS9Q1A+krTGg5AawdASrf0zDEtNG9xmsZGGkwKoNs7B8A1kwOMlGTRlLBIxUq8yvTDUdby2Xzj1SttZfZz0mX3aJFNZlM87nHsmNyxxcFRinIJYJXIJROIJtfib+mZ09EBnzL909wap5uGcKXxupewXTdFH9K2pDfM+G1pNNpuLI3R1NSZq8RbI/S2axMdv91jNLTxmJkDmG8B+y3gfgkIRqJfdAj2PwDk6Pb4pRs3d9kypvIAyPFLAcwNTQCcLUvWYMQqUqLYTPodkBEi3J9neyPRpkQfqHFH/WP+aOaVTLgupTEcelQKiRtUcEsQoWD4dMqI+MH97qcMoTdlJVPG3H8AeNdC85YKC/8Lr0pjDklFmkOaXl7RquT89AEIuwj7SqcAw/1RAJNUIoAzTcmiC/f3VrEy5Vaj0qf2mNyyIinzGznra0jiaGKbhiW9sTs3bNpNdNzm9NqIi26mZG9GQmwbKNY9I327GfbpjOyiNpDJvGckC30AWG8B90tANH/sou+3Yg0JiwPgkFcEmOBmCiClmALIdEgB76RkgpvSG/voafpwVYpkudW1xvk6N/RbU4YibbT5Vk8mjRt3IJJJDQW9S/OvwgGpntRwOEB9CxBbw6whTsmwUtIaDgoX5QCuSF36Hbg4MwEwX0NfCRVKCjBSErFS5dcJDL5btDTZ6TdnOK4Y7P/eMv9n1n0wQzsbWHvG9gBndiAnLC65ZtAtk8FOjdOce8e6LA8IAdrGedG9Y6D8g1/obwHjpZRCOqFxuvkA9Dtw1jIBkAZKAZwtSwBGSrJodF4zsVIh115iwnHzry0TV1z0p8d0Qi+uwiLW0pgKC5n+2Re3B9jRU+ybmx1tobbZoNqlUTgu5Aqx+76ZyrPE4fCA9RYgxgmuYQnf20hJuA4HwPpBAdgHSxhSfTNfI/0FIyUFmEXLXsIkZPYLaJxIHUrneSj7ymqa6OYr0gLHlLtVaVDDpcQnxy4xMpeUvwVgKOgSxnaA+hbQ3wLkbjWLDvS8drPj1yKZtN0YatnSJ7Ff7PilANJAKYCLDRKAEatsPmS1iFj7xayWKo2CLscNja5lweZfp4AovFLj+JLUZT1nGikkS2o4pjPWo0KZzBNQ/eABEiNzgPp2DdLhCb2sJWVWk7/DiuGiA2ANlABYAyUA1tMJwIhVF22kJGLFllDZh8N4q4zEPh+OjuiV0OhdqZhUTWF+Wo3ECz3Fu8QqwsYW2S0dbRq3/HgA0Xnd+B2SX+B2e3fNLAFedJViAwrm3Jd0g1l8Vd4SE9hMiL1jI4jOzSEPQKxKbA9wxw7iHhDbsXqAWPdmDTHjZ6UU++hyR8ytnXq5I2YOYIZUAiDTIQUYseqijZRErOShPNs7ZGk6xwSeAxTzQBNLxZ4jGoPMA0vF7ibtlDiMfQB6txqAXAJkwt1irH8AqC9fKfJmPEDKe/BuFeu+D9Sit5qhA/V0DqCtkQJIA6VreCslikqn34EsslsmTJzKL1pDkcuYq/23jBHom2PGS/zpm3NZMg23b/bjunTfZktgC0f3cQeQ3zplaxTOlu1Y+fUYJ4aTGFRWY/r2La1MG0cSb6kybxcTMVukGB4AEWJbrCI8AD5xkdrmAf0tYL4FrLdS2gLgyzhy4S7eGimA71YFGB2XAIyUZNHLbA0RK3Gwnu0dmQicLbtL9Ngb93W4pbq5cbOj54jG7ABzQ+8rds9rDXO7t8y1bA39uANYbwHzLaC/BbS3i34r1gTAjPKl34E56wmAt0YCID2drQEtgSt6Wa1hauq+hF1ktneRvVTcrTF+b2vUmwsmpJtknRgCvlfkL1WeS3PfUaHUxpeAVNVWrnS5paq2VpaSVNVWjpzcUnBdK1/3d0yJfAAYbwHzLUDFahatYuXvkADgS5dLpgxXni34EwTcTD9BGEHJMigVdPaf7nD+hWCUVR6OdkvW/DmlCJiRVF6Zp3JLsUtjiustfQkf45gCD7cM+2jGyxfGahtID80BJCW1TwYHE4sQUIeLhYRTeoiPJKUS74E2nIoIN80B0CktGRfTAJQeyq+UEFB50UpxNWJVEi0VWeQA3hoJgDdftBMHVx6qbu/Iuk1+oWHyNfkOFQPTd5UzfbnQRqgxrQtLd29pdPtclei/SllTvTgFIUXahecXPoAQci2Lw2TS4vsBUDorBWDJ6Ihf+lkDsZ9v6dhdmEVyj2jrPgC8jCUAVG73SsHLLzxC7haabuU0+91iGqUWDK6fdFbYrVwsryXUdTMtUeZetMZpdo2FLCQCn7pxoWxggkD6sDWelrOl01u7eWqRzJFsNzdNrhKTsoAYJvMAIec4gPBUzKKVCWPEqh8Om1enALM1mgC4c3ryC0ySSgBvpYQ5vBa5mG3zK8mt0Sa3VVsxO9UqWwJXpApUnm/73EtbdBwRW+4hAC7juGck5zx3K8ZzZOh74Xj/LXVQxfgPM1ZlfABYbwH3yzXcqrLYabpVSizWW6SECbMUQMZJCmApJYC3i8aol5Q1nc3Hi9YPh5G7KdbMzcHEGdt5FR4c8wCaLJoKCe+R7CV0aaR68titTGzpYs1gQLTFzH/lGtNbmoifiBEDAs+9Ns6l1pg1rw1vb3XAK7fSPS6NmHB4pqVuvJocXoml7LUzhanEpF/lQUpKMKqDL7ISqcYPgIzEBxDKBx6AaZsTg7pcMnpSo2HRPAD0vmJbhMdTRPbCFe3WB4COX/YLpgvOEgC6xyUa6w+A2iLcNRZO1ekybIEJU7n96V1jyWjl+YV3jVdl5QGgB3ALgL5DTbaGA9S3gP4WIOFTs+h4a1ixTv0O/OGmbg0TalEAXTMpgM50tgazW0Me8kR/+OaL1/3meOsViS2toFi3zIExUem9oindzGDiJQyMxS7+Eud1MQdwSQkE33x7ifNqCKhL/DgPaG8BUtDpACpWXnQsp7HfIRbsLI6cpADeSwpoTMNKAET0SgEspXAZP9sbObE7iUpXNn8iIduG7WKcb/CtMcVeKljhc++Y8TshYLIEhKt/4q30Sju+kgvQ7hjyKovTa1s8lMXW/Y5huw8A4y1gvV3DfgtQsfKX7vKlzYfrEvfG3ZoCOFWbvBKLNQGQlFY0TgpHEu8Z0zqVB+2dpItYAri9q7hlN9aunFxW0ECFv0ORi6w4WyMkLJrxp0s0dBuP/ToApcOxHzfEmjF+XIxVeoBk8d0rqVjNot+KtatY+cOFYeON+4qkAIxgpQAWq64BWeialL84MFiFL8S9IO4unmJ3Ia8YRDBadMW9VLgMPNGiy93eUYvyBKwcQBeZqt3JOXZVu5MDIap2Jwf7t+RFJ9MvVO36X1ApMSDqOLvorlIySrEJwChFTcqzgZUAWKxxey+mJe446rWY+NKOV2UxlVY73ksu7r2je1y5bvyWEogHgCFg6WteL/elY7iocMx4J2FsarFxa1K+cIA2A2A/bRnFcQD8pZNf4A+XAIyUigB40fodML4kI1GqoRpv0UCFA1LSi/oDgEjJvdL1ctFdpGTE2kVK5sN1WbTZGk0AyGrZMXJyFDuLNWYHLlbs0t/lOBzsocRk8GY9LU2eiml5nwHcK1UBmFcS8wf5fCvGNYqZVZBJCXMoS1LmXHN9ABLXMICY5vQAFSuvIe4lK6Vbxcrf4Vax8pdOALyXbvkOxC5KA1LG/AlH9DlxRgPFTNPFXQ52bF5duWWlSukBICt+xUhiNcWQK7lbMWUuIeDKPZtS6gIautJb0XMdhkSwsGovBTA5IhIxN6usGU2HYkZxzGicFDPsY0Z7qZhxIjKdvGxmAc+YmvoAIDefASwVK69BGbRGSkulxGG7BMBfeslVafbSku9AxTT3jNVi5zzwKymPDC0BAZyLjAFLfCBzpqN1f3HUQRpKHqeJrvspUQd7zRTZrWgZzzhYrCyOws3YMaMMRzEMScjSsTLrSEkAaFUqibHj0JV7xZaVDwDj3pK1fABGZcUgwnAxsrA1CvdsygFszSQA1tPJGliLxtjMYFbLkuiPaeKxJL40mMS4JILlAUsALNaY/PK/oFLiRcdIoumNsuTWMN1XJIt/vjQDQh6odHfdR3fAHFE1TppTWTFmbNjYUy6ByudhCPu0YNr/ltl/DwDPw4xch1L4laZEEk1aZ4rDYaIOSy7j6s5DtIyrC6rFRZsPp3HvakPxCjDBfgWYdHMANJewiLdG4+teswPNpZvjrdFYP2iGo7n8dL3fAtZbgEqJ1xAvMiulqNjtd6gqVv7S0SIzNeDSW/EBGGsmmj8mKr2ETXFxoFyY/ZsTTTMaAgunF95TpkhyakA49EaDjhi9MtablNF0rvMfkfRstOGI8brOfMrseVY88j6oO5P1olJI5IkOq3yvzi70kBapHLMSReufF/mY52W97IVdsl72eOKkDhdXCSrT1AnMSAwarkAqzqjn7q5SFDacOxWn9+L0CTU3p/NR43BTx2gIwYjJEUyRz+T7Z0blbdoeTBm+xxf6iIGIwbEUmYjeOarQo3x4SsWhlMTnMYTcpYkgTkM/FU7xvqJuq3eXjrGOtSb3CSb/hr4/9pAYMo7IFfvV+H1RPhLkHC4NoefR+Ivx/U1Sbsh5YQNlxvOL533FyJ0579J5anJBkGSOeFhg+rxJA8XnMSwoqa/J+kh8MlO0Ism7yeddsoOmZEXylaZiRTKo/u/Levn50CXD1OhIQspUDSX7E+2N7Hk+LyvKk6oFzvNRPkhzXKpf0P5fMjEXOxrcK7rPg6mjUhNi7tsV/Qtz/4v9YBmRYg+bwudYGuFSGaFMrWHzkHsK29fZn3HQFadLp3R2df5drBJyteohx1DZH5zCQ+EMg7ZJcF10Ypkg+8tDKn+5Uljsh8pMNy0J58IA7WTE+21E+7Owfd4lusvZQhnHWJw9FrO8TGTqkYxV2B4W+7NwCL9H+/liefZIkbg4PtCiv3mx/dCi/XBxA70WGRgXE+mT9zejNQKRjKcW3T3e/xfv/x75HRfbh9JC/GI2bI/20sX6aMQkqnmfESs/L+7yOKK/c/H9OWK+n+dSabzo4vSP+Kfm7089L5hDmDE6br6X+OOXy4KseF7wfpgvz9eKIdwLexVpevmyAdz4vYy9OuLfx3iR2HsX0/7FHi4udx2zUI7ZHVN1rH+Vh2cJl/HvG/nPqF+MPR8rBNzzoo+Mfyf63dh7MUfH/tfU9WK8eqr+xfi50lzY3phRHxX2R4ZwfF0brRH3p3k+MiXc8zXKxzxfXv79yBLl53u8/+3zkdfnno+kCvd8TOO5569X8mxCHXbPxzZS7vlIxeT4qkzKKOzvyIigyvq6CUWX4/9aQ8j+RY3xE8MR0KYobH9WqU5if1z6SNputSGeWV0XGHke7x9tIuma4crzGN9Onkf/V57vnMOWrpmd7VvpFNpZX1eN57tOQi08j/Fq6Txk8h3S5ccQ32qk/A62V2u8Twb7s1IUP9h+qDEeZTpOy3mfTLOQ/m+T19uiv8CtQ+4W4zmmQVGL+VNTE9rihCjDeU2ex/3coj1m6jtlctji7yW9fk2fhxbvz83xOtFfPM3wbtE+NHUyLdpjm+3PFv2FzQyxHuOHdmRByI/fLh4S/McbGwZpvvV2fIkd38fkiyPx9nKU0mggGg9YycMX9+CWFMYBmByMkJIc4I4A45VHL8DQnrTSj0dd54B3jufFJy0FvKtWNOVcmZRcLaHsJVOHp1/auOcxvHBh/2rNh/3/Bzz/8O//9Lc//f1f/uXP//qv//G3v/7lv//xx///L3/56x//21//8j/+7Z9/+0//8ad/+vc/Pv/2/wI=);lineShape=1;strokeColor=#FFFFFF;" vertex="1" parent="1">
          <mxGeometry x="884.9880965174069" y="-706.797029311281" width="35.11017984378913" height="30.377229746505055" as="geometry" />
        </mxCell>
        <mxCell id="xg1OOrG9r_t1N4pU3jfp-105" value="" style="shape=stencil(lZbdUttADIWfxrdnpNX+XlN4D2YIjYc0YUKg5e3R1mOIlkSd3vnv88pHR8c7yc3L9v55MwV6OR0PT5vf88NpO8mPKYR5v90c55MeTXI7yc3j4bj5eTy87h+W8+f7/mQ/+nV462/4s3CNUEKnAr0vV2JCan+v3C3Abt6fAxmlGCAJWnWAhsoGyIKaXSCJAUoEeyUltGyAqis4QG2IFmiMFh1AVbIltYLE14FCyFYlJgLRdSITJNolGtiRKRGq7ZzqQE4jooBtI2oFO4BUkAVK84EMsrrmBhIHKGMjUkV1VIphXCGqW5zO6W1pFggITklaQK4G0CKzs0KuaMkCGSE53lARrZlU6OB8dG+TXUFbGfyBoGFG6V8zykPjCLFcB87c/OkNWoPh8hI6MBbQofJa3UdysGtbX3FZJh36YUg1GJySeqzYkr6i53KrBeXbjFYnBjQa6wBofHozmhCHoVZZHTN1QP4HkDima09Dx0whrm7+BBKyE0yc1rQ+i43ofHRBtW4tDHHaEMYwzrym7cXn1ar2AxKvKXLteWuLSODg1ZNsYgRfUc0TWz831xQcR4GYkZweBxmBBHEmRz0x/Bm0AY6garpBofHfpgdfO47HebdbNizn98cdil5adjdy+wE=);lineShape=1;strokeColor=#FFFFFF;" vertex="1" parent="1">
          <mxGeometry x="883.4390745222674" y="-707.1467509641122" width="0.06975375146307336" height="0.06996773263825354" as="geometry" />
        </mxCell>
        <mxCell id="xg1OOrG9r_t1N4pU3jfp-106" value="" style="shape=stencil(lZbdUttADIWfxrdnpNX+XlN4D2YIjYc0YUKg5e3R1mOIlkSd3vnv88pHR8c7yc3L9v55MwV6OR0PT5vf88NpO8mPKYR5v90c55MeTXI7yc3j4bj5eTy87h+W8+f7/mQ/+nV462/4s3CNUEKnAr0vV2JCan+v3C3Abt6fAxmlGCAJWnWAhsoGyIKaXSCJAUoEeyUltGyAqis4QG2IFmiMFh1AVbIltYLE14FCyFYlJgLRdSITJNolGtiRKRGq7ZzqQE4jooBtI2oFO4BUkAVK84EMsrrmBhIHKGMjUkV1VIphXCGqW5zO6W1pFggITklaQK4G0CKzs0KuaMkCGSE53lARrZlU6OB8dG+TXUFbGfyBoGFG6V8zykPjCLFcB87c/OkNWoPh8hI6MBbQofJa3UdysGtbX3FZJh36YUg1GJySeqzYkr6i53KrBeXbjFYnBjQa6wBofHozmhCHoVZZHTN1QP4HkDima09Dx0whrm7+BBKyE0yc1rQ+i43ofHRBtW4tDHHaEMYwzrym7cXn1ar2AxKvKXLteWuLSODg1ZNsYgRfUc0TWz831xQcR4GYkZweBxmBBHEmRz0x/Bm0AY6garpBofHfpgdfO47HebdbNizn98cdil5adjdy+wE=);lineShape=1;strokeColor=#FFFFFF;" vertex="1" parent="1">
          <mxGeometry x="883.4390745222674" y="-707.1467509641122" width="0.06975375146307336" height="0.06996773263825354" as="geometry" />
        </mxCell>
        <mxCell id="xg1OOrG9r_t1N4pU3jfp-107" value="" style="shape=stencil(lVjLbttADPwaX4l9kzyn6X8EiNMYde3ASfr4+1I1VvVy7Qlyk2WOdpcczlDa5LvX54eX7SaF17fT8fv21+7x7XmTv2xS2h2et6fdm11t8v0m3z0dT9tvp+P74fH8++VhiVyufhx/Lk/4fcY1qrKAUvhzvqGVav535+s5fr87XMQX0jbEC5PG2/GRJAzxnEnD7fhAYYyvQgXsJ/j9lAzjC9U6xOdIy89b8UqNh/iUKFVw3kpFB0BkigUAbIVxR/YI5tuAlKmNKYqNCljBziBjjW1NBmfIleKYVCujKkhqJFafpSIAIKTZr8CARtXSOh26gkNXJU0jUfuSV+Nbo+R2RAk8n0OnWY8PnSnX49kTdWX61XixNozjgSmC/Yt2lq2N0GlynddCMubHpCCBkqnxdNyQZbRhgI6ksFYrgEULYExpLr3qtwCuBtl6DTWzdM6sAKXcAIApj81ZAgk6Q/P6Zb2BeKrFp9UASGA0X9lSQIBE2WVJKKBDR695JggV1SFOdUjUUB1shbEOplGMspQ6N1eAVRpnyQMq7B+rg6OG6awgelcvMAaAleZpSwU6g7G1TGeAaTUyq8+SoENr9+61cAG6fwyTP+cMzWeRDddyDfPbhMmx7wOd4W6XFw1RgBRbjxY3MxiBUV4rBZ4AmH089SjkhvXL1KOCWu6zACkUnJ8I3BKLHwJskGlA+jhOg4zA0apZCztHCVBnWvLDqnmWACWz2dErWYIWVCc1NrZGsEKZTU4pIUD0hVuoASYf88CoHoDk23re0XtxRdDUNulUd4aCZ1zxw5iJgCBA6u1ywdYKADKZIsO6sSdGxSIjxGN8w/uJ0buD2EQMRCnm7skrQOGAa4A0FkGxKBnA2frieaB7DOAa2jxP0ZtJ8u9uppwwS6lTfwUwXiF65pldBJSlMG0Jp9XacxSACwe7AYjJL4AkRihP8Rk8n/3Lm/ldBjllL9uW0gDM7bPv8x/H28X/jwdPu/3+/O3h8n//scFunT9U5Pu/);lineShape=1;strokeColor=#FFFFFF;" vertex="1" parent="1">
          <mxGeometry x="883.4018595039677" y="-707.4240145166362" width="0.7002145832597807" height="0.3336403666425378" as="geometry" />
        </mxCell>
        <mxCell id="xg1OOrG9r_t1N4pU3jfp-108" value="" style="shape=stencil(7Z3drmzHkZyfhreNVf9V12PPewgQNSRGFgWKM7bf3pWme3fviO6vzjFmYBrYdyK1g6vXqqqszMjIzB/KP/3jpz/9/ccf8vWP33795V9//O8///m3n34o/+WHnH/+208//vrzb/t//VD+6w/ln/7yy68//suvv/zb3/78+z///U/xl/G//tsv/x7/hf/xO67220iBytf//P3fzHqr63//m3/+HfDXn//2DFi32RWwANDqrczPgHYbBFi3nj8D9o8c7wG93a76GTBu6wLAujV5h3W7ynvAyLdxfQKs63YlAOxvMhQwKwD6rcsT0q13AIxbXp8B+0dmfML1eR1WvV3wlfZLt/YZ0G65wWcdt14+A/qtwFfq2d5h3BL8pLY3wtQnLNgaLd/m1He44B1auuVh6zARkGQvjduAvbR/UpLtXW4LtkYrtlvTrdJX2if48zrM65ZhHTZgfF7psW6L3qHe5lDAJIAd0Q0Y9NJ7q3UFdFrpdmvZAPyTxjIAfaV9gPwnwYnbgOI/Cc70BjRbBzrTcR7ss04+QL5wZCo3YH3+SXsvXfyTHJBoHfr9BzzvVtoaXY3xPg+Jf9IlJy7fKu8lsd77iA7+SmJb96U4D1tDrt2Ptf/Wl563RXZpqF3ahqwyoMkNVG6TzoOb+3brtHDjfo0/WW+6FNu875yn+wFt67xfH0+ASSdu3q/AJ8Dhs075Sfs/Qd7MsIt9/0jafONW7Al4Hsbdd3kG0BP63ah8O6A6gI9oqvbS9JWaGoE12RNoL96BvJkN6J9PXGwNWul9oQwFDDqi7e4HP23vyuY+y1dqt8JGQLdGvWV6h37fak9nGn+Sf9Zyu9hUiuuw3dBFlq9p/BB+K2++y56AZsau3Q1ofAP1qoBK6zDMamT2yPaZHgoobDVGsSfQZ533ZXoG0BPmrdg6NNpL89Y84KD7YapzsgGTPuu83zfPm48/qzrrhe+HfrdCTweo00+qZvkaewI72r0MQNu7WKTY2C4VW4dteOhMl1uyGAgj9r2u/TsBxSJFDGmSmcrGW+MjCHv+rLTS6X6CnwC4vZNZjXartL3T3fQ+h8f80v6VLlq4dGtyHio768kWrt7/zbuFq3aA0HqXuw/5rfdDUX5pZXZ0i8YPJ9tazQhk9mY+jvwTILEnoMxJ5pCm2cIdActMJTqJ+44zAHEzccf5DcRPWHYDNQ4H1PfOzJx4hJLv0elbgDsn/NLLdmtm56QVBWD8UG7dLhQEJLunO27vOs3BGviV6qv4AQG+l9b9rd4BNCxbGCnWD+P+BFgM0HVYyPNtgNxx6brQd6gfAfrzI+itq5m+dTdV7wDqfC+82euH7X0CkO9Qi3mJC92ZDej2hEZfyZ2NhSFKPMGWmrjHeAd7At0oNdk7TGSkar4H6M9nlFbaXbLr/hneHQh56dmQGYwkyud3mNc92nx3UefPN8oYHAQVvVGC/+cIXBzXsc8UG9f2+TwMzhxFxCHc495dTP/I9h6FL+qpbuUGXARY9tKHiGPpSo+Mznf/yBN9O0DisgDAZ90AcY3jHfgJq9tnpbxOUkO2AeRhbYCwmxtAvnQAfGvQOyS95EbBYHQDclYAXdQbcBngwAyKhxVJQDL3w47oRG+9VKUSZ0W3Mi27UC48QMP81nb/zq8fYPfPQB8x3c/789/DRrJ9tP+e7Ko7VwNzQJeRuae/19vwg9198/fF/p4s3qVWfv89JSouu9nGPdn+7u/tv0/84fWCHaf9c2mWb/892d/rbneenGGydZeRKx39yGQJh4bmPaVbFSXBxJs/W1rmkKZ0R7Vzxi7s0GdrHVlzUhIkfUJkRejQNw2rHjm8dwA5lpFWhK80LDcbAH6CBD2NM0UbIJHeCdBv+TIAfaWuZ/kRIb8DSDL3QRu/A8gF0vj0bICY34iQYfMNSxc/GNS3P2kpgFiDeGkDEJW+AdW+EpH14RjIV1rs7qz73vw4QBca1T7siHLmtDc1250JpZ71Xu7MooXLJu9Q76b2nZ96GWBwpkhM934rJGOyZh33dysUSg7lGvtEkjgiQ/HALkya1MsAH/b8tUO1zLHNKOsqU9nMDaA05QZU8+YT+XjzxU/K9IShCqeRMeDeAI3bMuZmN0C9eWYzy1C+ND4rvbRJQPbCUZBUTAe2AXShFEt5bwApa4oraxK6ehsgvuRgq1G6BasJbev+rNm+Enlv+zwIhbttIZ64quY+jiisdJ3KlPRDUj3fBVBPgAMtIeK33k80tNxAG4BKgqXkZG/INW5jLOTNfoeDoDXbOhQiie0GCqeO1XLJjijK66rREoUFS0VTS6OiuQ9m/FIA5tOK6oQ3gLjJyGtmAxzEoEUBqPjLpik8ArL/JNoaSY9oADiJKEc0PushiWjrgJsvvViHU17TXjpx5lQSDidqJamg9UDeRI7cODFMjzWNRPcBohzII+L5xksxxA12plFJYFYjbiD2+UThNBLrU9eLG4joj+AmmwHI0b2ME0ss5bcrKy52ekJ6YfkoG/CCCDw468nWId/379ufZHuJiPF4afOXaKU3QJ2TjMxhRDz2Dgcpjpr7clJpZXnpekpQKHPSWKWV7tfHB6DfywdeOyfLOOKOX6n6Aep4RDcgz+96wtTAbwOI/dkAVYR39DU2QJ3EjqrF6vFDZwZrvPhKxNVH4GeASl7lsKzMYaVNBzY6GuN4gqxDO3H1ErxuAPFL8ZWWAihBUYcZgYa+RuxWz7+xlk2TLAnT9ttqCF2/wwE6ouHLCxHScB3iNhCqJeOJG1VPXE+Yjx5VDVncSQwQ/VHn1GzQp8YvUYSyAdWeQITUaMrzBYBqw7ry9gFgJjH7SzO5qWTOheHxsBR5AIgz7i8WjixfWNKsAEoOPEzv014i18H51rjqDxTwUkBmclMSFkE9kjez7B0yksy9aIqvH1LkpjnvFXNM7VId2DYCWFFqQvvekcau2Vb6cKEkLUfoB31G1uqzzt5MdatR+MqaRtAmroWxwsTObGgE4EL2L2RDo+RO0gmTxdFNFVGhEWchpWzvxhdKsNIO4Bq94j8JVtp1kQHgoo3lX4neYejme+ha3gHyUgBuDasuCCEM80v6ldapiEn8pYhO6bMag9UWKgmasaGxW7kEVXNZi0mES+tIHrHju/yD+N6dK1VK11g0ki7wlYqbyo40RW6ahAyXiwDVAB/VMa8B3QjaiorwYuFxZLco6dKNb71Y5Wiq9tit5KzbhbK3I0o7h5nKgdeu896h4CZTmdVZb42lbEMzTaFzP1zskkg9qLrWXXf8Acgn50SC18Z00bCVjkuM/Nap3EzIpcmFm+rNtAtXegPEXzo9YWkuKwAUPywzlVydvAEqjkiYwHsoTJ4A1GbhUWr/BCDbGgBbOLoUh8WijYnBeGl7Anr3S2WRjYnBDRCRenDttHDTdiu70sPkePGVYKX3iUsGoPPQk3qVj/KBd5ei6JcO52EbsuoHiEXtlwO+y/duF+d2l9KnhyeUab7GhdkBT5k3bs5SjPLaAFJTFPfILuQ1NkBIhMaS88ix2xMw3TxUz9ouZE7KUH9pA8jni3cwAIojzKusXIJRhhJSlbtXxEonBeBKT3XhKsvzih2gA2AfILmyosKHz7QY4zqw10o3vrUyBTwvJXOiYAfeYS49QLWhIVtNvZlaMcceZSlJn0ARyvoIkb79CbrSLNdedgPFT4LzEO+wDMBPGPZZSSz0qKJ6XgdY6WUZvw2gZPBTFdUTgsjKR1HUE4BIgbVs5Rr6Dsv8n8ol1htQbeXICjxKlp4B9JPmi5cmwxSdUj57J7WjwmMuTQ9U1sHMopFfPQhch5a614Oa1PpSRVqFvEQrPNkArPKYmkQJ2owAw/b35CqPYVuDCw27x5YJdTA7LvN44JACV9eYM9ov2JwDoFrkl07l+u7eHzKp1bx1zBEay3z4rF5c+SBI3/qhDiCHaWp5zuEJpZvzzXFZKeaHJqR0S9IkykPd85rNsYK4h37oHaDZwpHjugHq3nPfwjxexZawDtnsUkSvsA7Z6sofCqV3nJd/JaJOsnPAF1qNAHQFULibrZh+AyhjsQHFwqzDV9K9xPFAni8CCHL6NsCDUVQm51feOoeKUgpcOcVRLVSsLHD19EDlfEKY+0sBZGa6hyjcKmtYkVjlVlkbIGnLwy06rPSxTqQdRnrx0kStb4DccZWbog3jgOOz8juoazy5csVa0gQ3QuuQlQnZABJsDGNzKieCQp5hC4dFTUl57MolFsM0VfsAYQo8KatWufpmXObdc6ppO1jD34Ere5ttPmx6YzzFQ2X1GlA03/ygzd75S35EyROopvWsE7mWamma0A8xIFv8QDRcNev96BPy7qU9UsR2F+acVO6XV02wET+JnETrbFI5vxZRW1YAeQLVyhM2gPIJ1dosVO58FRSAh8f0lZoqCyJiZ0Cy8Jhsa7yD/SRs2dHsnq6n/i8a7XL5WuwcY3MOPWyUwuJOcBHbtu8CLE1m1coZ7Wy+Rj2JHar9JOxQaXmdyr3be1Y3NLYGuT9Z+wsfCKaQyRQFoOLJ8py14VfaALUajVXuxTYf80tRi2kvTcb4BYCbs7z4SR1rMnoxr7KjauvFZ2V+KRbObCspALu1Yn+0zXkH0IudlcndOqsfnhAiFnsHbGlpVbK1c31P1sxRrAOZyvWdxKCrqw+br77i4imkqRbiRxKQAEuZk+gKxWWEQqpVVtqEsyNfidVz1apv6nUqb1Zzf+hKbhm8wskst3xloSfQp5IIZWHN3jAK+AToqjHcgIPmdtkTyPceJu0v3OJsWPvs0zsM7S9cFjenmKrwOCxcqFRk83GecwPU57tYaTO14rpezKxPM2QXB68mP90ADF6H1rtFtT0D1JAd9NvGYNXDyBTLaAeAFB5WRlgv3EuhQ7YnkBvaL3N/Lo5FrfV0vbhwt5iTyOq5CMvsCThIw4rLAkA/6bIcCmsXHjqCZwCVQl7aayK2NxdmKftzcan8erFwGPgtbVlQeSJQs0TqwS6FeMKNMQtcqz0Ba1itOrMcRqZcKnss61TenO1+QIC1UtkAikXb0HUoC21rt55ZZXHh7lD2J1Ql3JBYfO/C3Y4eKZYPQGNNlWkMNyCzwFXqoQvPJ4kwzwAHXkM8slL4s1qvsHIYHFDUepdD91/zjAvXZIQe/FIAEYPbhRMWrhQ8cb1qOFAKnocQX1d7Am3vprb19JOain9KwXs6SmeaApCgbcrdF25e1G0y0wZgibZxxhuAg8dsGEipmDjqTZOQG4DSBSPVCtNFvZrfWrmjZVUxXKnoOvSqpcEBoL1khFQ5NHaw8ubCtQDRRSEpgI5oa3aLcuOfiOOSArDUJatdyqwIaU3JnA3A/vNDj+gG4PwqU1M88vpvvUoD4C1qUp5IQLP11p/UmQKemnTJDdOc1TKvuaLAtRobugH0WYNCk3coLJa2qUYbgNy9FQRl7lIbAPtJJ93MpQCsXOkqrMzllEMRUeIGYENvky5swInBagbgJ0x/Ar20b76CwspIfhmAvMpqjeHis3L5Wre9hAStdZ3K3DSnm8+3zwNOFC0vjijWlXQt58ycmhpT2/pn7nHg5Tq5cfX+MuvdeCqqZV4za5+jEMVemqSeY2kiNXfOsS/bfEwBx09aCqA051hm+TrzS1YFlTu39ZzqzWwAkcwbIDxf5q4iwZFlA5C+ddrW6NzYwcaNZE7VRgObpQA8QNm+EjdV60ZTHKx3Hypazzz6sltNd+ayqV6UM86J1RRW75a5hYcP7doAHCaYX/wkDF4/lD4fgOuUQxGvMjNXWbOGx5mJwdo0/5APClrrH5Mz96q7lKDNhYfNWi4rV55JVzWBdzCVIUOWhesY+EVax04cdmyyktS4UA4AM2R0gB75vSdX+iC/UI9ssldZdWsU1oZWk6DvKIuaDFbLvBbu+VGTpaZ4Ylyk6+QJgxmsZJHiZJ/PxHOFRVvVehFtAH4lU2NvAHbOSho0FS79qqYjK1zOUC8LwCcbssuIkENT5ssYXQYUK1wJAFXULWNDJ9a7bYAyWBOJkGJTXwq38AhK2QCUsAhK2V6aHKxiDlYZXDvpAO7XXaz4OBgsqn9YymuUgpavLM3HFZ4oWsx6F66Hdr13XnxEL4uyDrpK62oeDTEOttUuRTxxVbdGLii0qTauMPPkvodU7sl1wAZMVmGaeWS7/6S0TsPWhF9KPMi7muuQOra/qFWDplS5DteEmInJ/jqVkNqAQ8ZPJFWJWYdoN9wVgL19q6paNgAdLKul2V+JznRb6pElrmHtWbP4iUP8YKWbAjDgsLr01LnCwnpNbACyDjYwLnGXnVG0Pm4D6H4YVWPRxIOHomdzUQCqKazMfAOIxh5V6aI0cbcOyz8kvuOG9SJKrLuPNtL2BCRzTOqZ2JV2hVSa3CTE4riwfLyXxOc7Ay57B1y4pOK5NFFY0Ied6Yllh90S2mmchq0Jc5K49jjs0lIAzr+1ob+pnZQI3ewSJiyWAY4C8WU3ELYxbHbHFTxA1epQUmZVfNZqnZQ4LLvUI0vHERMynSqx8Mz91sUlr1OtDLcYjHBDmj5zF91sAx151KeNyJjs+XRl7CbPT11azM3BT0s2Whf5jOZXFZd9NtMHpIPgzAolErdVDUVOVsBhfFK2bU2EYKTKvw9gJcSJa7+3j9ENgB5AUmI28biYqB68vusJ2Xy9xHx3fnH4sUWvUb+Jk/HDigxSRiXIsOnxKXPZZ1ElSOLe+8O6pIZNpfu52Gdl3dJjBO1zGMALp9FV4Yl/2XYrJx+HjVAOAG/v5i9NeQejTRM3F+weyqRT4ZD6GBdrfpINUsfj0K0r0mTZ37IZC6zv9Nb+HB0O/e/3U9pEOwJwNVnV/37jes9snR+wy0LcbPb3fHN2/T3IEFsgefh7qxDnvy/L6ltR9hYqUakgQeGRz5bLnFKyYaiZNdFZ5ZAJ4wrPQPEAtGqCf24y2S5zTnlOl5UWXtzvt+l+vtiTmsp3ssb80VL/8feUkIhEaZe/p0CwN3UpLu7sPnV/8t+PSxmCCxm2uMfE4DIpkq36iEcKJEsUMMORTO7OZTuXNZPimkuvYsP92b2Gn9d36iXME9j6tAIzvr8szD8Mbbf9k5mHmyYiQfFPn9qGJJ9GG6h0gUUtJuzP3FLEOlPwoM2RTLfATlY2zQzmKsJf199D01lGNk0/9xnOaq8KNwG2+521i+FUSiqR5yNffr6wycyl+5/FyN27/qG92vtTM8xMo1mRXjntf02Psc89LKfOve9c5IjNAL7775dluvh7mtQinYrilcfkv7f0e2J/YOl/P59GGKh+kqdLGp3H57dZXMghlet1uPwl8lV6ftEftnnlhXtpWa9pLjSpybQJrFQ2f/6obLbvg3+/TEbDaqbs9y82AapWxcL+8ND7qJxmK+bP37PycC6rfm1c8mLDTztH8EX9sc7179UGMXL5SlNh1UQJ6rY/cr8s5gdMUJoODr21602s6fvi/H4HfHF+/59wfppt4gshCg78HegANctFHFycYgfoAEjaoy8dakanEZ0HkUe3leacXCtqxhLLeR7DDJ5OHGpnTLiVDkMghnaPSIfyeutJlpjLiHYun83M4qxc0liOK+SqmbGDhNayYIsLrl1+cfFU1WYJ7cTq067e0cFMhma9KADzchZvpcJ9HbLdb5VHBTbbR5WTkZbcTQ0rXXpWHyM1HnxsBXWpn1gHFwsdWmhK0UcayGt/iYXugC+x0Av37Q8mFhpJo574rAca1NYBhxwNFVenwX2wqpYdxgEiz97XYSCVGLWWpj4l3X2blis5JOeaPaFxdsK6XyRurNhsLl8InrgISlWPBwXtVK30SaNrJUonFbANajrpjIdxzBcX+lpS9Zzl0qLAfKrQFssXPCq7DhLO5MYF19Wq/Ttn9ooVcrGoqlpj9ry4tW+22gFW9tdkfU64dqAm3RqH6oRqQqlD/cOLJ3CFRQCE8OEajq8SpTvgq0TJAX/AEiVtDjkxHCiWgIkaP34HydCWQwdx7+VVubznuruET2YGRStJ47jCcsmalbXOExm4R6fTDwCPXdrWW/rCBTHL94MUTOTKypKu0Xqk2sjXsF5ep8rgYrnawzjcS8U6mRtRV5vIFT+J7+ls9zQOlbdJHwcBTrHJaNs5wU7uRW1r4oZ+1Yr3N4DskjfeTUyEtFcRyqHDk2a1Lx5OZY0Vw4Vj7157F10sdKjK5mbWrEcmQX4Sj/QNqYNV4B0mfWTbS9jMwkL8gxpk2JCw6AYD7/DVq+VuW796tTjgD9erxcSup3cw9Uzup5IAbfPGFUf9elUZfKhpKgrAkMaKM3PlLlVfLdLuFzu/9FeLtPz/vkVadX+pcqYsm6PLPQZbs0vxUHY4zTMebDUsAM88Ga0XVUXndSq41sCPi/ebfdYNoLxuGyZkufDEBblpAGxEbWT/BuCc+64+X+HG7F5sUXgm5LbekqUpXDrZ8wsGC7ur/t/0ArYGyF+9gF8AvnoB/8f3AvYeUvU0xthXGiu0jVkvRxJBBYK80j4VoFSeGfzqJ+G1u2ylC4+ZefWVqNNWK9bGp+EBal3vuAOptu8Hb1+PQy9MKFgGK6GrhmVlntqm6zosPnFZ/dbKxS3hrNvQC/Q1rNo/RlLQtdtUu1QP164P2Lq4G8zXpI/7Sv/nT/ogu/Q16eNbADbIpjBX6aNyCk+H9mE8AaBL0cb9nGZNJZPAf83LegX4mpeV/xjzsnz8FRGDxpxULqEdxWYGM6AvbR9TL44fit1AXIUawWtWAAV+YZeaAnAmZLLNl/AdWrYBjPk0f1rXoaDwrPnkzIq1JHXZpPHG3IwVo1aOH9plo9QObGjWG6geUoSWwKvcfbtZdqA2VsR/Dbf9P4Cv4bYvtsYfbLhtTzbBlDtXN9OcHNahdeWMa2eB+KtpuIdJssL+BIDJ/q8R8flrRPzrlf4DjohXU8nKnGZ91g9fqVnns8pVn63aOnR2TqwZWx2sAvYJ1wOTX/ulJR8XH5pfWr3KwZbPxBGVKyw8rVO5wqK71RhIDI5Llcwht+biUp2GO7mfQjIzw6mpkewWndxhIym5WbkUYFhLpg0gj2wkjacfozxeA7IWBEaZPL+08nzzJOVRV3pyWGadSSvLVUcyQ7ZYpJI0p1gX7yVrjRIA7q0j2YF6yFr6AHd+Qi9mBBa3b+gWPyykHl8MoV/YUOLBYtwBjdnQh0L9A5DQ8j3G/D0B6MoKrWlXAFXrRDa62hNga0SRflMASXmytRzfADLG2XpvNo7Ys5Fq8VnhygqAdEK4MBYNQFcAmftsAo/GI1qykTntOn0luYEaC5OztZ8Jcp5WeiqZEwBqeJesAR9n8YtNnXxIPl4DuqUTmDMupgKOiIILJpTXWKdBBerzMUEbzo4ZMnThLlUBx785NGa03UoCwGbTGRqTm+Ev2QEiR7ctdaUP56HbtXt4B88p1sVJSJtwXbn4pg/j+bhh57jMSeynAYzyWQ++9xi2Wzv27JzWNDViUQJYF/TKot7V1AjUhvH0muZrMDG4lh2givf0skZyEYvC5ltLS7orD71Y1gnmETC/A6ije/hKyxxdph7TZVnI2vBGWaYLC+aC31pXriHLvAHdqESylctbuDX0pTcg23clscPyC4IV4ssTQQ2lCKu9eAKJ1tdlXEvHdNm8LOJgO9O9My2Hu97YIYIgZqT8oiZpf7Eke+O8f0x/sxuFssHFaokbp8vKULKyscZwA+QKCgC9g5nvUwBhGvR2YQOpAJjTR15iseE6DwnH23cwAA4uGy9CRUofb0CzYBSrM4elBzjvX+YLl4yO6KNM9xsB4Vaah4XN+6rmatuF8bG3gzmsQ6taK9YO7c6sn2kAeO6Se4nknYxqgRwLjcdUM9N40GsUNdmZPmgXJJ9weoJV37RDm+Sl56FxcdmwXvwtYVw27Np9pKzfAYaRAtgqdr0iBbhGqdtXItdhWFueIDZo4czpawk9gQ0Qkqzx4OMx9RZtmRtuW6+JduhQbB1RH+WX7yIOvVAK03DVGKkPw/Paalhl4/YNiDRuxS72znUl5um2wfm1qSzz/pGYgOh2Hg5NEazzeTt4M1Pd0EjG0h2XVaXSuVl6TBH6vA6d8zrZtDy945nOS5nyzlKEUpUki8Q+rXTWI9oPEwmmdiSMHqgsnJHq/b1wuL2bJrNiaxymI00FUNDUmpb7t4krHQ0GHcAdCYv/JNit7dV5wPoe50+5OUUbxjJzEqUNVZM2TqI0970nbj5P+TVOQDTzW9shATEsQlmoqWrOY6+TpFw+az+UfmW9sjrP0KhLbWt04ONyTtnenQuCalYSIcwMT7eVCyUaA5NnbH3LOxfTRCNvN8Zc+iXtYKL+gFuripPYORG0PQFdByZcw5W2lcYC6qauQ7/QzGxAtScQv7QBktHuXM8wujJYnaPd0ZV7jHcgv7Wr+xOflVy4rpRu58rGDfCFOyjE/Y6jAzRM8dR53F78pKIAshobIHRoTyzHbno/bABxM95f+TEs5/UBmhqhRNkf6/PkfuiLTWVXwOBxJc2kCPszkK9Rl/JLsTIsnMnTAFyiLaKTx2Z5B9CRZB13a51aRhgAlkhNewf0vY2FG9xrIqQ+BsA+PlZiEXbk0C55KADHpZvrMBpfu0Pt0mDeO76SbT7somCtGAd3d3HV1mjc4TKpXRrccCbaX3w2laNw+VpXCW10s+fgVTcfqyOaNZx5iHXeAXS3Jn5pi3YDQMqzS/PNg5mTbqVf8dJcuKsTdJk5iesj6TrgwNdkkx8yM4nWy3RkZBJ7UlZ68EiAhx/8BDisg9xAG4CdqC8bD5lR1dusy87gFh7N2lTFAeJZwOKcRFupw/BgO9M4A6VolBWcFj9BEtQPEuxtSFMUgNoFq1Y+A3S3HgrZkx2gil06H6Ku58/Klb5q+eqpGbCvA2pIkl1ZXPkeADkPhccx2TiaaMjN7yDB6zgM4Ckv7BJu76aU17iQ52vurHP7bW9D0gcTUl35pZCh0Fey2SZ9cLm/qRhjMCE5J02FlX2xz5eVhRs8PMEnocb9cMjHdQNQMnhqxfXg4X+ePQ4AT39tBqBOQcXkRQEgbdtQEiGuXXppvx8ScmTF+loNnvUTgKwAJMq73aLcfnsD1NzzCKVipFro3kmUaO3oozkj59iHeWSZXtoGIQ+eG1Vt8licuENtjNkl2q3NvMrOBXLbWZcD1FlT1YaROYWd9aVp/87+Urc63M4nrhdjQ9Op8c80Bgt/kvXQDCEkT4y4jPdGjqypvxReID2h6VeKS4wIKWNDW+d3aJYM7lwAYZVcJ0DXI9o653a79hd7pDDeUl7yDoNzu55DGZh5dRaucdvnYaayDSSZ4ydZIhWLaYzna4Mbh1o7yZiZySNlVX4xOWgyQOfpWpF/MBeOfL48NdM0uR1MsghlLpTQFl2G1fA+SboxFk83SWon4+9hmc1M7r8niiJp/nGxWNDUiMe/l123BroAl57lNTC6Mvn84mJA6ym/BhaXXxo07L+n9TVd7hpIflhv9cWW5VLqY/Eczkvpz/h70sHb76lIoqWpzYr2gSErUUxuMcsp6ShneEx2Rmxo3+A+uM1mlwcXw/0m1e1kJY4X3weAucluFBd589026hlQLKrCFpjWM3McxjNeKhmJz8o+nsZth6H2Zu0OpEFPlvfh9sIBsK2BvRqd/eQWyd0qe0/UytJbc3BpfHgS8oTG/cSaNo0KX4BoiWpHdJwGDUgNd8jc4YhWayU0DzmTrpXu6+LKrWY3IReeBMBMPSa7unJia/I0KutesQ4TIrqqHNfCKeWP1hNPgENfhmZPQFVXU53MU+3Ka0RV2m2xhLya1nlxoWG18HYdBl4VjbjXoQywmJu3uFdEse16qGcu5lgtpA6rdb56lNO8fQd7wqHJx2X7O/N2bXaCsJ3L1DTlaqe+VHJRr4p3VrPx1OvYvUukOIvnxLSq+eXFcqJWbeE4n9aa+j+LucbW9EY5A3T4Omudm1uyzNpOi7jXYY6yqRZXZo7Lirg3gJjxZpXrK3P3X+svvA7jqbtSJYtHbDcjARZ7J63Z9j4k4KrFD1zUF+dhKAAzFG7IGms7i94oASB3Jmsi9AwQvnQ1HoNk6qDFPZ0e9RDfasiSkjGLyzc9xbcBmE9Lqj9a7ZhEtJ+EttU6/ayKpV7NOsysioRSsw4zh+i1Wd/zdXC+m+ZA4kzTeTC+dFsNarDnzvc6TP7uWtQXhuzQMzwr4CBS72a9seWApQNOl6IJvMPcs15bHayDgG+ae8+akTY1Pl48tCuyv0sBaIxN5riOmhEpfVxHFsFvILxFl+aiVmVVu035Wg0zdi9eurOGalpMw2OFA2Be5WG8swdyaASGkaDzVF0gyprFvbW8BceabIyt+28A2GqoITsCqgMO/SOrvTTTDsu/Eis6/B3wPNgwkHWQTzSt0VsDxQ0BML4VnUT3vbnNQrP+keswhKJqDcZKJ59POPXJgZ8Lxya3KIi6xc8/aVZeB2vAOgtXbhWNsiani+Ol5QkXt/WvJgw4DNes2l94HFriN/1Kg9sbtWYa28UaW8v+jsPgAJvXMxbL67rydgEgc2/OyeBOP82SuYPLN5urUri8v/UXC4d+a1dOYB5mSrwCHOoXxFTOQ9co4x4nFwC1pv3BJneCa9YYeh6KjW0W2hy8cNa2OQwZnzjZ3otHOTWrLlidB8sku9gPza1ttNni3rzDpMuL1aORn5BwoHBdVX1BtWABkNXdrsTFZDZme3FdVbdGDpP51l5VDDonB35Tv9LkPHnQFH7HcWGieJWTeY1q+qMNoAjFW08HgCpVmnqVs6HQPsj7pgDa3tWurNl4MKUlUWZlst9I5lnRu/f22ZOHp1XTUG0AxdOxDvYE4oxjpe0JuNJdQ5p5HHde/QkMGN/7k06A/T/+/qfffvr9H/7y81//+o/ffv3lX398/v//8suvP/7Lr7/829/+/PGv/vHTn/7+4/6n/wU=);lineShape=1;strokeColor=#FFFFFF;" vertex="1" parent="1">
          <mxGeometry x="881.4935924403703" y="-705.6697618587999" width="8.950363538097934" height="21.342279312046507" as="geometry" />
        </mxCell>
        <mxCell id="xg1OOrG9r_t1N4pU3jfp-109" value="" style="shape=stencil(7VrJchs3FPwaXlHYl7Pj/IerLEesKJJLlpP4790Ig+GgwemYOfsmkWjirf2WmVN49+Xxw+eHk7df3l5ffn/46/zx7fEUfjl5f35+fHg9v+GvU3h/Cu8+vbw+/Pb68vX54+X/zx/6yf7XHy9/9l/4+4JzpoYO8vbb5YOUTS3/fPLr5fzT+Xl3vpji5vPFuHZ83kXTCFCNFRd4b7KfAc24fAwI1qQ4AbI1wQtAMbXOAG9cPAbEYOJspBxMqgIAFWelczRJ6JCc8WkGJKlDSqYEBvz7E7cBzQTLIlV7DOgSlxmQjRVWytVk0gGGFkoXGHEWqVjjxQ0FN8xKFzguHANqYKX7nU4AEMyJAU0AGiTODKgiHxqsvtyQhKdb5Ywr2QSRQABEywArohWAFhhQldJtCLAB4GnhOABYhyYdBwCJVK3JIlqdtcbOWlc/fPmjV4Qh5aESMzHVZJyyK8w080zNJmrPsUhFhuvq6lplBjX4yTMgq+grxt8HyCbHu0QKXIGQU1G4urZRoPYAwTNwk11uUAmB4Cxt1qHJ6CuRRQIgKOqzo378IADcu4oUBc+gQsVFpCyURtF0lgFV5CgaBQJ0P4hoTdaUmSubG4X1dhmF42aubN40EUsBNpmDD3RbxA1hK8sbAOQqdAiO8wEZEsQNPg+bbIBqgnAc+p8SGdBUh1UXpZs0q0NoVAYUldPGz/mzY9vbnh7t1M5IVkQ3Wr7ZCyBK1fL5YfJ9SVROYAXQmahmKYyWdmtB02C127lj7Hw+Rvn7MPcc14hDxZHOc6r5Ojqbw657tmhv9IWLEUR2jmuXZOb4jXOvQWGyius4StlmJOPUHFBHIm4XDDa47TPPGthRfm+fT0yQVo8ZW8dyPa/aYQwNvvJ54bJYeIwBXaocc9yqaoclBDV52MsqiJgnmkCQeAWoPDFcye+o5FDZBL0WVQXBXLMO0cq56jrjbIAy2PI2wHNB6FqJxMFcRVbCJ2o2TJ5TE4ZW/TwczYAox9UeGbNZkx6TUJiJf2MbrjwCRCK8LHvnfsNsJaSHWjP0gZjYwkmKh4o0cgfdUSEfiC9ClYTUrU43FDnqwa9URnBDUo7LnKIIb8V5fVczc1JEqVM6FK6EcasUhwByXBkD7JFIjYLPyoEBgDDzXveMIr7ElQeeUe0LvqYWrJdzBQhcegBIytOb1XciqYYB4U2DG35C5oNlIus5qAFcbovs/9MykiA0ilLa8cSN4HPKrI4HaKSoaudhk0z1oWqlw9JYbbu+o9CokW/wOpbuA2TLbQbMmlQCFc4HOM5rmuGc9nLD2ivQDAjZeJVxlrcGwcopKdaxGNk6AS+XjZj0KB9clrsVVAPi1g5Q7WEZKu4BQqQQWGl0xGoOC9uGag8QOvgyGsgNAN8LHTCX0OIaPbFKIHwd53zodwqR0OERzQTNSzAibViR0yof0HR6mq2srNPL1i3pqluXTXqRkVQ5e0qSodrGpLbbAqoKuk7bGG7lsLfM8wAkNYr5ZTGZR4Yf7SQCAYrcSSC0W2RAVsNS5OGk36CmsWpaYrOqwOssSmYNsrPvYUbLVSeXEuBVovpSpafXDVqpcg2w7uhKlavPdQsIgGpM+p5xuUE16n2Tme8CID/rooN6JpO4bSi6Rtf1hq1E3s7QxJM0APauNfr/emKiSOPnE5Ph/J9PTBhw9xOTOJ7O7cyqxvVmeR9bMfUJkXr9WACKXBE5jcy6teK3aaNyO4afUGuT4nnUBX3LByBlqLjLIMUzOfJjIgipeCa15dlvHvupo4rCbJz05GpNIYBeFPcZjwrENkMdbSn5gbeTswD66EyvNjTZj/VRYRYpV7mjQDtDVRGuVB2iW5Z8qJMq45Z3WHDeC9JY3pHBebXHcYvGWZZ1yyuTrAcHu7hAvyxieZ2BUI8iOS0vuq5714PzVEiyl4vi9byTi4NFHmSemsQWfZNu3BZ79leUpPy84irSPks8JN2P3PtO1n+fxx/XF8A+nZ+eLu+P7b/nF8bw0eVls/D+Ow==);lineShape=1;strokeColor=#FFFFFF;" vertex="1" parent="1">
          <mxGeometry x="885.0532040494503" y="-707.1256516197546" width="2.4652709821732612" height="0.939685533986226" as="geometry" />
        </mxCell>
        <mxCell id="xg1OOrG9r_t1N4pU3jfp-110" value="" style="shape=stencil(7VnJbtswEP0aXwckh+s5bf8jQJzGaBoHTrr9fUc1qIoz0osNpLfeEplPnOXNqh3fvDzcPu93wb28no5f9j8Od68PO/6wC+Hw9LA/HV7lrx1/3PHN/fG0/3w6fnu6O///fDudnP76evw+veHnGccU6gQK7tf5Qark4p8nn87nHw9Pi/OFarnmvGeqcQQU8g4AKuU0AjIFAJhUyCMgUQQihUpR6RyphW0AJ3KsAaVuA6InXzQgZQDI5IIGICulQM7ogPwgRrRKZ78NyJ5y1GZNQOk8+3XhuNQAlQKxEql0V64D5GfDpZS2AdV3FZcABgBhDmsAAz80T9yM0sCsLXWJF2Yt6AZhf9GAWACgGPJlyKVWDfkKNcAlAZQx4rKjCjzdGrEC4AASQBmpkVsny3rWcI7cyL4Suy8vRjTKIA1YoaqEEPKEUbu27swLDduYPCC4dZ3QxSP6GXLIk4ZuMPSTOxPSIfQImwGNPIjqWnQINewHiWrlBwE0oHSZbTIDEk40TueNyj31rOe+RHUUSV7BICIkYJSnp5gDgClLqLwhQgJ+y8919EOsMKpj0q2AAGDRchSdBhTgB6mjxdzQgA7se+WfAcIlAAhZNw8CQPk7SA0yyTKgtBF0HS3iexBAXnqBMURL7YlnPYB6OZjPv1GzdPhMiQ+VXeKR25JaUX+Ve9WfzwcKqHEwHWWkAAyUe7M2uyzDfFF6n9PPs7AO6GtSJAdq0P5KfnniQTryEocKUHrobVHIFXMDKm5MrFTgrtQ6IHbSL2yEsrwAatNOYARYa4lR0y03lFGHHHBF554Ply0AumF26yIQUP8pkamYPUUaKG3iaVU8BdCADpWqkkgyILig9Iw+n/eQGNl0SbFzceM8K6dlaiDUcjf4Il9XwLus9Z0GIVSYKY9FkGPP31v2HOVnB9+/eh7FjeSKUSDhSASA4HvqmS3a57LN+jRK5GAtsAVwpuCFFdbBIJtKuFfnUVMhPYJihIOTcxL/j/bxsC2SJkjXbyh/5n79/H48BksOSSNgIiG4oXBvmmaJsAtK0eVAWhBIasshmf2BDrZhTnjUsS15inhe+z9z9oJz/cwJW4X3mTlByl6fORHgfWZO5Ot/P3OapYoAUK9g1zbt2sWQCFlQkJrVU8OLIbvcEgDs4836rGVIcLugE6Uj6szNClDMitKAXTIKHVFmsmvMRYhcuCmdhn801ppd7CQTMJPd9jYcQXaf3N6YUs3GWuyar9qJi+fqVVt34QYKObPWl/OwMdFD0nQesDt0Ki82MBHY1OtthyQlOFORU+/3cIx3fbMxZ0mxAJDf6T6mcpdw47zN8wzfbytJgfIreYqjAJKF0TdnuNAy9pRpDdnH+EuqM1oSGD6kCme1az9TvX1e/vj7Tez+8Ph4/qS2/F1/Q5NH5+9v/PE3);lineShape=1;strokeColor=#FFFFFF;" vertex="1" parent="1">
          <mxGeometry x="885.3737626315996" y="-707.3386840609991" width="1.840706879103279" height="0.32067849616589966" as="geometry" />
        </mxCell>
        <mxCell id="xg1OOrG9r_t1N4pU3jfp-111" value="" style="line;strokeWidth=2;direction=south;html=1;" vertex="1" parent="1">
          <mxGeometry x="880" y="-715.41" width="9.16" height="9.48" as="geometry" />
        </mxCell>
        <mxCell id="xg1OOrG9r_t1N4pU3jfp-112" value="" style="line;strokeWidth=2;direction=south;html=1;" vertex="1" parent="1">
          <mxGeometry x="882.07" y="-711.38" width="7.79" height="5.45" as="geometry" />
        </mxCell>
        <mxCell id="xg1OOrG9r_t1N4pU3jfp-114" value="" style="shape=stencil(nZzZkhy3EUW/Zl4rsBaAZ1n+D0WIMidMkwqKsq2/F+BR9XBuok9O+22We6uBQu6Z6Kf8w28ff/r1w1MKv337+uWfH/7z/PO3j0/5b08pPX/++OHr87f501P+8Sn/8MuXrx/+8fXL759/fvn9158Wcv30ry//Xk/47wsvtqP1xUrhj5e/hCOU//3h7y/4T8+fv8OncqQg+Jjv43M+6hB8qvfxJR45CT4Tvh5J8aUB/jyi7rcy/q9/v+LPE/D96LqeBvhaj67v868HbPFnsvgRAd/seka/j2/lKPkNPh4B8D0d+RR8hP32cfQq+AT4ka/X94oneRjnMYbgCz1/HCUJvsJ+J34EwZ+Aj2HqkxKa8wF6AH0gvhbBDxDo0S95ufAJD3jiYxJ8pPU0Vch0afS9A2tB8IUPOGXBkwKPap/fQGEmPjfBdzCIoxxd8aRgE5/fCmhGAzoVYBTBJ3p+Ps4k+ELrnwY6Ch4VYP47CL7x+lsWfKfzzapg2XufIp/zDwHxRfGJ5KEcNQs+szycp+BRnie+CR7f/8RXwTfeb4+CJwcz5T8oftD51st+X/j5AMaLvNXrAO/hT31+YnxTfOb1tCJ41Jeq5zU3ROdr7E/FAGK33+bYN11PJ/mp6oAr61dV+TmPQPa/asBxXhHjO/d7sr/Y4Itzvl3wlfFdn38yXgKOk+3hxOvz0b9s1jMceXuLb0dg+TkVH1kezi74xPIg9r8dheWh63oq44c+/3TwTfBoP0+N39qlEHefnwQ/WJ4lHuue/ZT9do4fzPvsmIDt8Bhwz/MdgqcEzNrDzv5u4pPgT5Y3sc/9ypjeaR86JlTWfo7LYd49ryD4SPgpb0nwGJ/czPcr3rGfIv/Ds599CL6yvWqKPx+Sn4EJs5WH4fq7LHjP30m+FjyHJwZuEhyPJxHHJGQ+4nMoofAZ2z14Tq8pwfN6SQme26tK8PxeV4Lj+JQQj8CSJJHNJETHdCUlYC62+4TsBE9mD4UIxjtNQmVCzEqgAsb6BLOk5iypKWE85JFj8kyq1pCSl0OoxqUjOUG+IeSHovZJcNygpOmT4PhB+wmOI1RpTXxw1swk1xWK8GX34JoS0BlaM5M5+zuv4Ok7gmNbtV6YPdsq/nYSHNuqFcN8Sdc7PWLMrks0hO5YPvNasWhogsJYuGpoRaNw2dBKazmy40WzEgqftCTKk1CdkzZ7OB8KrSahOX46KsFxiqqixXOKRQjVO7hsCE40U4oSHI2TgtokOBonGUO81ZDea2bme3uU4BxcjkpAjSvXAm6Eaam4LBiDEjCuN3XWSUDHnq/GyI0wM3+uzKamBKf0q7FG51poNtZ7sCwljSqTE0on1WmvP5TU8q3+Aalo0nwjOZYvqRFIt5TlLkH20K6c9x5BUtyVY9E5GEJOnAMlta25cJfFEhonHFmNQOHG6qgqS6VwkHiaQn9jI9BVRasTe3dTqnVqu+OyEbfanyPe40pgbgTHeg/t1rXAXnRc1aMboXI/xxB6ZGM8tKHQG79WQ3gVlvcSxlWUvXdwWmMZXpM1WgInTVLV8wimTfldp/meBp2agTuMaOIZjxG0Oehsow8NNwaXZ3q/LNc7j2ISzocOey5JGoqLQBIeNENeBHIR8fKC3xPY+G0+gUxTURfhEU4d+/CW1HafQJs2xs97rUMb/Z6WzoMrhsBaupFWCpnakR9Ta1PcdzWo6K5dRrqymAe0dFiVYC1t8SFCN0VvX0sfOuz/iyBqzV7CEhw/tCGwp1uEt6/V8aWTIMN0jrdehLcq4cQDk1Ck28sRR+8a4zsxzXyJknY4UVM3DQgnLutFtdSJ/HrWMMuJLXu6qlbvjF43BI6PF0GmYDgC77d/vzPG70l9ipNFLIIMOnGesgiSnHEmtAhvFcjJtaZ+SVzmZHOLIMmZI97RlJo5I50EiU+cnPfVRrwzq54EnVjkvH0SoiyJKwM9aPrn1B4mQSsDXN1o46hSe+D6SRs6leRUaLYEMsaTICG7U2WahFyVQHWsNsxoLVfKFsEsiax3M9G0U+1bm36onrheqylxUsWymXFTpybaTK7lVF3XHkyZluq6i1CVQF50EUz1m2rT27dElm8RkhKcgwuyJK7gL8JDPYItgZzi5uC4zzEJ3XwCdVK2BNS4bqw3d4PWHsxrTY+ZGe5oLYJ5S9Qz26god+U20sp9v2ZqQE5nsZn6idO73H4CdUcX4aH+azO5n9PhXeeQlUBB4saQcZd6CZ9p/lMffBK0jced9mZqIU4vfy3J9PIp9l5vyYwX0DzCxi7xxMNGWnmmYmNbeWpjuweaC9kQePJkiYaZAPKc4qkEivk2ZobnczZmhieANmaGZ4wWwWzaiWbU7fKc1HYPlAM1Uy7nco5dEY+SWZfIo2o7PI3CLbF4ZNSu2SoLjvLt8BTWL3MhdSIcRbQRAI86WhvMo5Q20uNRzXZb7iueRkGtLeJRU5sy8CirlQcelbVRIY/i7vA06rvOS1ozOEpszRaPKls8j0Jb98Sj1laeeZR74YvgaVTcWl0eRbf2hEfdl3zq+pMTd+l6aFS/mU4GXwWw++WrBut9JsE7bk/id74qYeWZr2JY/eKrHjYs5askOzzaTxMM8VUYG9rwVRtrP/kqTxtaheSrQna/XNq19pCvOll55qtUNsjnq1pW/vkq2G6/ic9XerB8lW3iT30+2s+hY0l8Fa8HlR++6rfKdnq1ETsiQe0VX1Vc+CR4LIUGrajxVcuJl1YCX+VcdU19Pl0V7UHjGb6KagutfNV14rM+36n8yl17vqrbo+bpfBV47Vev6lIqtt6/rp/ihyWfevXcsVdV8ehfjP3hq97TH8lEBF8lb2aqg6+qt6ajB3wVvp16dY+v2jdzlZCv8reb+bslVFwzLBov8VcRtFsp+BVPX3Uw8Vrw4Hi7mFFTjt+SKTth/HaaeJJrF2cxtwSwLFyHNlfjZYD3+GDfD+lXyWbC+Qqgtvhshj4CxufZDLoELCEv91YFT/ny7rtlKH5Y7kTxpL/LnUTBF5DPpd76fOoTrD5cETzqu5qHgOoetDoQ0HsZ5x7QOJivKQmYKwT7NT3U8IuaWQeMfJI6loCCXDSODFhHMN8gwuMyXa0Ow1cpz7xJwifNihy8+cIR3m08dQaEX+ZqP5v1gNf1v0Fq/vD69VO/PH/69PLtVd//X7+uav7p5auu8o9/Ag==);lineShape=1;strokeColor=#FFFFFF;" vertex="1" parent="1">
          <mxGeometry x="887.1296946086063" y="-711.5224638798807" width="0.11877820336364063" height="16.57568069488086" as="geometry" />
        </mxCell>
        <mxCell id="xg1OOrG9r_t1N4pU3jfp-115" value="" style="line;strokeWidth=2;direction=south;html=1;" vertex="1" parent="1">
          <mxGeometry x="884.99" y="-713.42" width="1.48" height="3.42" as="geometry" />
        </mxCell>
        <mxCell id="xg1OOrG9r_t1N4pU3jfp-116" value="" style="shape=delay;whiteSpace=wrap;html=1;direction=south;" vertex="1" parent="1">
          <mxGeometry x="808" y="-768" width="22" height="14.93" as="geometry" />
        </mxCell>
        <mxCell id="xg1OOrG9r_t1N4pU3jfp-117" value="" style="shape=delay;whiteSpace=wrap;html=1;direction=south;" vertex="1" parent="1">
          <mxGeometry x="771.3100000000001" y="-768.07" width="22.18" height="15" as="geometry" />
        </mxCell>
        <mxCell id="xg1OOrG9r_t1N4pU3jfp-118" value="" style="shape=delay;whiteSpace=wrap;html=1;direction=south;" vertex="1" parent="1">
          <mxGeometry x="808.25" y="-794" width="22.5" height="15" as="geometry" />
        </mxCell>
        <mxCell id="xg1OOrG9r_t1N4pU3jfp-120" value="" style="html=1;points=[[0,0,0,0,5],[0,1,0,0,-5],[1,0,0,0,5],[1,1,0,0,-5]];perimeter=orthogonalPerimeter;outlineConnect=0;targetShapes=umlLifeline;portConstraint=eastwest;newEdgeStyle={&quot;curved&quot;:0,&quot;rounded&quot;:0};direction=south;" vertex="1" parent="1">
          <mxGeometry x="769.69" y="-727" width="26" height="4" as="geometry" />
        </mxCell>
        <mxCell id="xg1OOrG9r_t1N4pU3jfp-121" value="" style="html=1;points=[[0,0,0,0,5],[0,1,0,0,-5],[1,0,0,0,5],[1,1,0,0,-5]];perimeter=orthogonalPerimeter;outlineConnect=0;targetShapes=umlLifeline;portConstraint=eastwest;newEdgeStyle={&quot;curved&quot;:0,&quot;rounded&quot;:0};direction=south;" vertex="1" parent="1">
          <mxGeometry x="806.4950000000001" y="-752.9950000000001" width="26" height="3.93" as="geometry" />
        </mxCell>
        <mxCell id="xg1OOrG9r_t1N4pU3jfp-122" value="" style="html=1;points=[[0,0,0,0,5],[0,1,0,0,-5],[1,0,0,0,5],[1,1,0,0,-5]];perimeter=orthogonalPerimeter;outlineConnect=0;targetShapes=umlLifeline;portConstraint=eastwest;newEdgeStyle={&quot;curved&quot;:0,&quot;rounded&quot;:0};direction=south;" vertex="1" parent="1">
          <mxGeometry x="806.495" y="-727.2550000000001" width="26" height="3.93" as="geometry" />
        </mxCell>
        <mxCell id="xg1OOrG9r_t1N4pU3jfp-124" value="" style="strokeWidth=2;html=1;shape=mxgraph.flowchart.annotation_1;align=left;pointerEvents=1;direction=north;" vertex="1" parent="1">
          <mxGeometry x="757.18" y="-891" width="15.82" height="13" as="geometry" />
        </mxCell>
        <mxCell id="xg1OOrG9r_t1N4pU3jfp-125" value="" style="strokeWidth=2;html=1;shape=mxgraph.flowchart.annotation_1;align=left;pointerEvents=1;direction=west;" vertex="1" parent="1">
          <mxGeometry x="804" y="-891" width="26" height="35" as="geometry" />
        </mxCell>
        <mxCell id="xg1OOrG9r_t1N4pU3jfp-126" value="" style="strokeWidth=2;html=1;shape=mxgraph.flowchart.annotation_1;align=left;pointerEvents=1;" vertex="1" parent="1">
          <mxGeometry x="735" y="-891" width="23" height="35" as="geometry" />
        </mxCell>
        <mxCell id="xg1OOrG9r_t1N4pU3jfp-132" value="" style="line;strokeWidth=2;html=1;" vertex="1" parent="1">
          <mxGeometry x="756.01" y="-861" width="48.99" height="10" as="geometry" />
        </mxCell>
        <mxCell id="xg1OOrG9r_t1N4pU3jfp-133" value="" style="shape=delay;whiteSpace=wrap;html=1;direction=south;" vertex="1" parent="1">
          <mxGeometry x="809" y="-742.4399999999999" width="21" height="14.93" as="geometry" />
        </mxCell>
        <mxCell id="xg1OOrG9r_t1N4pU3jfp-134" value="" style="html=1;points=[[0,0,0,0,5],[0,1,0,0,-5],[1,0,0,0,5],[1,1,0,0,-5]];perimeter=orthogonalPerimeter;outlineConnect=0;targetShapes=umlLifeline;portConstraint=eastwest;newEdgeStyle={&quot;curved&quot;:0,&quot;rounded&quot;:0};direction=west;" vertex="1" parent="1">
          <mxGeometry x="806.5" y="-779" width="26.27" height="4" as="geometry" />
        </mxCell>
        <mxCell id="xg1OOrG9r_t1N4pU3jfp-137" value="" style="shape=delay;whiteSpace=wrap;html=1;direction=south;" vertex="1" parent="1">
          <mxGeometry x="735" y="-769" width="21" height="16" as="geometry" />
        </mxCell>
        <mxCell id="xg1OOrG9r_t1N4pU3jfp-138" style="edgeStyle=none;curved=1;rounded=0;orthogonalLoop=1;jettySize=auto;html=1;exitX=0.5;exitY=0;exitDx=0;exitDy=0;exitPerimeter=0;fontSize=12;startSize=8;endSize=8;" edge="1" parent="1" source="xg1OOrG9r_t1N4pU3jfp-125" target="xg1OOrG9r_t1N4pU3jfp-125">
          <mxGeometry relative="1" as="geometry" />
        </mxCell>
        <mxCell id="xg1OOrG9r_t1N4pU3jfp-139" value="" style="shape=delay;whiteSpace=wrap;html=1;direction=south;" vertex="1" parent="1">
          <mxGeometry x="771.85" y="-742.1899999999999" width="21.68" height="14.93" as="geometry" />
        </mxCell>
        <mxCell id="xg1OOrG9r_t1N4pU3jfp-140" value="" style="shape=delay;whiteSpace=wrap;html=1;direction=south;" vertex="1" parent="1">
          <mxGeometry x="735" y="-794" width="23" height="15" as="geometry" />
        </mxCell>
        <mxCell id="xg1OOrG9r_t1N4pU3jfp-141" value="" style="html=1;points=[[0,0,0,0,5],[0,1,0,0,-5],[1,0,0,0,5],[1,1,0,0,-5]];perimeter=orthogonalPerimeter;outlineConnect=0;targetShapes=umlLifeline;portConstraint=eastwest;newEdgeStyle={&quot;curved&quot;:0,&quot;rounded&quot;:0};direction=south;" vertex="1" parent="1">
          <mxGeometry x="732.5" y="-726.86" width="26.5" height="4" as="geometry" />
        </mxCell>
        <mxCell id="xg1OOrG9r_t1N4pU3jfp-142" value="" style="html=1;points=[[0,0,0,0,5],[0,1,0,0,-5],[1,0,0,0,5],[1,1,0,0,-5]];perimeter=orthogonalPerimeter;outlineConnect=0;targetShapes=umlLifeline;portConstraint=eastwest;newEdgeStyle={&quot;curved&quot;:0,&quot;rounded&quot;:0};direction=south;" vertex="1" parent="1">
          <mxGeometry x="769.49" y="-753" width="25.81" height="4" as="geometry" />
        </mxCell>
        <mxCell id="xg1OOrG9r_t1N4pU3jfp-143" value="" style="html=1;points=[[0,0,0,0,5],[0,1,0,0,-5],[1,0,0,0,5],[1,1,0,0,-5]];perimeter=orthogonalPerimeter;outlineConnect=0;targetShapes=umlLifeline;portConstraint=eastwest;newEdgeStyle={&quot;curved&quot;:0,&quot;rounded&quot;:0};direction=south;" vertex="1" parent="1">
          <mxGeometry x="734" y="-753.07" width="25" height="4" as="geometry" />
        </mxCell>
        <mxCell id="xg1OOrG9r_t1N4pU3jfp-144" value="" style="shape=delay;whiteSpace=wrap;html=1;direction=south;" vertex="1" parent="1">
          <mxGeometry x="771.5" y="-794" width="22.38" height="15" as="geometry" />
        </mxCell>
        <mxCell id="xg1OOrG9r_t1N4pU3jfp-145" value="" style="shape=delay;whiteSpace=wrap;html=1;direction=south;" vertex="1" parent="1">
          <mxGeometry x="734" y="-742.19" width="22" height="15.33" as="geometry" />
        </mxCell>
        <mxCell id="xg1OOrG9r_t1N4pU3jfp-146" value="" style="shape=stencil(7Z3Jkly3EUW/htuKhxlYe/gPRYgSGZJFBUVPf2/AdA1976sD9spc9I4Dsh6GRI43E+/Sn/748MPv79/F448vnz/98v6fH3/88uFd+vO7GD/+9uH9549f5p/epb+8S3/66dPn9z9//vT33378+vfff1gj15/+9ukf6xf+9ZWu50uOiyoe//76L6FeYv7vv/z1K8GvH397JCiXFIwgAUG9HMMIIhC0SylKEAYQ9Eu3KYX6nGAcl+AEsOgRLrkZAaxhxMvwNRBBurRqBLCtI19qftUayqX4FwoQ1EtOr9rWdonHq77QL9F26eAvKPOVyzhwDSUqQQm4S82+cHQ8hyGLniezOemgBAcdXLxUuUDpug3PuFWnFK/b8IzgEPYO128+u0BHVoJMd3rYSQdkjXmngxAclw7nsKTGy0X3ywBWmh8QzpjM2HAFJeh4up/HJdfXjDcRsxk/uULHk5CcbGf7E/giHC/n3y6N5lNVkTTUI8OkfL10vvoty/hG97Jdho2n+RjD1atEfjY+6e93/n3hn4r8OcdX3X/UB10VSLtO8Nn4rudVeD49yfhOknfO56XU6pdjM3/lz8i6oyj/Z/79rPe3EP/0q5FyH19BPizVpOut9Ps3bf2Nv5/1vG4M8vS+6/7geqc8STI+sc6Q871duGfy0PinkNk4fDwZUN34p13tzqf64uV+zvtI4+tVPdzHp1eZvQVNmzkf4YdpFfB6Rb8k1o/jkoeOJ36b+qvoeOK3oPoosQmRLuGQ8agv8lX8XcdPE5vvy6gyvrK1G7uMR4N9qgexmXD/R9X5hOuFfiZPwivHJxvP8qqICXcZrE/FCo3sbtzUw3083Zc1vsn4wr8/9Pc39kBX/jzI/rH5J/RafX8SWsS+/zeB/Y3nm3b6ReyNm9/xzN7Luj84Pp+Mp/UmlbeJ7bGo+muOp/sbVH9txh/X7XsYT/J5qP2ZrgLgmXyurzmvKf+zyh+St3N8NPlDcZt29Uqv4w+8793stwOdzqWvu4w/eP9H0PHs1Mr9nePJ/pzXVeUh/n7S/YxXp/gZf0a97xQnWPvzcnxG/8vjbPUaXTkd37ry50B7uB1XcfkQVciw4BrVIA5TRMIJl6wW2TyCCkvO06R5uYS5RxnuQE66R3OTaA1p7olMib2edItt3gj61W45J0i2ho56LwW1E5cjA4J0nqsy6vwCcN5y3KMSRDiHtYldd2nAGqZpK7bi2lYw/ua5irBe0QKaUrI1FHQ/53+LOz+/SfGL5S44AU1pqMG7CODgUlQJvAhAZKdizJdR56R2tmhgjXTjnEcCuNPzAgVfNN2Hrmph+RGwrXMNEjmfBBTImFdUHKHlGdCUytXReCBIwK0pmWkaeA3R7kPA4M0UAirIjusNOSc47OCOSyAhMK6i9ya9B/oH0eKjk6DSORzqwK41EC8FE5URVfrc1iGiklVWyicKhYTAZA1RokvMMPOpEJj/Qmu4RTkfCDoxX7X7wIGKeYEOETMcOVkEVQko9LYImhJkWrTL1obO3SIwPU3W89olUyiNt7UbweYcVAPdJNVT1rA1kMWdqnpUi4DYu16SbSvp6VRN8jV0MqbkEyNxE0VfgkwIytVOfiZmJHe7/CTS09VMh8imwy1/9yiMycDKdoEOFDPrC0O/gMZJtV1i5/B+TA/bStHiZSQaeye6ooe6M0sBsPRWqTHYlA7qDsxvIkG0iGVkMZNUVC5VTxeoXMbLk57mysZeEuBAvk3y3EM5dJdyQQ2U5wV6KQSmV0R+6JyAxEXzYC8rqgk3CcjQXQRDCSgUeUpAcsmnVA5MiedbbPaBgKKRk0A00CSItIZwFb2PBMAaOaihOwkogZItgbIImDWqE/AXRAOtNRAvBbX5FgGxRlDbe50DTenQqHbubEpXTVvnzDZfUOd1XtoMgmxZeCIEGPwwhXsRUdkwJjANZ7kPywwFyRea5S4SKpTQr7GtB/1AvBQse7TMUDiHuQY14TpeoEmgu3TzHc+39VC4UeI7Pc8hdiWgNSxvQfRDwhjZnLHkGJZ4JvNnWNIvcgRrqEVWC0ZOyi0reyVorKdrUsXe2zXy+oxAtOiImEldBEMJKFRZs3LrJKDY8ikBHdyaUlcCcjgWQVIC8nZrUotsElD0pybNFw5OWNWkCYpJQGp3EpTXEmQnoINLinFYawD2rhagvYPZnnKrMR/50zWopzjYHSj1Gid5uA+ECLwbCrcbN1DMTAtPMg8tYXxp2RoiBAZbAocuum6s+25fuOnVp4HBaF8gyddVx801kPROTW9c44SOR04mQWbTQYzEOSXi1mQHVxtitFI2gsIh4KTMV29pqmc+kG5r4PxDUKepbMN2Iu5LR5U1CSSoVpg1omW+SsG4xnJexQzNV6/oWRBBsHhT7dKdvjvDD3brJupwmFtGsnVlOISgIf7tDi948BTJtVx4DSHIqHangSWGbk5IME040aLTjSLnNbi9FHFbVww6KwEhlcPQcFHmmMApAflAwXBnmYEu9zj6AwGd9NolWXTg9Npx/b0HAsq8rlyAEzBrRJsSZZoWGKAYAUWwDA6dGc80CYp9gQK00QMhFRGPd4DgTQjcEp/P9IN4KHUTaqmKcesZ3eM5AcHVj4woyRrNbh1o/lTLoSwCtsgO+wJZM4ugKgEJslMCtPnOpkQRrNNFkwl3uq3EfJOgFyWg7ECNCtdeBPwFUSjhYIOpGoJq/wn1B7aLEEz1GAiCrFGLlkZB4bpupKCkE0cGq0qBWjknkjRul3kNMWuV0zKWOTijEamIUwrFCAKe9Ko4kkj5gTdo1TQF/QIZridTigg6uZdZPRCQJFsEUQkoJxLKSXqgb7Y12TlQGK6okkuM8QqGLFgGPxkbRV2USUBVP+vgDiOAKzpZQ2GvjLMO2XCOCQuLgmF5UuJwaDbka0S5NAmc+ShtGZKq0R3Bof7AYm8gsJR5YiMxG9idA1hRTZO1p3TM6p6kjGjHw7gi8xHY1amIXoy2n4XxLJoQXa41ZVtOOIJKU4s6V5ENgGI4QYb9lavR9ZgSIGzkSXCcJHzT30+cIAsWIVoagQR80hUvP58I6hXc87AEgvsEK1CLHSEay7HyQ6AcRbe0SUOumAQK0ajsunUF4ceMceVJIMbCpoxgZXLkCwElkeeK5r5RsCQYlmD+C1UehKaJyk0deDDA6V0xfitBQnN7nYNMKWLaJDj8bevgSt5xVTiTC23Il0lAVzRG9YgD4+UWRuRQAgplRDMLN5ZtsRQF+sMLCyTmPyfsmpcYokffNaHREWu6AChaQopYPItkdrwIDm7aQGSihoc7msB3Y/Ebx2c1czoGz5K1KrgB7p/FO5qVhNJ8mqUasQQkmfjdoNGGl5zS/uSgXk5D8z2blVMxzLbwFVHHA7/loLFIzrnnaGkehOzmqOCKioDDbFYal5hnc/cb40+iAho352WAr4Zg9GwSlPGSOXqJNmGm75HiB/6nZL5FIDsm2VbYt8h4klc5WDgRjep8aBKvM+rWQIMc2Jj3XUInWwityNuGTtCUP+LVMD8veaj3hUrkT7JxaDkly9MWRgAfmqEpDHg0o70gLGLlyXQ8hXKXuLffJ/vhdv3u+0NO5WJHbYlBTtNyGHR/MFRnJZuFQeGO4cOEwD0y8jCe4aNiq2/Ha5oSfbJkXmLh8p+iaG0+r1TUHqjIb6loVLyyU180ylD5vhR1AxoGw5LFGNvOnhFwyab4Lyv/NOYfK3hsmPhIVkLdeP+z62u0r7JGDTbg/ZPxCLCw+fB99/VuimtsPwvLczuv7X0UfmDsnfNbwbST8/MNb/7N94Xy82f3Ee3/k/tO9q3Lk8aQHpNXDXMELg/ZPnR5y1Wmrx5v4LPN+Kh5yIbp4JXF0d/fFHEMve+IE+i6/x3t+SWe1L7FiIW1wGmM6LUWRwX95WilbhkzD3fz/RazRPvWK6cTg+AOrcVIu4JGBUWw/r11RLmPR/xB0g6OBVsELfms8gr9d8t3beStxX8qI/i6+6dkr65qfZWHJN+mvyP+I9v/b/7+m7//nfv71rKOEtz5UPttsP3cNcEy2F5qel6Da/+rIdhx/sv+0d/f+AtyX8KBPdY8YBq4xMQjsuHgQn4L+e4IgvrkO4JDU5+bNcRxkjag9E20zj+Bq8Bi01Y+4dgFFg5bA3lisVozNO4G6yW5IWAsK1oRy0oQkfEUNfgVOAUdg0LEQsTr5qDMkPAcwjDm4x5boSv8dmEzOMMqEiOwy3fyhYble6vO7KWODYMBLl7pHFDKB2vku/qFMIGWqBdG9VgrrF0g7LC0cuNI23HW0oeEwKGuzWqPzAlTEZWRMZbBGiokhtQH65SUArKGYcXvFeWn461hw71k/Vx9asO2yDDUfNIFA81BtUYiw42LyrzIzdGrIQfY3KwnLIFle+q9JtYjxcozI9eZG0aKO6ZGa+BXMTwaDLfJ7uth3mVFweKQG24gdRjgMTGO1C5YxDtvbSzuDXdOxzftbTDHI9zG0ueTgPy5kFRUrxvMWERxuBI35XuDqV4Z6Q2mesJL3xtMNRvKM/I52CMhm4r3+QWVYQcD3IoaqasxDBt4Aj9bUons5qxJxcRRUM8a5IFyMlfdpVqxYqWY5OsREz0nddAF63reynSuBG9lOicU31uZTjElNwr3gSmGvNv0wswG5doEJapeucLJZMdjZi4Eeqt2vRK8Vbue+OffW7VrsNxR5DZHUc3KnLi+3IyNnBGv7w5frtyY2Dz0vGlM3JU1Vp8wzqAKa5TAzTMPdeoLP3uRrKi+lF1/Kon1FHbTU7AvbBpPWmfyMrgBaLK807EDukgooLJrv5AW8gU2mJK/trLvSSpf6PgeTbL3VuoGrWxvz02zkrRosqqGuWhsJ9L1Ca264aWhCepJQO11ssUc5hoIgrYUlG0rfsEciBZRtpZDVVYbGGaZ10Ufiqool2qwtBjHKd46YF0J3jpg7T2//3sHrKiokN4RtjfVh8B028DQSban1pZDvekeJRqIozlLT4utwZGQ+2NOD8FWLJMbFqcIaP4E68y32tWSKd0tJzN2TRu1LWTnInx7MmjzakJoJ20hCYHlSZyYUSmGppHBuAnDdbVb17sptOhh705lTgtYb9hYudbaujFvEkXJmsmuSgh+00C7AKcdkkMk37yD2Ff1rQvw/wjeugCfEHx/XYDFhMv8OKW/25Mrd/ZuJ94u8VKyCv5lXMMaUrJ0Ir9Ik/yBxM07JYfCoVLAc0gGI0gHOk3RZSuDLRZgTRRKx+DmSipa0pv09IKc2hM2iCXK9hxS5KrlpCjI9RIaGSfp5D0AxEmb3Ro42r9wv0UJEBpkact4MLypGZzjBlZ+xhoKq4m7lx+0W0PmjqHZnhIqDCcsJ7AarBd4e2vlfwRvb604wXf31kq1d0o25WPedKZyFM5and2l7TNDVxeducLOFHtktRsNshg3oXir+VivTG2KWAWcyl5WtIc7l6PGi1ZU8aYvxGGgyE2s0p5OCYOFQLQvcGJ0lf7Z413U/icVQ8sdXEzmwjgwOt2qj9fDCxx1UPbmJ5lXPwn5AoN/FsDenFfs7H3YY0UcpsiWmto89HPyIF/BopGTJ/8K+nEnjwoWFvf+bGHZPZenDyMWzvi53VrQlL4/0PFIwLks1aKVUfb+clzdFbv5y3GY0PYHtRuX+w970Zyx1ydPOjW+cda2bWecVEXabDp0pXGi4zBhYa3/lq1Md9qedFpVgRQ+zVq1Grm1WrUEXuCMX7N0c4hoSreuJ82FTj0rK3Fmtw97HIyR2q6vsMv9sEKniN3zhjXn4mjxnL/i69H56V0tXH642N8GD/w2u4X3+MUhf9t8M94gRYyU97fZwyvffudaGX9bnnG/o2qmiBX5HK898FCljWblRLvxycYT/1ugPqA3MserPkNlM1wVYMxwjRddgy7hHD/09ylR57+f+K11mz83RfT9SWic+v4nDKf4+fJzjHO8xv52/CwWEb/9PgxOlzGDsZrES34B7aeRNMjGBU3DUJCF+cfeYGPzbMrDrPMh66xbCddmfFd+4MY4vWkeuWKOao5XqBQ+sTXn05QfSD50g/UVxNzN/dSkAkYHh6cImP8tLsD7OazUq6KJNU4a0aC+s/fnN+OrF+bj+Kb6ve7koT63xPKhq4tVEVQw7L2bio105vii6yUg0rAQCDcKGNbal18EGl0tYm7ENLoGELnSblgFc+f70g1ShEHZYYCIzvK5eyE/pbtG13bVHYMA49Zn4T6eoj3D0HUD7eFhZVX8ptSwuq2B8nDKB43RMRp8eHzrQPzUCGaBcnxrGII3HHjGSyfZlChW2g0vsln0JJAIWsdb34fesoFlYUtrWPtf3lO5lQNDt+vQ7JSRrQ0wFsKO76TWLmwcyaLorElAnt4wrEhgvMuw2qJJgF8wXbCKuGgN9lraJKBA0kNBykNAgmDUw+ytwHGeJfCaEqBFahZ14FdKR9UE/46gqI28I8gKk1sEJDIMMB84RTQvhKQbQ8M8wIkU2xAcxn28ht7tjjY03ZepbGsg37hX68zRWIz5HW0InupZYdSLgBZtzzgGti96PtlWCoD0pDiiSUAxw27g2nXjyEVI1rSFm0kuAjs4MvJOCLig6mRKFfs7nSyaX3A72dbKOtcPrmLk5IQ1KoYyT5ivIvT1GwjmH37/4cuHr3/56eOvv/7x5fOnX94//v9Pnz6///nzp7//9uPtn/748MPv7+ff/gM=);lineShape=1;strokeColor=#FFFFFF;" vertex="1" parent="1">
          <mxGeometry x="867.5818189716282" y="-705.0034932169283" width="55.45637633087946" height="47.63912602212479" as="geometry" />
        </mxCell>
        <mxCell id="xg1OOrG9r_t1N4pU3jfp-147" value="" style="strokeWidth=2;html=1;shape=mxgraph.flowchart.annotation_1;align=left;pointerEvents=1;direction=north;" vertex="1" parent="1">
          <mxGeometry x="788" y="-891" width="16.82" height="13" as="geometry" />
        </mxCell>
        <mxCell id="xg1OOrG9r_t1N4pU3jfp-148" value="" style="line;strokeWidth=2;html=1;" vertex="1" parent="1">
          <mxGeometry x="771.85" y="-895" width="17.31" height="10" as="geometry" />
        </mxCell>
        <mxCell id="xg1OOrG9r_t1N4pU3jfp-149" value="" style="shape=partialRectangle;whiteSpace=wrap;html=1;bottom=1;right=1;left=1;top=0;fillColor=none;routingCenterX=-0.5;" vertex="1" parent="1">
          <mxGeometry x="756" y="-676.42" width="122" height="102" as="geometry" />
        </mxCell>
        <mxCell id="xg1OOrG9r_t1N4pU3jfp-152" value="" style="html=1;points=[[0,0,0,0,5],[0,1,0,0,-5],[1,0,0,0,5],[1,1,0,0,-5]];perimeter=orthogonalPerimeter;outlineConnect=0;targetShapes=umlLifeline;portConstraint=eastwest;newEdgeStyle={&quot;curved&quot;:0,&quot;rounded&quot;:0};direction=south;" vertex="1" parent="1">
          <mxGeometry x="768.4300000000001" y="-779" width="27.94" height="4" as="geometry" />
        </mxCell>
        <mxCell id="xg1OOrG9r_t1N4pU3jfp-153" value="" style="html=1;points=[[0,0,0,0,5],[0,1,0,0,-5],[1,0,0,0,5],[1,1,0,0,-5]];perimeter=orthogonalPerimeter;outlineConnect=0;targetShapes=umlLifeline;portConstraint=eastwest;newEdgeStyle={&quot;curved&quot;:0,&quot;rounded&quot;:0};direction=south;" vertex="1" parent="1">
          <mxGeometry x="732.5" y="-779" width="28" height="4" as="geometry" />
        </mxCell>
      </root>
    </mxGraphModel>
  </diagram>
</mxfile>
